<svg id="Layer_1" data-name="Layer 1" xmlns="http://www.w3.org/2000/svg" viewBox="0 0 418.8 314.96"><defs><style>.cls-1{fill:#7b7d7d;}.cls-2{fill:#6f7273;}.cls-3{fill:#7c7d7d;}.cls-4{fill:#8e9191;}.cls-5{fill:#868989;}</style></defs><path class="cls-1" d="M397,487.66,225.92,454.19c-16.37-2.73-67.52-65.14-68.56-80.64l33.15-152.64L421.4,172.7l70.05,22.82L576.16,372l-50.5,30.43-22.81,38Z" transform="translate(-157.36 -172.7)"/><polygon class="cls-2" points="239.61 314.96 345.5 267.79 368.3 229.75 291.74 157.48 239.61 314.96"/><polygon class="cls-3" points="264.05 0 291.74 157.48 334.1 22.82 264.05 0"/><path class="cls-4" d="M190.51,220.91l34.91,51a48.44,48.44,0,0,0,35,17.47L381.91,344a39.46,39.46,0,0,0,30.45.7l36.74-14.48L421.4,172.7Z" transform="translate(-157.36 -172.7)"/><polygon class="cls-5" points="133.2 130.23 133.2 294.13 239.61 314.96 291.74 157.48 133.2 130.23"/><polygon class="cls-2" points="324.58 188.48 368.3 229.75 418.8 199.32 348.1 52.01 324.58 188.48"/></svg>