<svg id="Layer_1" data-name="Layer 1" xmlns="http://www.w3.org/2000/svg" viewBox="0 0 518.73 272.36"><defs><style>.cls-1{fill:#7b7d7d;}.cls-2{fill:#6a6b6b;}.cls-3{fill:#8e9191;}.cls-4{fill:#868989;}.cls-5{fill:#6f7273;}</style></defs><polygon class="cls-1" points="0 168.61 198.02 272.36 400 229.13 518.73 243.54 460.09 93.67 332.79 0 101.4 43.23 0 168.61"/><polygon class="cls-2" points="400 229.13 460.09 93.67 518.73 243.54 400 229.13"/><polygon class="cls-3" points="101.4 43.23 233.72 136.18 332.79 0 101.4 43.23"/><polygon class="cls-4" points="233.72 136.18 198.02 272.36 400 229.13 233.72 136.18"/><polygon class="cls-4" points="373.76 139.68 332.79 0 233.72 136.18 373.76 139.68"/><polygon class="cls-5" points="332.79 0 400 229.13 460.09 93.67 332.79 0"/><polygon class="cls-4" points="101.4 43.23 120.78 161.4 233.72 136.18 101.4 43.23"/></svg>