<svg id="Layer_1" data-name="Layer 1" xmlns="http://www.w3.org/2000/svg" viewBox="0 0 665.74 361.04"><defs><style>.cls-1{fill:#7b7d7d;}.cls-2{fill:#6f7273;}.cls-3{fill:#868989;}.cls-4{fill:#8e9191;}.cls-5{fill:#6a6b6b;}</style></defs><polygon class="cls-1" points="0 245.34 347.29 361.04 665.74 279.77 585.5 82.8 346.27 0 102.43 114.48 0 245.34"/><polygon class="cls-2" points="347.29 361.04 379.88 165.45 585.5 82.8 665.74 279.77 347.29 361.04"/><polygon class="cls-3" points="379.88 165.45 249.5 209.53 347.29 361.04 379.88 165.45"/><polygon class="cls-4" points="346.27 0 109.16 114.48 256.23 209.53 386.61 165.45 346.27 0"/><polygon class="cls-3" points="346.27 0 386.61 165.45 492.91 50.46 346.27 0"/><polygon class="cls-5" points="461.2 331.97 539.11 202.65 630.63 202.65 665.74 279.77 461.2 331.97"/><polygon class="cls-3" points="0 245.34 87.23 274.4 150.41 141.14 102.43 114.48 0 245.34"/></svg>