<svg id="Layer_1" data-name="Layer 1" xmlns="http://www.w3.org/2000/svg" viewBox="0 0 312.86 281.45"><defs><style>.cls-1{fill:#7b7d7d;}.cls-2{fill:#6f7273;}.cls-3{fill:#8e9191;}.cls-4{fill:#868989;}</style></defs><path class="cls-1" d="M249.35,235.31,193.57,329s95.77,91,124.57,130.69S454.92,423,454.92,423L503.73,252.1s27.2-30.53-91.19-53.42S249.35,235.31,249.35,235.31Z" transform="translate(-193.57 -189.93)"/><polygon class="cls-2" points="170.97 133.9 310.16 62.16 261.35 233.11 170.97 133.9"/><path class="cls-3" d="M232.13,264.21l132.41,59.62,69.6-120.52C427,200.55,338.52,168,272.53,215.93A132.26,132.26,0,0,0,232.13,264.21Z" transform="translate(-193.57 -189.93)"/><path class="cls-4" d="M364.54,323.83l-98,67.11s14.4,26,66.61,80.17c0,0,71.37,6.87,121.78-48.07" transform="translate(-193.57 -189.93)"/></svg>