<svg id="Layer_1" data-name="Layer 1" xmlns="http://www.w3.org/2000/svg" viewBox="0 0 535.4 387.08"><defs><style>.cls-1{fill:#7b7d7d;}.cls-2{fill:#6f7273;}.cls-3{fill:#868989;}.cls-4{fill:#8e9191;}.cls-5{fill:#7c7d7d;}</style></defs><path class="cls-1" d="M1021.79,817.57,803.12,785.73c-20.93-2.59-86.32-62-87.66-76.72l42.38-145.2L1053,517.94l89.55,21.72,108.29,167.91-64.55,28.95-29.16,36.18Z" transform="translate(-715.46 -430.49)"/><polygon class="cls-2" points="306.32 387.08 441.69 342.21 470.84 306.02 372.96 237.27 306.32 387.08"/><polygon class="cls-3" points="337.56 87.45 372.96 237.27 427.11 109.16 337.56 87.45"/><path class="cls-4" d="M757.84,563.81l44.64,48.52c10.7,9.82,27,15.9,44.74,16.63l155.32,51.91a66.51,66.51,0,0,0,38.92.66l47-13.77L1053,517.94Z" transform="translate(-715.46 -430.49)"/><polygon class="cls-3" points="170.29 211.34 170.29 367.27 306.32 387.08 372.96 237.27 170.29 211.34"/><polygon class="cls-2" points="414.95 266.76 470.84 306.02 535.4 277.07 445.02 136.93 414.95 266.76"/><path class="cls-1" d="M989.78,639.58l-127-22.22c-12.16-1.81-50.15-43.24-50.92-53.53L836.47,462.5l171.46-32,52,15.16,62.91,117.17-37.5,20.2-16.94,25.25Z" transform="translate(-715.46 -430.49)"/><polygon class="cls-1" points="274.32 209.09 352.95 177.78 369.88 152.52 313.03 104.55 274.32 209.09"/><polygon class="cls-5" points="292.46 0 313.03 104.55 344.48 15.15 292.46 0"/><path class="cls-4" d="M836.47,462.5l25.92,33.86c6.22,6.85,15.71,11.09,26,11.6l90.22,36.23a32.51,32.51,0,0,0,22.61.46l27.28-9.61-20.56-104.55Z" transform="translate(-715.46 -430.49)"/><polygon class="cls-3" points="195.3 86.45 195.3 195.26 274.32 209.09 313.03 104.55 195.3 86.45"/><polygon class="cls-2" points="337.42 125.12 369.88 152.52 407.38 132.32 354.88 34.52 337.42 125.12"/></svg>