<svg id="Layer_1" data-name="Layer 1" xmlns="http://www.w3.org/2000/svg" viewBox="0 0 223.1 406"><defs><style>.cls-1{fill:#7b7d7d;}.cls-2{fill:#868989;}.cls-3{fill:#6a6b6b;}</style></defs><polygon class="cls-1" points="18 241 0 377 117 406 223.1 396.5 214.46 241 159 40 75 0 47.33 117 18 241"/><polygon class="cls-2" points="118 136 51.19 100.67 75 0 159 40 183.07 127.25 118 136"/><path class="cls-2" d="M1035,668.11c29.85-76.5-65.28-132.37-78.54-12.27,0,0-9.16,6.95-2.42,14.37,0,0-5.23,8.37-3.31,15.31.47,1.71,9.56,2.85,12.64,6.92,3.88,5.14,1.94,13.24,2.75,13.87,0,0,15.86,16.08,41.51,7,0,0,4.39-16.5,9.33-15.67s16.56,9.49,14.67-13.81C1031.67,683.82,1039.05,683.14,1035,668.11Zm-60.37,3.06-.24.05c-9.76,2-15.75-11.76-9.39-21.57,2.69-4.14,6-7.16,9.73-8.58,4-1.54,11.82-2.46,15.11,3.59,2.77,5.05,1,12.3-1.11,16.42C984.83,669,977.42,670.58,974.67,671.17Zm21.88,19.06c-1.57.93-2.52-1-6.2-2-4.18-1.13-6,.5-7.06-1.19-1.27-2.09.46-6.51,1.56-9.31,1.39-3.52,4.74-12.07,8.55-12,4,.11,6.58,9.86,5.81,17.26C999.06,684.51,998.59,689,996.55,690.23Zm14.65-12.83-.21-.12c-2.41-1.46-8.89-5.38-10-14.14-.59-4.58.06-12,4.33-15.89,5.1-4.63,12.14-1.22,15.46,1.56,3,2.56,5.2,6.5,6.38,11.29C1029.93,671.45,1019.77,682.46,1011.2,677.4Z" transform="translate(-929 -423)"/><polygon class="cls-3" points="118 136 117 406 223.1 396.5 214.46 241 183.07 127.25 118 136"/></svg>