
<svg xmlns="http://www.w3.org/2000/svg" version="1.1" xmlns:xlink="http://www.w3.org/1999/xlink" preserveAspectRatio="none" x="0px" y="0px" width="1920px" height="1080px" viewBox="0 0 1920 1080">
<defs>
<g id="Layer0_0_FILL">
<path fill="#775C49" stroke="none" d="
M 1007.6 742.3
Q 1027.4 762.17109375 1027.4 790.3 1027.4 818.45 1007.5 838.4 1004.8705078125 841.0228515625 1002.1 843.3
L 1199.45 843.3
Q 1203.8 843.3 1207.45 841 1211.15 838.7 1213.05 834.85 1222.9 814.85 1222.9 792.8 1222.9 770.7 1213.05 750.7 1211.15 746.85 1207.45 744.55 1203.8 742.3 1199.45 742.3
L 1118.45 742.3 1007.6 742.3
M 709.7 745
Q 705.8 747.75 704.15 752.2 696.9 771.7 696.9 792.8 696.9 813.85 704.15 833.35 705.8 837.8 709.7 840.55 713.65 843.3 718.4 843.3
L 916.7 843.3
Q 913.9228515625 841.0228515625 911.3 838.4 891.4 818.45 891.4 790.3 891.4 762.1705078125 911.2 742.3
L 790.65 742.3 718.4 742.3
Q 713.65 742.3 709.7 745 Z"/>

<path fill="#EAB849" stroke="none" d="
M 980.3 271.35
Q 980.15 270.5 978.9 270.05 977.7 269.65 977.8 270.55 982.85 307.4 979.2 335.55 976.35 357.35 967.65 376.95 962.75 388.05 952.75 405.9 945.05 421.25 944.1 433.85 944 435.2 942.65 435.25 941.3 435.25 941.15 433.9 932.45 354.55 914 304.85 897.7 261.05 872.3 236.45 852.1 216.95 820.75 205.35 810.2 201.4 792.8 196.45 769.55 189.75 764.15 188.05 763.9 188 768.6 205.75 773.7 229.9 775.2 259.7 780.05 356.55 745.95 479.1 712.6 598.5 741.65 674.4 751.35 699.7 767.95 719.45 773.45 726 780.25 732.5 783.85 735.95 788.9 740.6 789.7791015625 741.4615234375 790.65 742.3
L 911.2 742.3
Q 911.2501953125 742.2498046875 911.3 742.2 931.2 722.3 959.4 722.3 987.55 722.3 1007.5 742.2 1007.5501953125 742.2501953125 1007.6 742.3
L 1118.45 742.3
Q 1148.1 686.85 1163.75 611.4 1177.2 546.55 1178.9 475.4 1180.4 413.05 1172.8 363.6 1165.6 316.6 1154.3 305.3 1154.15 305.15 1144 351.95 1131.2 410.95 1121.45 451.05 1087.8 589.55 1079.9 551.8 1070.4 506.7 1025.55 392 1003.65 336.65 995.4 315.3 981.7 279.8 980.3 271.35 Z"/>

<path fill="#5A4538" stroke="none" d="
M 911.3 742.2
Q 911.2501953125 742.2498046875 911.2 742.3 891.4 762.1705078125 891.4 790.3 891.4 818.45 911.3 838.4 913.9228515625 841.0228515625 916.7 843.3 934.9169921875 858.3 959.4 858.3 983.8396484375 858.3 1002.1 843.3 1004.8705078125 841.0228515625 1007.5 838.4 1027.4 818.45 1027.4 790.3 1027.4 762.17109375 1007.6 742.3 1007.5501953125 742.2501953125 1007.5 742.2 987.55 722.3 959.4 722.3 931.2 722.3 911.3 742.2 Z"/>
</g>
</defs>

<g transform="matrix( 1, 0, 0, 1, 0,0) ">
<use xlink:href="#Layer0_0_FILL"/>
</g>
</svg>
