<svg id="Layer_1" data-name="Layer 1" xmlns="http://www.w3.org/2000/svg" viewBox="0 0 393.04 97.65"><defs><style>.cls-1{fill:#868989;}.cls-2{fill:#6a6b6b;}.cls-3{fill:#7b7d7d;}</style></defs><path class="cls-1" d="M1051.2,577.21c-29.12,11.21-48,28.57-45.72,41,3.2,17.31,46.39,20.57,56.36,21.32,7.67.58,62.72,4.73,70.33-17.74,5-14.7-11.93-36.22-30.64-45.2C1077.93,565.33,1054.8,575.55,1051.2,577.21Z" transform="translate(-740.02 -556.99)"/><path class="cls-2" d="M1002.12,570.81c22.45,7.92,41.37,32.24,36.26,48-8.17,25.24-80.41,37.18-97.49,9.27-7.67-12.53-3.93-32.64,6.13-45.24C961.64,564.57,987,565.46,1002.12,570.81Z" transform="translate(-740.02 -556.99)"/><path class="cls-1" d="M780.65,580.5c-25.77,9.92-42.51,25.28-40.47,36.33C743,632.15,781.25,635,790.07,635.7c6.78.51,55.51,4.19,62.25-15.7,4.41-13-10.56-32.06-27.12-40C804.31,570,783.84,579,780.65,580.5Z" transform="translate(-740.02 -556.99)"/><path class="cls-3" d="M856.4,578.59c-11.25,9.15-35.28,33.42-28.65,50.73C838.2,656.6,925.33,668,946,631.88c11.64-20.33,3.11-57.37-21.51-70.34C895.87,546.48,863.07,573.17,856.4,578.59Z" transform="translate(-740.02 -556.99)"/></svg>