
<svg xmlns="http://www.w3.org/2000/svg" version="1.1" xmlns:xlink="http://www.w3.org/1999/xlink" preserveAspectRatio="none" x="0px" y="0px" width="1920px" height="1080px" viewBox="0 0 1920 1080">
<defs>
<g id="Layer0_0_FILL">
<path fill="#EAB849" stroke="none" d="
M 1018.9 219.05
Q 1018.75 218.2 1017.9 217.9 1017.05 217.6 1016.4 218.25 1002.85 231.75 992.95 292.1 986.55 331.05 982.7 381.55 982.6 382.9 981.25 382.95 979.9 382.95 979.75 381.6 971.3 304.4 948.05 254.1 929.05 212.95 900.9 191.25 879.8 174.95 855.15 170.65 840.4 168.05 827.65 170.05 826.85 170.2 826.55 170.9 826.2 171.65 826.65 172.3 835.2 186.25 843.3 206.2 857.1 240.2 863.35 278.1 882.3 392.8 828.5 510.5 797.5 578.3 800.65 626.1 803.2 664.45 827.5 688.3 845 705.45 871.85 713.6 885.4 717.7 896.45 718.45
L 896.5 718.5 1127.6 718.5
Q 1128.1 718.5 1128.6 718.1 1196.75 657.95 1213.3 586.4 1226.85 527.75 1205.45 463.7 1189.35 415.5 1154.95 367.8 1134.25 339.05 1111.7 316.55 1110.9 315.75 1109.85 316.35 1108.85 316.95 1109.2 318.05 1129.65 383.85 1138.2 433.1 1153.1 519.1 1118.5 499.5 1082.8 479.25 1049.2 357.2 1031 291.1 1018.9 219.05 Z"/>
</g>

<g id="Layer0_1_FILL">
<path fill="#775C49" stroke="none" d="
M 757 690
Q 752.25 690 748.3 692.7 744.4 695.45 742.75 699.9 735.5 719.4 735.5 740.5 735.5 761.55 742.75 781.05 744.4 785.5 748.3 788.25 752.25 791 757 791
L 1238.05 791
Q 1242.4 791 1246.05 788.7 1249.75 786.4 1251.65 782.55 1261.5 762.55 1261.5 740.5 1261.5 718.4 1251.65 698.4 1249.75 694.55 1246.05 692.25 1242.4 690 1238.05 690
L 757 690 Z"/>
</g>

<g id="Layer0_2_FILL">
<path fill="#5A4538" stroke="none" d="
M 930 738
Q 930 766.15 949.9 786.1 969.8 806 998 806 1026.15 806 1046.1 786.1 1066 766.15 1066 738 1066 709.8 1046.1 689.9 1026.15 670 998 670 969.8 670 949.9 689.9 930 709.8 930 738 Z"/>
</g>
</defs>

<g transform="matrix( 1, 0, 0, 1, -38.6,52.3) ">
<use xlink:href="#Layer0_0_FILL"/>
</g>

<g transform="matrix( 1, 0, 0, 1, -38.6,52.3) ">
<use xlink:href="#Layer0_1_FILL"/>
</g>

<g transform="matrix( 1, 0, 0, 1, -38.6,52.3) ">
<use xlink:href="#Layer0_2_FILL"/>
</g>
</svg>
