
<svg xmlns="http://www.w3.org/2000/svg" version="1.1" xmlns:xlink="http://www.w3.org/1999/xlink" preserveAspectRatio="none" x="0px" y="0px" width="1920px" height="1080px" viewBox="0 0 1920 1080">
<defs>
<g id="Layer0_0_FILL">
<path fill="#775C49" stroke="none" d="
M 1007.6 742.3
Q 1027.4 762.17109375 1027.4 790.3 1027.4 818.45 1007.5 838.4 1004.8705078125 841.0228515625 1002.1 843.3
L 1199.45 843.3
Q 1203.8 843.3 1207.45 841 1211.15 838.7 1213.05 834.85 1222.9 814.85 1222.9 792.8 1222.9 770.7 1213.05 750.7 1211.15 746.85 1207.45 744.55 1203.8 742.3 1199.45 742.3
L 1118.45 742.3 1007.6 742.3
M 709.7 745
Q 705.8 747.75 704.15 752.2 696.9 771.7 696.9 792.8 696.9 813.85 704.15 833.35 705.8 837.8 709.7 840.55 713.65 843.3 718.4 843.3
L 916.7 843.3
Q 913.9228515625 841.0228515625 911.3 838.4 891.4 818.45 891.4 790.3 891.4 762.1705078125 911.2 742.3
L 790.65 742.3 718.4 742.3
Q 713.65 742.3 709.7 745 Z"/>

<path fill="#EAB849" stroke="none" d="
M 980.3 271.35
Q 980.15 270.5 978.9 270.05 977.7 269.65 977.8 270.55 987.8 343.3 976.35 382.95 971.55 399.45 962.5 412.7 955.85 422.45 944.1 433.85 943.35 434.6 942.8 434.4 941.6 433.95 941.15 433.9 906.3 431.55 893.35 427.75 873.7 422 863.1 406 851.7 388.9 844.8 351.9 838.3 317.3 832.85 248.7 832.8 248.2 822.45 272.9 810.15 302.15 797.9 333 760.25 427.7 745.95 479.1 712.6 598.5 741.65 674.4 751.35 699.7 767.95 719.45 773.45 726 780.25 732.5 783.85 735.95 788.9 740.6 789.7791015625 741.4615234375 790.65 742.3
L 911.2 742.3
Q 911.2501953125 742.2498046875 911.3 742.2 931.2 722.3 959.4 722.3 987.55 722.3 1007.5 742.2 1007.5501953125 742.2501953125 1007.6 742.3
L 1118.45 742.3
Q 1143.4 733.25 1159.1 719.15 1174.3 705.5 1182.25 685.75 1189.7 667.25 1191.65 641.05 1193.35 617.9 1191 584.05 1189.25 559.3 1184.05 513.65 1176 443.85 1174.45 428.95 1162.35 312.95 1162.35 212.3 1144.65 256.5 1125.5 321.6 1087.25 451.8 1079.9 551.8 1077.95 579.55 1062.55 545.6 1050 517.8 1029.65 451.65 1013.5 399.15 996.95 337.65 982.3 283.25 980.3 271.35 Z"/>

<path fill="#5A4538" stroke="none" d="
M 911.3 742.2
Q 911.2501953125 742.2498046875 911.2 742.3 891.4 762.1705078125 891.4 790.3 891.4 818.45 911.3 838.4 913.9228515625 841.0228515625 916.7 843.3 934.9169921875 858.3 959.4 858.3 983.8396484375 858.3 1002.1 843.3 1004.8705078125 841.0228515625 1007.5 838.4 1027.4 818.45 1027.4 790.3 1027.4 762.17109375 1007.6 742.3 1007.5501953125 742.2501953125 1007.5 742.2 987.55 722.3 959.4 722.3 931.2 722.3 911.3 742.2 Z"/>
</g>
</defs>

<g transform="matrix( 1, 0, 0, 1, 0,0) ">
<use xlink:href="#Layer0_0_FILL"/>
</g>
</svg>
