<svg id="Layer_1" data-name="Layer 1" xmlns="http://www.w3.org/2000/svg" viewBox="0 0 579.71 105.1"><defs><style>.cls-1{fill:#77625c;}.cls-2{fill:#614c47;}.cls-3{fill:#57433e;}.cls-4{fill:#473834;}.cls-5{fill:#8ed4db;}.cls-6{fill:none;stroke:#fff;stroke-linecap:round;stroke-linejoin:round;stroke-width:3px;opacity:0.49;}</style></defs><polygon class="cls-1" points="139.3 55.33 139.3 12.32 226.5 6.53 226.5 55.33 139.3 55.33"/><polygon class="cls-1" points="390.5 47.73 390.5 18.11 477.7 14.13 477.7 47.73 390.5 47.73"/><path class="cls-2" d="M73.17,377.57,92,405a88.24,88.24,0,0,0,66,29.14l156.35-.93,230.81-1.38a97.79,97.79,0,0,0,84-48.41l.37-.65c4.58-7.94,9-19.33,12-26.51-120.25,4.24-511.45,15-565.69,16A3.38,3.38,0,0,0,73.17,377.57Z" transform="translate(-65.51 -329.06)"/><path class="cls-3" d="M286.05,366.71l355.53-10.43a103.24,103.24,0,0,1-36.88,55.11c-28.84,21.89-59.78,21-67.91,20.51l-110.38.66a120.22,120.22,0,0,0-23.27-31.25C360.07,359.91,299.28,365.24,286.05,366.71Z" transform="translate(-65.51 -329.06)"/><rect class="cls-2" x="449.21" y="339.39" width="100.8" height="7.6" rx="3.8" transform="translate(-84.75 -299.22) rotate(-3.36)"/><rect class="cls-2" x="198.01" y="331.79" width="100.8" height="7.6" rx="3.8" transform="translate(-84.74 -313.94) rotate(-3.36)"/><rect class="cls-4" x="350.89" y="74.55" width="8.95" height="579.92" rx="4.05" transform="translate(644.02 -330.23) rotate(88.36)"/><circle class="cls-4" cx="300.2" cy="67.54" r="25.08"/><circle class="cls-4" cx="477.42" cy="66.16" r="25.08"/><circle class="cls-4" cx="126.89" cy="71.9" r="25.08"/><circle class="cls-5" cx="126.89" cy="72.83" r="17.05"/><circle class="cls-5" cx="300.2" cy="67.54" r="17.05"/><circle class="cls-5" cx="477.7" cy="66.18" r="17.05"/><line class="cls-6" x1="116.73" y1="75.57" x2="126.89" y2="62.77"/><line class="cls-6" x1="126.89" y1="83.23" x2="137.05" y2="70.43"/><line class="cls-6" x1="290.04" y1="70.65" x2="300.2" y2="57.85"/><line class="cls-6" x1="300.2" y1="78.3" x2="310.36" y2="65.5"/><line class="cls-6" x1="467.55" y1="68.75" x2="477.7" y2="55.95"/><line class="cls-6" x1="477.7" y1="76.41" x2="487.86" y2="63.61"/><path class="cls-2" d="M212.94,352.41h0c0,4.09,2.4,7.4,5.37,7.4h62.2a5,5,0,0,0,4.21-2.81c1.27-2.2,1-5.52-.1-7.83-1.48-3.14-2.18-7.64-6.53-7.4L217.92,345C215.12,345.32,212.94,348.54,212.94,352.41Z" transform="translate(-65.51 -329.06)"/><path class="cls-5" d="M219.43,352.22h0c0,1.92,2,3.48,4.55,3.48h52.64c2.58,0,4.64-1.63,4.55-3.6l-.14-2.87c-.09-2-2.3-3.48-4.86-3.34l-52.52,2.87C221.28,348.89,219.43,350.4,219.43,352.22Z" transform="translate(-65.51 -329.06)"/></svg>