<svg id="Layer_1" data-name="Layer 1" xmlns="http://www.w3.org/2000/svg" viewBox="0 0 219.47 287.17"><defs><style>.cls-1{fill:#d5d2bf;}.cls-2{fill:#c1bdaa;}</style></defs><path class="cls-1" d="M454.3,480.87c-22.64-2.53-39.08-12.32-66.52-12.22-25.48.1-57.81,9.84-79.09,12.22V201.24A676.93,676.93,0,0,1,413.65,365,693.78,693.78,0,0,1,454.3,480.87Z" transform="translate(-234.83 -199.33)"/><path class="cls-1" d="M234.83,479a94.12,94.12,0,0,0,73.86,0V199.33a769.7,769.7,0,0,1-36.87,188.53A742.6,742.6,0,0,1,234.83,479Z" transform="translate(-234.83 -199.33)"/><path class="cls-2" d="M308,261.52,310.06,481a350.83,350.83,0,0,1,113.4-7.29C411.57,460.55,396,439.47,380,412.21c-13.36-22.65-16.6-37.61-29.05-67.47A587.51,587.51,0,0,0,308,261.52Z" transform="translate(-234.83 -199.33)"/></svg>