<svg id="Layer_1" data-name="Layer 1" xmlns="http://www.w3.org/2000/svg" viewBox="0 0 215.25 267.9"><defs><style>.cls-1{fill:#d5d2bf;}.cls-2{fill:#c1bdaa;}</style></defs><path class="cls-1" d="M464.37,461.26s-37.95,10.15-64.59,10.25C375,471.6,323,461.26,323,461.26V203.62A621.56,621.56,0,0,1,424.9,354.46,617.41,617.41,0,0,1,464.37,461.26Z" transform="translate(-249.12 -203.62)"/><path class="cls-1" d="M249.12,461.26a100.44,100.44,0,0,1,73.86,0V203.62a660.44,660.44,0,0,1-36.87,173.7A654.69,654.69,0,0,1,249.12,461.26Z" transform="translate(-249.12 -203.62)"/><path class="cls-2" d="M323,255.27v206a241.42,241.42,0,0,0,123.28,4.23A225.86,225.86,0,0,1,395,406c-13.36-22.64-16.6-37.6-29.05-67.46A587.52,587.52,0,0,0,323,255.27Z" transform="translate(-249.12 -203.62)"/></svg>