<svg id="Layer_1" data-name="Layer 1" xmlns="http://www.w3.org/2000/svg" viewBox="0 0 778.12 438.87"><defs><style>.cls-1{fill:#fed1ba;}.cls-2{fill:#f3ac6e;}.cls-3{fill:#fcc08a;}.cls-4{fill:#e69f71;}.cls-5,.cls-6{fill:none;}.cls-6{stroke:#c16953;stroke-miterlimit:10;stroke-width:18px;}</style></defs><rect class="cls-1" x="0.12" y="8.87" width="778" height="430"/><rect class="cls-2" x="469.29" y="168.56" width="112.89" height="50.88" rx="10.13"/><rect class="cls-2" x="418.29" y="237.56" width="112.89" height="50.88" rx="10.13"/><rect class="cls-3" x="469.29" y="39.77" width="112.89" height="50.88" rx="10.13"/><rect class="cls-3" x="402.29" y="103.77" width="112.89" height="50.88" rx="10.13"/><rect class="cls-2" x="525.74" y="104.17" width="112.89" height="50.88" rx="10.13"/><rect class="cls-3" x="540.05" y="236.94" width="112.89" height="50.88" rx="10.13"/><rect class="cls-2" x="645.78" y="104.17" width="112.89" height="50.88" rx="10.13"/><path class="cls-2" d="M1347.12,495.56v50.88h-57A10.13,10.13,0,0,1,1280,536.31V505.7a10.14,10.14,0,0,1,10.13-10.14Z" transform="translate(-569 -327)"/><path class="cls-2" d="M1347.12,563.94v50.88h-14.88a10.13,10.13,0,0,1-10.13-10.14V574.07a10.12,10.12,0,0,1,10.13-10.13Z" transform="translate(-569 -327)"/><rect class="cls-4" x="589.34" y="168.56" width="112.89" height="50.88" rx="10.13"/><rect class="cls-2" x="589.34" y="39.77" width="112.89" height="50.88" rx="10.13"/><path class="cls-4" d="M1347.12,366.77v50.88h-58.61a10.13,10.13,0,0,1-10.13-10.13V376.9a10.14,10.14,0,0,1,10.13-10.13Z" transform="translate(-569 -327)"/><rect class="cls-4" x="375.39" y="39.77" width="83.48" height="50.88" rx="10.13"/><path class="cls-2" d="M1347.12,431.17v50.88h-.57a10.13,10.13,0,0,1-10.13-10.13V441.3a10.12,10.12,0,0,1,10.13-10.13Z" transform="translate(-569 -327)"/><rect class="cls-2" x="660.09" y="236.94" width="83.48" height="50.88" rx="10.13"/><rect class="cls-2" x="374.91" y="168.56" width="83.48" height="50.88" rx="10.13"/><rect class="cls-2" x="458.16" y="298.95" width="112.89" height="50.88" rx="10.13"/><rect class="cls-4" x="528.92" y="367.32" width="112.89" height="50.88" rx="10.13"/><rect class="cls-2" x="407.5" y="367.32" width="112.89" height="50.88" rx="10.13"/><path class="cls-3" d="M1347.12,626v50.88H1279a10.14,10.14,0,0,1-10.13-10.13V636.08A10.13,10.13,0,0,1,1279,626Z" transform="translate(-569 -327)"/><rect class="cls-3" x="331.85" y="298.95" width="112.89" height="50.88" rx="10.13"/><path class="cls-4" d="M1347.12,694.32V745.2h-26A10.13,10.13,0,0,1,1311,735.07V704.45a10.12,10.12,0,0,1,10.13-10.13Z" transform="translate(-569 -327)"/><rect class="cls-2" x="578.21" y="298.95" width="112.89" height="50.88" rx="10.13"/><rect class="cls-2" x="648.96" y="367.32" width="83.48" height="50.88" rx="10.13"/><rect class="cls-2" x="275.63" y="236.94" width="112.89" height="50.88" rx="10.13"/><path class="cls-2" d="M614.87,505.7v30.61a10.13,10.13,0,0,1-10.14,10.13H569.12V495.56h35.61A10.14,10.14,0,0,1,614.87,505.7Z" transform="translate(-569 -327)"/><path class="cls-2" d="M657,574.07v30.61a10.13,10.13,0,0,1-10.13,10.14H569.12V563.94h77.75A10.12,10.12,0,0,1,657,574.07Z" transform="translate(-569 -327)"/><rect class="cls-2" x="23.61" y="39.77" width="112.89" height="50.88" rx="10.13"/><rect class="cls-3" x="80.05" y="104.17" width="112.89" height="50.88" rx="10.13"/><rect class="cls-3" x="395.05" y="104.17" width="112.89" height="50.88" rx="10.13"/><rect class="cls-4" x="143.66" y="168.56" width="112.89" height="50.88" rx="10.13"/><rect class="cls-4" x="331.66" y="39.56" width="112.89" height="50.88" rx="10.13"/><rect class="cls-4" x="402.66" y="237.56" width="112.89" height="50.88" rx="10.13"/><rect class="cls-4" x="418.66" y="237.56" width="112.89" height="50.88" rx="10.13"/><path class="cls-4" d="M583.86,376.9v30.62a10.13,10.13,0,0,1-10.13,10.13h-4.61V366.77h4.61A10.14,10.14,0,0,1,583.86,376.9Z" transform="translate(-569 -327)"/><rect class="cls-2" x="202.49" y="104.17" width="83.48" height="50.88" rx="10.13"/><path class="cls-2" d="M569.12,482.05h62.64a10.14,10.14,0,0,0,10.14-10.13V441.3a10.13,10.13,0,0,0-10.14-10.13H569.12Z" transform="translate(-569 -327)"/><rect class="cls-2" x="53.02" y="168.56" width="83.48" height="50.88" rx="10.13"/><rect class="cls-2" x="262.91" y="168.56" width="83.48" height="50.88" rx="10.13"/><rect class="cls-2" x="360.91" y="168.56" width="83.48" height="50.88" rx="10.13"/><rect class="cls-3" x="95.16" y="236.94" width="83.48" height="50.88" rx="10.13"/><rect class="cls-3" x="346.16" y="298.94" width="83.48" height="50.88" rx="10.13"/><rect class="cls-2" x="295.5" y="104.17" width="83.48" height="50.88" rx="10.13"/><rect class="cls-2" x="185" y="236.94" width="83.48" height="50.88" rx="10.13"/><rect class="cls-2" x="143.66" y="39.77" width="83.48" height="50.88" rx="10.13"/><rect class="cls-3" x="233.49" y="39.77" width="83.48" height="50.88" rx="10.13"/><rect class="cls-2" x="264.5" y="367.32" width="112.89" height="50.88" rx="10.13"/><rect class="cls-2" x="388.5" y="367.32" width="112.89" height="50.88" rx="10.13"/><path class="cls-3" d="M603.73,636.08V666.7a10.13,10.13,0,0,1-10.13,10.13H569.12V626H593.6A10.12,10.12,0,0,1,603.73,636.08Z" transform="translate(-569 -327)"/><path class="cls-4" d="M645.87,704.45v30.62a10.14,10.14,0,0,1-10.13,10.13H569.12V694.32h66.62A10.13,10.13,0,0,1,645.87,704.45Z" transform="translate(-569 -327)"/><rect class="cls-2" x="132.53" y="298.95" width="112.89" height="50.88" rx="10.13"/><rect class="cls-2" x="41.89" y="298.95" width="83.48" height="50.88" rx="10.13"/><rect class="cls-4" x="251.78" y="298.95" width="83.48" height="50.88" rx="10.13"/><rect class="cls-2" x="84.03" y="367.32" width="83.48" height="50.88" rx="10.13"/><rect class="cls-3" x="173.87" y="367.32" width="83.48" height="50.88" rx="10.13"/><line class="cls-5" x1="0.12" y1="155.05" x2="0.12" y2="104.17"/><line class="cls-6" y1="9" x2="778" y2="9"/></svg>