<svg id="Layer_1" data-name="Layer 1" xmlns="http://www.w3.org/2000/svg" viewBox="0 0 778 415"><defs><style>.cls-1{fill:#fed1ba;}.cls-2{fill:#f3ac6e;}.cls-3{fill:#fcc08a;}.cls-4{fill:#e69f71;}.cls-5{fill:none;}</style></defs><rect class="cls-1" width="778" height="415"/><rect class="cls-2" x="469.17" y="144.69" width="112.89" height="50.88" rx="10.13"/><rect class="cls-2" x="418.17" y="213.69" width="112.89" height="50.88" rx="10.13"/><rect class="cls-3" x="469.17" y="15.9" width="112.89" height="50.88" rx="10.13"/><rect class="cls-3" x="402.17" y="79.9" width="112.89" height="50.88" rx="10.13"/><rect class="cls-2" x="525.61" y="80.3" width="112.89" height="50.88" rx="10.13"/><rect class="cls-3" x="539.92" y="213.07" width="112.89" height="50.88" rx="10.13"/><rect class="cls-2" x="645.66" y="80.3" width="112.89" height="50.88" rx="10.13"/><path class="cls-2" d="M1334,530.52V581.4h-57a10.13,10.13,0,0,1-10.13-10.13V540.66a10.14,10.14,0,0,1,10.13-10.14Z" transform="translate(-555.95 -385.83)"/><path class="cls-2" d="M1334,598.9v50.88h-14.88a10.13,10.13,0,0,1-10.13-10.14V609a10.12,10.12,0,0,1,10.13-10.13Z" transform="translate(-555.95 -385.83)"/><rect class="cls-4" x="589.21" y="144.69" width="112.89" height="50.88" rx="10.13"/><rect class="cls-2" x="589.21" y="15.9" width="112.89" height="50.88" rx="10.13"/><path class="cls-4" d="M1334,401.73v50.88h-58.61a10.13,10.13,0,0,1-10.13-10.13V411.86a10.14,10.14,0,0,1,10.13-10.13Z" transform="translate(-555.95 -385.83)"/><rect class="cls-4" x="375.26" y="15.9" width="83.48" height="50.88" rx="10.13"/><path class="cls-2" d="M1334,466.13V517h-.57a10.13,10.13,0,0,1-10.13-10.13V476.26a10.12,10.12,0,0,1,10.13-10.13Z" transform="translate(-555.95 -385.83)"/><rect class="cls-2" x="659.97" y="213.07" width="83.48" height="50.88" rx="10.13"/><rect class="cls-2" x="374.79" y="144.69" width="83.48" height="50.88" rx="10.13"/><rect class="cls-2" x="458.04" y="275.08" width="112.89" height="50.88" rx="10.13"/><rect class="cls-4" x="528.79" y="343.45" width="112.89" height="50.88" rx="10.13"/><rect class="cls-2" x="407.38" y="343.45" width="112.89" height="50.88" rx="10.13"/><path class="cls-3" d="M1334,660.91v50.88H1265.8a10.14,10.14,0,0,1-10.13-10.13V671a10.13,10.13,0,0,1,10.13-10.13Z" transform="translate(-555.95 -385.83)"/><rect class="cls-3" x="331.72" y="275.08" width="112.89" height="50.88" rx="10.13"/><path class="cls-4" d="M1334,729.28v50.88h-26A10.13,10.13,0,0,1,1297.81,770V739.41a10.12,10.12,0,0,1,10.13-10.13Z" transform="translate(-555.95 -385.83)"/><rect class="cls-2" x="578.08" y="275.08" width="112.89" height="50.88" rx="10.13"/><rect class="cls-2" x="648.84" y="343.45" width="83.48" height="50.88" rx="10.13"/><rect class="cls-2" x="275.51" y="213.07" width="112.89" height="50.88" rx="10.13"/><path class="cls-2" d="M601.7,540.66v30.61a10.13,10.13,0,0,1-10.14,10.13H556V530.52h35.61A10.14,10.14,0,0,1,601.7,540.66Z" transform="translate(-555.95 -385.83)"/><path class="cls-2" d="M643.83,609v30.61a10.13,10.13,0,0,1-10.13,10.14H556V598.9H633.7A10.12,10.12,0,0,1,643.83,609Z" transform="translate(-555.95 -385.83)"/><rect class="cls-2" x="23.48" y="15.9" width="112.89" height="50.88" rx="10.13"/><rect class="cls-3" x="79.93" y="80.3" width="112.89" height="50.88" rx="10.13"/><rect class="cls-3" x="394.93" y="80.3" width="112.89" height="50.88" rx="10.13"/><rect class="cls-4" x="143.53" y="144.69" width="112.89" height="50.88" rx="10.13"/><rect class="cls-4" x="331.53" y="15.69" width="112.89" height="50.88" rx="10.13"/><rect class="cls-4" x="402.53" y="213.69" width="112.89" height="50.88" rx="10.13"/><rect class="cls-4" x="418.53" y="213.69" width="112.89" height="50.88" rx="10.13"/><path class="cls-4" d="M570.69,411.86v30.62a10.13,10.13,0,0,1-10.13,10.13H556V401.73h4.61A10.14,10.14,0,0,1,570.69,411.86Z" transform="translate(-555.95 -385.83)"/><rect class="cls-2" x="202.36" y="80.3" width="83.48" height="50.88" rx="10.13"/><path class="cls-2" d="M556,517h62.64a10.14,10.14,0,0,0,10.14-10.13V476.26a10.13,10.13,0,0,0-10.14-10.13H556Z" transform="translate(-555.95 -385.83)"/><rect class="cls-2" x="52.9" y="144.69" width="83.48" height="50.88" rx="10.13"/><rect class="cls-2" x="262.79" y="144.69" width="83.48" height="50.88" rx="10.13"/><rect class="cls-2" x="360.79" y="144.69" width="83.48" height="50.88" rx="10.13"/><rect class="cls-3" x="95.04" y="213.07" width="83.48" height="50.88" rx="10.13"/><rect class="cls-3" x="346.04" y="275.07" width="83.48" height="50.88" rx="10.13"/><rect class="cls-2" x="295.38" y="80.3" width="83.48" height="50.88" rx="10.13"/><rect class="cls-2" x="184.87" y="213.07" width="83.48" height="50.88" rx="10.13"/><rect class="cls-2" x="143.53" y="15.9" width="83.48" height="50.88" rx="10.13"/><rect class="cls-3" x="233.37" y="15.9" width="83.48" height="50.88" rx="10.13"/><rect class="cls-2" x="264.38" y="343.45" width="112.89" height="50.88" rx="10.13"/><rect class="cls-2" x="388.38" y="343.45" width="112.89" height="50.88" rx="10.13"/><path class="cls-3" d="M590.56,671v30.62a10.13,10.13,0,0,1-10.13,10.13H556V660.91h24.48A10.12,10.12,0,0,1,590.56,671Z" transform="translate(-555.95 -385.83)"/><path class="cls-4" d="M632.7,739.41V770a10.14,10.14,0,0,1-10.13,10.13H556V729.28h66.62A10.13,10.13,0,0,1,632.7,739.41Z" transform="translate(-555.95 -385.83)"/><rect class="cls-2" x="132.4" y="275.08" width="112.89" height="50.88" rx="10.13"/><rect class="cls-2" x="41.77" y="275.08" width="83.48" height="50.88" rx="10.13"/><rect class="cls-4" x="251.66" y="275.08" width="83.48" height="50.88" rx="10.13"/><rect class="cls-2" x="83.91" y="343.45" width="83.48" height="50.88" rx="10.13"/><rect class="cls-3" x="173.74" y="343.45" width="83.48" height="50.88" rx="10.13"/><line class="cls-5" y1="131.18" y2="80.3"/></svg>