<svg id="Layer_1" data-name="Layer 1" xmlns="http://www.w3.org/2000/svg" viewBox="0 0 423 703"><defs><style>.cls-1{fill:#e1e2da;}.cls-2{fill:#f7ae47;}.cls-3{fill:#f6b050;}.cls-4{fill:#d7a56a;}.cls-5{fill:#885b56;}.cls-6{fill:#363a3d;}</style></defs><rect class="cls-1" x="51" y="19" width="94" height="55"/><rect class="cls-1" x="283" y="20" width="94" height="55"/><rect class="cls-2" x="10" y="322" width="404" height="250"/><rect class="cls-3" x="10" y="125" width="404" height="197"/><rect class="cls-1" x="3" y="505" width="417" height="193" rx="8.39"/><path class="cls-4" d="M5.71,673H417.29a5.71,5.71,0,0,1,5.71,5.71V703a0,0,0,0,1,0,0H0a0,0,0,0,1,0,0V678.71A5.71,5.71,0,0,1,5.71,673Z"/><polygon class="cls-5" points="422 134 2 134 21.97 47 402.03 47 422 134"/><rect class="cls-4" x="16" y="540" width="101" height="163"/><rect class="cls-6" x="26" y="551" width="82" height="152"/><path class="cls-4" d="M158.76,319H263a27.76,27.76,0,0,1,27.76,27.76V505a0,0,0,0,1,0,0H131a0,0,0,0,1,0,0V346.76A27.76,27.76,0,0,1,158.76,319Z"/><path class="cls-6" d="M159.46,336H263.54A14.46,14.46,0,0,1,278,350.46V505a0,0,0,0,1,0,0H145a0,0,0,0,1,0,0V350.46A14.46,14.46,0,0,1,159.46,336Z"/><rect class="cls-4" x="26" y="154" width="83" height="123" rx="41.5"/><rect class="cls-6" x="39" y="164" width="56" height="102" rx="28"/><rect class="cls-4" x="170" y="154" width="83" height="123" rx="41.5"/><rect class="cls-6" x="183" y="164" width="56" height="102" rx="28"/><rect class="cls-4" x="171" y="540" width="83" height="123" rx="41.5"/><rect class="cls-6" x="184" y="550" width="56" height="102" rx="28"/><rect class="cls-4" x="310.38" y="540.13" width="83" height="123" rx="41.5"/><rect class="cls-6" x="323.38" y="550.13" width="56" height="102" rx="28"/><rect class="cls-4" x="310" y="154" width="83" height="123" rx="41.5"/><rect class="cls-6" x="323" y="164" width="56" height="102" rx="28"/><rect class="cls-4" x="203" y="328" width="18" height="186"/><rect class="cls-1" y="119" width="423" height="30" rx="5.71"/><rect class="cls-5" x="16" y="36" width="391" height="22" rx="11"/><rect class="cls-5" x="39" width="118" height="22" rx="11"/><rect class="cls-5" x="271" width="118" height="22" rx="11"/><rect class="cls-4" x="123" y="496" width="179" height="22"/></svg>