<svg id="Layer_1" data-name="Layer 1" xmlns="http://www.w3.org/2000/svg" viewBox="0 0 407 602.61"><defs><style>.cls-1{fill:#d5e2c4;}.cls-2{fill:#b8c4a5;}.cls-3{fill:#cf935d;}.cls-4{fill:#885b56;}.cls-5{fill:#704643;}.cls-6{fill:#e1e2da;}.cls-7{fill:#d7a56a;}.cls-8{fill:#363a3d;}</style></defs><rect class="cls-1" x="6" y="196.61" width="394" height="230"/><rect class="cls-2" x="6" y="404.61" width="394" height="32"/><path class="cls-3" d="M9,426.61H397a8,8,0,0,1,8,8v168a0,0,0,0,1,0,0H1a0,0,0,0,1,0,0v-168A8,8,0,0,1,9,426.61Z"/><polygon class="cls-4" points="400 196.61 6 196.61 56.88 59.61 349.12 59.61 400 196.61"/><rect class="cls-5" y="181.61" width="407" height="26" rx="13"/><rect class="cls-4" x="49" y="51.61" width="309" height="19" rx="9.5"/><polygon class="cls-6" points="295.48 78.61 132.52 78.61 199 15.61 228 18.61 295.48 78.61"/><rect class="cls-5" x="861.62" y="272.27" width="123" height="19" rx="9.5" transform="translate(-743.79 362.95) rotate(-36.39)"/><rect class="cls-5" x="945.62" y="272.27" width="123" height="19" rx="9.5" transform="translate(-357.19 -809) rotate(38.84)"/><rect class="cls-7" x="44" y="233.61" width="77" height="132" rx="14.74"/><rect class="cls-8" x="53.63" y="246.45" width="57.01" height="107.25" rx="13.26"/><rect class="cls-7" x="291" y="233.61" width="77" height="132" rx="14.74"/><rect class="cls-8" x="300.63" y="246.45" width="57.01" height="107.25" rx="13.26"/><rect class="cls-6" x="30" y="436.61" width="105" height="166"/><rect class="cls-8" x="41" y="450.61" width="82" height="152"/><rect class="cls-6" x="277" y="436.61" width="105" height="166"/><rect class="cls-8" x="288" y="450.61" width="82" height="152"/><path class="cls-8" d="M969,276.42l25.25,26.35A3.08,3.08,0,0,1,992,308l-51.55-1.07a3.07,3.07,0,0,1-2.06-5.29l26.3-25.28A3.07,3.07,0,0,1,969,276.42Z" transform="translate(-756.62 -239.66)"/></svg>