<svg id="Layer_1" data-name="Layer 1" xmlns="http://www.w3.org/2000/svg" viewBox="0 0 409 594"><defs><style>.cls-1{fill:#cf935d;}.cls-2{fill:#e0a3aa;}.cls-3{fill:#dc9196;}.cls-4{fill:#885b56;}.cls-5{fill:#ebe6ea;}.cls-6{fill:#363a3d;}</style></defs><rect class="cls-1" x="91" y="12" width="66" height="51"/><rect class="cls-2" x="8" y="146" width="391" height="338"/><rect class="cls-3" x="8" y="367" width="391" height="117"/><path class="cls-1" d="M14.72,392H393.28A10.72,10.72,0,0,1,404,402.72V594a0,0,0,0,1,0,0H4a0,0,0,0,1,0,0V402.72A10.72,10.72,0,0,1,14.72,392Z"/><polygon class="cls-4" points="399 146 8 146 58.49 47 348.51 47 399 146"/><rect class="cls-5" y="135" width="409" height="27" rx="13.5"/><rect class="cls-4" x="45" y="35" width="316" height="24" rx="12"/><rect class="cls-4" x="83" width="82" height="14" rx="7"/><rect class="cls-5" x="281" y="183" width="91" height="146"/><rect class="cls-6" x="292" y="192" width="67" height="128"/><rect class="cls-5" x="35" y="184" width="91" height="146"/><rect class="cls-6" x="46" y="193" width="67" height="128"/><rect class="cls-5" x="172.58" y="428" width="75.42" height="121"/><rect class="cls-6" x="181.7" y="435.46" width="55.53" height="106.08"/><rect class="cls-5" x="287.58" y="428" width="75.42" height="121"/><rect class="cls-6" x="296.7" y="435.46" width="55.53" height="106.08"/><rect class="cls-5" x="28" y="428" width="105" height="166"/><rect class="cls-6" x="39" y="442" width="82" height="152"/></svg>