<svg id="Layer_1" data-name="Layer 1" xmlns="http://www.w3.org/2000/svg" viewBox="0 0 557.71 1039.11"><defs><style>.cls-1{fill:#db694f;}.cls-2{fill:#363a3d;}.cls-3{fill:#81c1a6;}.cls-4{fill:#7ab89b;}.cls-5{fill:#6fad91;}.cls-6{fill:#885b56;}.cls-7{fill:#e1e2da;}</style></defs><rect class="cls-1" x="189.12" y="24.04" width="179.47" height="131.23"/><rect class="cls-1" x="11.58" y="247.9" width="530.7" height="710.17"/><path class="cls-2" d="M239.53,56.86h78.65a28,28,0,0,1,28,28v86.65a0,0,0,0,1,0,0H211.53a0,0,0,0,1,0,0V84.86A28,28,0,0,1,239.53,56.86Z"/><ellipse class="cls-3" cx="252.5" cy="106.25" rx="30.85" ry="34.63"/><polyline class="cls-3" points="210.7 179.63 210.7 120.83 331.74 120.83 331.74 179.63"/><circle class="cls-4" cx="225.34" cy="107.79" r="18.94"/><ellipse class="cls-5" cx="287.83" cy="114.19" rx="27.31" ry="25.34"/><path class="cls-4" d="M1013,200.06a36.69,36.69,0,1,1,36.69-36.69A36.69,36.69,0,0,1,1013,200.06" transform="translate(-681.27 -20.43)"/><path class="cls-5" d="M892,200.06a38.75,38.75,0,1,1,38.74-38.75A38.75,38.75,0,0,1,892,200.06" transform="translate(-681.27 -20.43)"/><polygon class="cls-6" points="542.27 247.9 11.58 247.9 86.39 128.25 467.46 128.25 542.27 247.9"/><path class="cls-6" d="M1050.4,68.51H866A13.08,13.08,0,0,1,855.21,48l15-21.94A13.08,13.08,0,0,1,881,20.43h154.31a13.06,13.06,0,0,1,10.77,5.67L1061.18,48A13.08,13.08,0,0,1,1050.4,68.51Z" transform="translate(-681.27 -20.43)"/><rect class="cls-6" y="228.6" width="557.71" height="28.95" rx="12.88"/><rect class="cls-6" x="71.96" y="114.81" width="413.79" height="26.88" rx="11.96"/><rect class="cls-7" x="11.58" y="921.4" width="530.7" height="117.72"/><rect class="cls-7" x="34.34" y="871.59" width="112.99" height="167"/><rect class="cls-2" x="49.84" y="886.59" width="82" height="152"/><path class="cls-2" d="M266.72,864.07h6.94a28,28,0,0,1,28,28v86.65a0,0,0,0,1,0,0H238.72a0,0,0,0,1,0,0V892.07A28,28,0,0,1,266.72,864.07Z"/><path class="cls-2" d="M453.11,663.11H460a28,28,0,0,1,28,28v86.65a0,0,0,0,1,0,0H425.11a0,0,0,0,1,0,0V691.11A28,28,0,0,1,453.11,663.11Z"/><path class="cls-2" d="M216.63,663.11h6.94a28,28,0,0,1,28,28v86.65a0,0,0,0,1,0,0H188.63a0,0,0,0,1,0,0V691.11A28,28,0,0,1,216.63,663.11Z"/><path class="cls-2" d="M93.81,663.11h6.94a28,28,0,0,1,28,28v86.65a0,0,0,0,1,0,0H65.81a0,0,0,0,1,0,0V691.11A28,28,0,0,1,93.81,663.11Z"/><path class="cls-2" d="M443.32,864.07h6.94a28,28,0,0,1,28,28v86.65a0,0,0,0,1,0,0H415.32a0,0,0,0,1,0,0V892.07A28,28,0,0,1,443.32,864.07Z"/><path class="cls-2" d="M339.45,663.11h6.94a28,28,0,0,1,28,28v86.65a0,0,0,0,1,0,0H311.45a0,0,0,0,1,0,0V691.11A28,28,0,0,1,339.45,663.11Z"/><path class="cls-2" d="M453.11,482.41H460a28,28,0,0,1,28,28v86.65a0,0,0,0,1,0,0H425.11a0,0,0,0,1,0,0V510.41A28,28,0,0,1,453.11,482.41Z"/><path class="cls-2" d="M216.63,482.41h6.94a28,28,0,0,1,28,28v86.65a0,0,0,0,1,0,0H188.63a0,0,0,0,1,0,0V510.41A28,28,0,0,1,216.63,482.41Z"/><path class="cls-2" d="M93.81,482.41h6.94a28,28,0,0,1,28,28v86.65a0,0,0,0,1,0,0H65.81a0,0,0,0,1,0,0V510.41A28,28,0,0,1,93.81,482.41Z"/><path class="cls-2" d="M339.45,482.41h6.94a28,28,0,0,1,28,28v86.65a0,0,0,0,1,0,0H311.45a0,0,0,0,1,0,0V510.41A28,28,0,0,1,339.45,482.41Z"/><path class="cls-2" d="M455,301.72H462a28,28,0,0,1,28,28v86.65a0,0,0,0,1,0,0H427a0,0,0,0,1,0,0V329.72A28,28,0,0,1,455,301.72Z"/><path class="cls-2" d="M218.56,301.72h6.94a28,28,0,0,1,28,28v86.65a0,0,0,0,1,0,0H190.56a0,0,0,0,1,0,0V329.72a28,28,0,0,1,28-28Z"/><path class="cls-2" d="M95.74,301.72h6.94a28,28,0,0,1,28,28v86.65a0,0,0,0,1,0,0H67.74a0,0,0,0,1,0,0V329.72a28,28,0,0,1,28-28Z"/><path class="cls-2" d="M341.38,301.72h6.94a28,28,0,0,1,28,28v86.65a0,0,0,0,1,0,0H313.38a0,0,0,0,1,0,0V329.72A28,28,0,0,1,341.38,301.72Z"/><rect class="cls-7" x="55.58" y="771.17" width="83.39" height="21.37"/><rect class="cls-7" x="180.33" y="771.17" width="83.39" height="21.37"/><rect class="cls-7" x="301.23" y="771.17" width="83.39" height="21.37"/><rect class="cls-7" x="416.81" y="771.17" width="83.39" height="21.37"/><rect class="cls-7" x="56.55" y="592.29" width="83.39" height="21.37"/><rect class="cls-7" x="181.3" y="592.29" width="83.39" height="21.37"/><rect class="cls-7" x="302.19" y="592.29" width="83.39" height="21.37"/><rect class="cls-7" x="417.78" y="592.29" width="83.39" height="21.37"/><rect class="cls-7" x="56.55" y="414.23" width="83.39" height="21.37"/><rect class="cls-7" x="181.3" y="414.23" width="83.39" height="21.37"/><rect class="cls-7" x="302.19" y="414.23" width="83.39" height="21.37"/><rect class="cls-7" x="417.78" y="414.23" width="83.39" height="21.37"/></svg>