<svg xmlns="http://www.w3.org/2000/svg" viewBox="0 0 136.35 58.63"><defs><style>.cls-1{fill:#b95066;}.cls-2{fill:#96485b;}.cls-3{fill:#cb5b78;}</style></defs><g id="Layer_2" data-name="Layer 2"><g id="Layer_4" data-name="Layer 4"><path class="cls-1" d="M136.35,15c-8.67,14.62-17.47,19.13-23.78,20.61-13,3-21.13-5.42-38.84-6.34a56.31,56.31,0,0,0-7.37.08,68.74,68.74,0,0,0-25.14,7.05C32.68,25.11,30.45,12.24,35.67,5.43a11.65,11.65,0,0,1,1.64-1.72c8.18-7,25.29-2.22,30.87-.65C82.37,7,85,13.35,96.72,17.33,104.83,20.07,117.6,21.77,136.35,15Z"/><path class="cls-2" d="M63.42,30.8s-6.85.78-8.46,1.29L41.22,36.35C32.68,25.11,30.45,12.24,35.67,5.43a11.65,11.65,0,0,1,1.64-1.72c2.8,3.53,2.33,4.1,7.08,8.07,5.39,4.48,13.19.57,17.44,4Z"/><path class="cls-3" d="M.79,6.23A53,53,0,0,0,31.71,21.29a52.64,52.64,0,0,0,30.12-5.55l4.76,34.09A59.43,59.43,0,0,1,32.5,58.55,59.44,59.44,0,0,1,0,46.66Q.39,26.44.79,6.23Z"/></g></g></svg>