<svg xmlns="http://www.w3.org/2000/svg" viewBox="0 0 73.89 44"><defs><style>.cls-1{fill:#7f5f4a;}.cls-2{fill:none;stroke:#3d2d24;stroke-miterlimit:10;stroke-width:10px;}.cls-3{fill:#5b3d2c;}.cls-4{fill:#7c5948;}</style></defs><g id="Layer_2" data-name="Layer 2"><g id="Layer_6" data-name="Layer 6"><path class="cls-1" d="M68.89,22c0,9.39-14.31,17-31.95,17-1.23,0-2.46,0-3.66-.11C17.37,37.92,5,30.73,5,22S17.37,6.08,33.28,5.11C34.48,5,35.71,5,36.94,5,54.58,5,68.89,12.61,68.89,22Z"/><path class="cls-2" d="M68.89,22c0,9.39-14.31,17-31.95,17-1.23,0-2.46,0-3.66-.11C17.37,37.92,5,30.73,5,22S17.37,6.08,33.28,5.11C34.48,5,35.71,5,36.94,5,54.58,5,68.89,12.61,68.89,22Z"/><path class="cls-3" d="M69.53,22C69.53,31.94,55,40,37,40c-1.26,0-2.51,0-3.73-.12-16.2-1-28.8-8.64-28.8-17.88S17.07,5.14,33.27,4.12C34.49,4,35.74,4,37,4,55,4,69.53,12.06,69.53,22Z"/><path class="cls-4" d="M62.06,22c0,9.24-12.59,16.86-28.79,17.88-16.2-1-28.8-8.64-28.8-17.88S17.07,5.14,33.27,4.12C49.47,5.14,62.06,12.76,62.06,22Z"/></g></g></svg>