<svg id="Layer_1" data-name="Layer 1" xmlns="http://www.w3.org/2000/svg" viewBox="0 0 579.71 385.44"><defs><style>.cls-1{fill:#d5d2bf;}.cls-2{fill:#c1bdaa;}.cls-3{fill:#77625c;}.cls-4{fill:#614c47;}.cls-5{fill:#57433e;}.cls-6{fill:#473834;}.cls-7{fill:#8ed4db;}.cls-8{fill:none;stroke:#fff;stroke-linecap:round;stroke-linejoin:round;stroke-width:3px;opacity:0.49;}</style></defs><path class="cls-1" d="M317.6,339.75S279.64,349.9,253,350c-24.74.09-76.8-10.25-76.8-10.25V82.12A621.36,621.36,0,0,1,278.12,233,617.45,617.45,0,0,1,317.6,339.75Z" transform="translate(-70.1 -38.72)"/><path class="cls-1" d="M572.22,327.43c-22.64-2.53-39.09-12.32-66.53-12.22-25.47.1-57.81,9.84-79.09,12.22V47.8a676.93,676.93,0,0,1,105,163.72A693.89,693.89,0,0,1,572.22,327.43Z" transform="translate(-70.1 -38.72)"/><path class="cls-1" d="M102.35,339.75a100.42,100.42,0,0,1,73.85,0V82.12a659.89,659.89,0,0,1-36.87,173.69A656.12,656.12,0,0,1,102.35,339.75Z" transform="translate(-70.1 -38.72)"/><path class="cls-1" d="M352.75,325.52a94.1,94.1,0,0,0,73.85,0V45.89a769.7,769.7,0,0,1-36.87,188.53A744.24,744.24,0,0,1,352.75,325.52Z" transform="translate(-70.1 -38.72)"/><path class="cls-2" d="M176.2,133.77v206A241.12,241.12,0,0,0,299.48,344a225.78,225.78,0,0,1-51.3-59.52c-13.36-22.65-16.6-37.61-29.06-67.47A587.51,587.51,0,0,0,176.2,133.77Z" transform="translate(-70.1 -38.72)"/><path class="cls-2" d="M425.89,108.08,428,327.57a350.1,350.1,0,0,1,113.41-7.29C529.48,307.11,514,286,497.87,258.77c-13.36-22.65-16.6-37.61-29.06-67.47A587.51,587.51,0,0,0,425.89,108.08Z" transform="translate(-70.1 -38.72)"/><polygon class="cls-3" points="139.3 335.68 139.3 292.67 226.5 286.88 226.5 335.68 139.3 335.68"/><polygon class="cls-3" points="390.5 328.08 390.5 298.46 477.7 294.48 477.7 328.08 390.5 328.08"/><rect class="cls-4" x="352.1" width="8.8" height="362.08" rx="4.4"/><rect class="cls-4" x="101.7" y="39.68" width="8.8" height="322.4" rx="4.4"/><path class="cls-4" d="M77.76,367.58,96.62,395a88.23,88.23,0,0,0,66,29.13L319,423.24l230.81-1.38a97.76,97.76,0,0,0,84-48.41c.13-.21.25-.43.38-.65,4.58-7.94,9-19.33,12-26.51-120.26,4.24-511.46,15-565.7,16A3.37,3.37,0,0,0,77.76,367.58Z" transform="translate(-70.1 -38.72)"/><path class="cls-5" d="M290.64,356.72l355.53-10.43a103.24,103.24,0,0,1-36.88,55.11c-28.84,21.89-59.78,21-67.91,20.51L431,422.57a120.45,120.45,0,0,0-23.27-31.25C364.66,349.92,303.87,355.25,290.64,356.72Z" transform="translate(-70.1 -38.72)"/><rect class="cls-4" x="453.8" y="329.4" width="100.8" height="7.6" rx="3.8" transform="translate(-88.74 -8.63) rotate(-3.36)"/><rect class="cls-4" x="202.6" y="321.8" width="100.8" height="7.6" rx="3.8" transform="translate(-88.73 -23.35) rotate(-3.36)"/><rect class="cls-6" x="355.47" y="64.56" width="8.95" height="579.92" rx="4.05" transform="matrix(0.03, 1, -1, 0.03, 633.9, -54.17)"/><circle class="cls-6" cx="126.89" cy="353.71" r="23.16"/><circle class="cls-7" cx="126.89" cy="353.18" r="17.05"/><circle class="cls-6" cx="300.2" cy="348.42" r="23.16"/><circle class="cls-7" cx="300.2" cy="347.89" r="17.05"/><circle class="cls-6" cx="477.7" cy="347.06" r="23.16"/><circle class="cls-7" cx="477.7" cy="346.53" r="17.05"/><line class="cls-8" x1="116.73" y1="355.92" x2="126.89" y2="343.12"/><line class="cls-8" x1="126.89" y1="363.58" x2="137.05" y2="350.78"/><line class="cls-8" x1="290.04" y1="351" x2="300.2" y2="338.2"/><line class="cls-8" x1="300.2" y1="358.65" x2="310.36" y2="345.85"/><line class="cls-8" x1="467.55" y1="349.1" x2="477.7" y2="336.3"/><line class="cls-8" x1="477.7" y1="356.76" x2="487.86" y2="343.96"/><path class="cls-4" d="M220.14,342.12h0c0,3.58,2.29,6.47,5.12,6.47h59.25c2.9,0,5.22-3,5.12-6.69a7,7,0,0,0,.23-.75c1.18-4.52-3.66-8.64-9.67-8.33l-55.3,2.85C222.22,335.92,220.14,338.73,220.14,342.12Z" transform="translate(-70.1 -38.72)"/><path class="cls-7" d="M224,342.23h0c0,1.92,2,3.48,4.54,3.48h52.65c2.57,0,4.63-1.63,4.54-3.6l-.13-2.87c-.09-2-2.3-3.48-4.87-3.34l-52.51,2.87C225.86,338.9,224,340.41,224,342.23Z" transform="translate(-70.1 -38.72)"/></svg>