<?xml version="1.0" encoding="UTF-8" standalone="no"?>
<!DOCTYPE svg PUBLIC "-//W3C//DTD SVG 1.1//EN" "http://www.w3.org/Graphics/SVG/1.1/DTD/svg11.dtd">
<svg version="1.1" xmlns="http://www.w3.org/2000/svg" xmlns:xlink="http://www.w3.org/1999/xlink" preserveAspectRatio="xMidYMid meet" viewBox="0 0 640 640" width="640" height="640"><defs><path d="M422.83 177.38L353.72 247.02L422.83 247.02L422.83 177.38Z" id="fWyHhpgkj"></path><path d="M356.59 250.69C354.44 253.08 350.76 253.26 348.38 251.11C347.51 250.33 349.24 251.89 348.38 251.11C345.99 248.96 345.81 245.28 347.96 242.89C361.69 227.69 398.97 186.42 412.69 171.22C414.85 168.83 418.53 168.65 420.91 170.8C421.78 171.58 420.05 170.02 420.91 170.8C423.3 172.96 423.48 176.63 421.33 179.02C407.6 194.22 370.32 235.49 356.59 250.69Z" id="bUFI059NJ"></path><path d="M355.01 254.33C352.59 254.35 350.61 252.4 350.6 249.98C350.59 248.68 350.59 249.17 350.58 247.87C350.56 245.45 352.51 243.48 354.93 243.46C369.18 243.35 407.57 243.07 421.83 242.97C424.25 242.95 426.22 244.9 426.24 247.32C426.25 248.62 426.24 248.13 426.25 249.43C426.27 251.85 424.33 253.82 421.91 253.84C407.65 253.95 369.26 254.23 355.01 254.33Z" id="f1ueZ44YQ"></path><path d="M307.58 146.23L238.47 215.86L307.58 215.86L307.58 146.23Z" id="aknKUyT"></path><path d="M241.34 219.54C239.19 221.92 235.51 222.11 233.13 219.95C232.26 219.17 233.99 220.73 233.13 219.95C230.74 217.8 230.55 214.12 232.71 211.74C246.43 196.54 283.72 155.26 297.44 140.06C299.6 137.68 303.27 137.49 305.66 139.65C306.52 140.43 304.8 138.87 305.66 139.65C308.04 141.8 308.23 145.48 306.08 147.86C292.35 163.06 255.07 204.34 241.34 219.54Z" id="caZ2t1MH"></path><path d="M239.75 223.17C237.34 223.19 235.36 221.25 235.34 218.83C235.33 217.53 235.34 218.01 235.33 216.71C235.31 214.29 237.26 212.32 239.67 212.3C253.93 212.2 292.32 211.92 306.58 211.82C308.99 211.8 310.97 213.74 310.99 216.16C311 217.46 310.99 216.98 311 218.28C311.02 220.69 309.07 222.67 306.65 222.69C292.4 222.79 254.01 223.07 239.75 223.17Z" id="a6DFhy3bC"></path><path d="M178.41 180.66L109.31 250.3L178.41 250.3L178.41 180.66Z" id="a3rqPNtz8"></path><path d="M112.18 253.97C110.02 256.35 106.34 256.54 103.96 254.39C103.09 253.61 104.82 255.17 103.96 254.39C101.57 252.23 101.39 248.55 103.54 246.17C117.27 230.97 154.55 189.69 168.28 174.5C170.43 172.11 174.11 171.92 176.49 174.08C177.36 174.86 175.63 173.3 176.49 174.08C178.88 176.23 179.06 179.91 176.91 182.3C163.18 197.49 125.9 238.77 112.18 253.97Z" id="bx7dgw86v"></path><path d="M110.59 257.61C108.17 257.62 106.19 255.68 106.18 253.26C106.17 251.96 106.17 252.44 106.16 251.14C106.14 248.73 108.09 246.75 110.51 246.73C124.76 246.63 163.15 246.35 177.41 246.25C179.83 246.23 181.8 248.18 181.82 250.59C181.83 251.89 181.82 251.41 181.83 252.71C181.85 255.13 179.91 257.1 177.49 257.12C163.23 257.22 124.84 257.5 110.59 257.61Z" id="b2MtVBtc14"></path><path d="M143.45 387.25C143.59 388.05 143.02 388.81 142.21 388.89C138.5 389.29 128.88 390.31 125.18 390.71C124.33 390.8 123.57 390.22 123.42 389.38C120.91 374.87 113.64 332.81 111.13 318.3C110.99 317.49 111.56 316.74 112.37 316.65C116.08 316.26 125.7 315.23 129.4 314.84C130.25 314.75 131.02 315.33 131.16 316.17C133.67 330.68 140.94 372.73 143.45 387.25Z" id="emIJnIh4D"></path><path d="M500.27 312.16C501.31 311.62 502.59 311.86 503.34 312.76C504.49 314.11 506.64 316.64 507.79 317.99C508.46 318.77 508.22 319.97 507.31 320.44C490 329.51 439.83 355.78 422.52 364.85C421.48 365.39 420.2 365.14 419.45 364.25C418.3 362.9 416.15 360.37 415 359.02C414.33 358.24 414.57 357.04 415.48 356.56C432.79 347.5 482.96 321.23 500.27 312.16Z" id="bcLhM9dha"></path><path d="M176.02 170.41C179.23 170.41 181.83 173.01 181.83 176.23C181.83 206.92 181.83 293.19 181.83 323.89C181.83 327.1 179.23 329.71 176.02 329.71C174.85 329.71 177.18 329.71 176.02 329.71C172.8 329.71 170.2 327.1 170.2 323.89C170.2 293.19 170.2 206.92 170.2 176.23C170.2 173.01 172.8 170.41 176.02 170.41C177.18 170.41 174.85 170.41 176.02 170.41Z" id="a2LHFnsvKb"></path><path d="M420.44 166.36C423.65 166.36 426.25 168.96 426.25 172.18C426.25 202.87 426.25 289.14 426.25 319.84C426.25 323.05 423.65 325.66 420.44 325.66C419.27 325.66 421.6 325.66 420.44 325.66C417.22 325.66 414.62 323.05 414.62 319.84C414.62 289.14 414.62 202.87 414.62 172.18C414.62 168.96 417.22 166.36 420.44 166.36C421.6 166.36 419.27 166.36 420.44 166.36Z" id="b1C7CmjaWO"></path><path d="M305.18 135.44C308.4 135.44 311 138.05 311 141.26C311 171.96 311 258.23 311 288.92C311 292.14 308.4 294.74 305.18 294.74C304.02 294.74 306.35 294.74 305.18 294.74C301.97 294.74 299.37 292.14 299.37 288.92C299.37 258.23 299.37 171.96 299.37 141.26C299.37 138.05 301.97 135.44 305.18 135.44C306.35 135.44 304.02 135.44 305.18 135.44Z" id="b1W1WoOeUU"></path><path d="M346.61 268.76C357.65 268.76 366.61 277.71 366.61 288.76C366.61 299.46 366.61 311.59 366.61 322.3C366.61 333.35 357.65 342.3 346.61 342.3C323.71 342.3 275.02 342.3 252.12 342.3C241.08 342.3 232.12 333.35 232.12 322.3C232.12 311.59 232.12 299.46 232.12 288.76C232.12 277.71 241.08 268.76 252.12 268.76C275.02 268.76 323.71 268.76 346.61 268.76Z" id="aeQGgwvAn"></path><path d="M414.5 315.74L478.02 315.74L478.02 335.57L414.5 335.57L414.5 315.74Z" id="axjgYXVZJ"></path><path d="M126.67 314.83L426.54 314.83L426.54 379.52L126.67 379.52L126.67 314.83Z" id="eaX4zPxsc"></path><path d="M481.71 314.55C482.53 313.69 483.83 313.51 484.85 314.11C486.37 315 489.17 316.64 490.68 317.54C491.57 318.06 491.74 319.28 491.03 320.02C477.4 334.3 437.93 375.65 424.3 389.93C423.49 390.79 422.19 390.97 421.17 390.37C419.65 389.48 416.85 387.83 415.34 386.94C414.45 386.42 414.28 385.2 414.99 384.45C428.62 370.18 468.09 328.82 481.71 314.55Z" id="b4WcAW88RB"></path><path d="M179.44 388.15C179.44 388.89 178.85 389.49 178.11 389.49C176.05 389.49 171.2 389.5 169.14 389.5C168.4 389.5 167.81 388.91 167.8 388.17C167.77 373.92 167.68 332.52 167.64 318.27C167.64 317.53 168.24 316.94 168.97 316.94C171.03 316.93 175.88 316.93 177.94 316.92C178.68 316.92 179.28 317.52 179.28 318.25C179.31 332.5 179.41 373.91 179.44 388.15Z" id="b41MehobSZ"></path><path d="M318.84 251.42C319.44 251.42 319.93 251.9 319.93 252.5C319.96 256.25 320.04 266.41 320.07 270.16C320.07 270.76 319.59 271.24 318.99 271.25C313.64 271.29 298.65 271.41 293.29 271.45C292.69 271.46 292.2 270.97 292.2 270.38C292.17 266.63 292.09 256.47 292.06 252.72C292.06 252.12 292.54 251.63 293.13 251.63C298.49 251.58 313.48 251.47 318.84 251.42Z" id="bef37Zej8"></path><path d="M515.97 305.53C519.48 305.53 522.32 308.37 522.32 311.87C522.32 313.14 522.32 310.6 522.32 311.87C522.32 315.38 519.48 318.22 515.97 318.22C434.16 318.22 195.07 318.22 113.25 318.22C109.75 318.22 106.91 315.38 106.91 311.87C106.91 310.6 106.91 313.14 106.91 311.87C106.91 308.37 109.75 305.53 113.25 305.53C195.07 305.53 434.16 305.53 515.97 305.53Z" id="c1tImoMYr9"></path><path d="M417.76 376.52C421.09 376.52 423.79 379.21 423.79 382.54C423.79 384.51 423.79 384.39 423.79 386.36C423.79 389.69 421.09 392.38 417.76 392.38C358.99 392.38 188.71 392.38 129.94 392.38C126.61 392.38 123.91 389.69 123.91 386.36C123.91 384.39 123.91 384.51 123.91 382.54C123.91 379.21 126.61 376.52 129.94 376.52C188.71 376.52 358.99 376.52 417.76 376.52Z" id="d1tX9N8xUB"></path><path d="M423.79 382.29L477.37 329.71L423.79 329.71L423.79 382.29Z" id="brTZOyIbb"></path><path d="M258.43 388.71L258.43 388.71L257.38 388.71L258.43 388.71Z" id="a2AIzEBMD3"></path><path d="M278.43 408.71L278.43 408.71L277.38 408.71L278.43 408.71Z" id="a1QieQZ7sG"></path><path d="M330.86 278.07C335.54 278.07 339.33 281.87 339.33 286.55C339.33 289.45 339.33 289.68 339.33 292.58C339.33 297.26 335.54 301.06 330.86 301.06C316.06 301.06 280.13 301.06 265.33 301.06C260.65 301.06 256.85 297.26 256.85 292.58C256.85 289.68 256.85 289.45 256.85 286.55C256.85 281.87 260.65 278.07 265.33 278.07C280.13 278.07 316.06 278.07 330.86 278.07Z" id="b4p5R4ciux"></path><path d="M288.38 281.27C289.44 281.75 289.91 282.98 289.43 284.03C288.31 286.55 285.78 292.19 284.65 294.7C284.18 295.75 282.95 296.22 281.89 295.75C281.51 295.58 282.27 295.92 281.89 295.75C280.84 295.28 280.37 294.05 280.84 292.99C281.97 290.48 284.5 284.84 285.62 282.32C286.09 281.27 287.33 280.8 288.38 281.27C288.76 281.44 288 281.1 288.38 281.27Z" id="bCui20zu7"></path><path d="M314.25 281.27C315.3 281.75 315.77 282.98 315.3 284.03C314.17 286.55 311.64 292.19 310.52 294.7C310.04 295.75 308.81 296.22 307.76 295.75C307.38 295.58 308.14 295.92 307.76 295.75C306.7 295.28 306.23 294.05 306.7 292.99C307.83 290.48 310.36 284.84 311.49 282.32C311.96 281.27 313.19 280.8 314.24 281.27C314.63 281.44 313.87 281.1 314.25 281.27Z" id="c2DWksQlct"></path><path d="M412.94 338.5C420.29 338.5 426.25 344.46 426.25 351.82C426.25 354.48 426.25 349.15 426.25 351.82C426.25 359.17 420.29 365.13 412.94 365.13C360.54 365.13 216.66 365.13 164.26 365.13C156.91 365.13 150.95 359.17 150.95 351.82C150.95 349.15 150.95 354.48 150.95 351.82C150.95 344.46 156.91 338.5 164.26 338.5C216.66 338.5 360.54 338.5 412.94 338.5Z" id="d2LJ4k37Uw"></path><path d="M158.41 212.63C160.47 214.79 160.39 218.22 158.23 220.28C153.19 225.09 141.99 235.77 136.95 240.58C134.79 242.64 131.37 242.56 129.31 240.4C128.56 239.62 130.05 241.18 129.31 240.4C127.24 238.24 127.32 234.81 129.49 232.75C134.52 227.94 145.72 217.26 150.76 212.45C152.92 210.39 156.35 210.47 158.41 212.63C159.16 213.41 157.66 211.85 158.41 212.63Z" id="bBjiDDEVM"></path><path d="M292.46 174.25C294.52 176.41 294.44 179.84 292.28 181.9C287.24 186.71 276.04 197.39 271 202.2C268.84 204.26 265.41 204.18 263.35 202.02C262.61 201.24 264.1 202.8 263.35 202.02C261.29 199.86 261.37 196.44 263.53 194.37C268.57 189.57 279.77 178.88 284.81 174.07C286.97 172.01 290.39 172.09 292.46 174.25C293.2 175.04 291.71 173.47 292.46 174.25Z" id="cNf4mrwpH"></path><path d="M408.07 207.57C410.13 209.73 410.05 213.16 407.89 215.22C402.85 220.03 391.65 230.71 386.61 235.52C384.45 237.58 381.03 237.5 378.96 235.34C378.22 234.56 379.71 236.12 378.96 235.34C376.9 233.18 376.98 229.75 379.14 227.69C384.18 222.88 395.38 212.2 400.42 207.39C402.58 205.33 406.01 205.41 408.07 207.57C408.82 208.35 407.32 206.79 408.07 207.57Z" id="bL7iEgaFB"></path></defs><g><g><g><use xlink:href="#fWyHhpgkj" opacity="1" fill="#d4d2bf" fill-opacity="1"></use></g><g><use xlink:href="#bUFI059NJ" opacity="1" fill="#d4d2bf" fill-opacity="1"></use></g><g><use xlink:href="#f1ueZ44YQ" opacity="1" fill="#d4d2bf" fill-opacity="1"></use></g><g><use xlink:href="#aknKUyT" opacity="1" fill="#d4d2bf" fill-opacity="1"></use></g><g><use xlink:href="#caZ2t1MH" opacity="1" fill="#d4d2bf" fill-opacity="1"></use></g><g><use xlink:href="#a6DFhy3bC" opacity="1" fill="#d4d2bf" fill-opacity="1"></use></g><g><use xlink:href="#a3rqPNtz8" opacity="1" fill="#d4d2bf" fill-opacity="1"></use></g><g><use xlink:href="#bx7dgw86v" opacity="1" fill="#d4d2bf" fill-opacity="1"></use></g><g><use xlink:href="#b2MtVBtc14" opacity="1" fill="#d4d2bf" fill-opacity="1"></use></g><g><use xlink:href="#emIJnIh4D" opacity="1" fill="#d2d2d2" fill-opacity="1"></use></g><g><use xlink:href="#bcLhM9dha" opacity="1" fill="#d2d2d2" fill-opacity="1"></use></g><g><use xlink:href="#a2LHFnsvKb" opacity="1" fill="#4d85b7" fill-opacity="1"></use></g><g><use xlink:href="#b1C7CmjaWO" opacity="1" fill="#4d85b7" fill-opacity="1"></use></g><g><use xlink:href="#b1W1WoOeUU" opacity="1" fill="#4d85b7" fill-opacity="1"></use></g><g><use xlink:href="#aeQGgwvAn" opacity="1" fill="#d2d2d2" fill-opacity="1"></use></g><g><use xlink:href="#axjgYXVZJ" opacity="1" fill="#d2d2d2" fill-opacity="1"></use></g><g><use xlink:href="#eaX4zPxsc" opacity="1" fill="#d2d2d2" fill-opacity="1"></use></g><g><use xlink:href="#b4WcAW88RB" opacity="1" fill="#d2d2d2" fill-opacity="1"></use></g><g><use xlink:href="#b41MehobSZ" opacity="1" fill="#d2d2d2" fill-opacity="1"></use><g><use xlink:href="#b41MehobSZ" opacity="1" fill-opacity="0" stroke="#8e05cf" stroke-width="0" stroke-opacity="1"></use></g></g><g><use xlink:href="#bef37Zej8" opacity="1" fill="#83b8e8" fill-opacity="1"></use></g><g><use xlink:href="#c1tImoMYr9" opacity="1" fill="#83b8e8" fill-opacity="1"></use><g><use xlink:href="#c1tImoMYr9" opacity="1" fill-opacity="0" stroke="#8e05cf" stroke-width="0" stroke-opacity="1"></use></g></g><g><use xlink:href="#d1tX9N8xUB" opacity="1" fill="#d2d2d2" fill-opacity="1"></use></g><g><use xlink:href="#brTZOyIbb" opacity="1" fill="#d2d2d2" fill-opacity="1"></use></g><g><use xlink:href="#a2AIzEBMD3" opacity="1" fill="#4d85b7" fill-opacity="1"></use></g><g><use xlink:href="#a1QieQZ7sG" opacity="1" fill="#4d85b7" fill-opacity="1"></use></g><g><use xlink:href="#b4p5R4ciux" opacity="1" fill="#8dd4db" fill-opacity="1"></use></g><g><use xlink:href="#bCui20zu7" opacity="1" fill="#ffffff" fill-opacity="1"></use></g><g><use xlink:href="#c2DWksQlct" opacity="1" fill="#ffffff" fill-opacity="1"></use></g><g><use xlink:href="#d2LJ4k37Uw" opacity="1" fill="#e3e3e3" fill-opacity="1"></use></g><g><use xlink:href="#bBjiDDEVM" opacity="1" fill="#bcbaa9" fill-opacity="1"></use></g><g><use xlink:href="#cNf4mrwpH" opacity="1" fill="#bcbaa9" fill-opacity="1"></use></g><g><use xlink:href="#bL7iEgaFB" opacity="1" fill="#bcbaa9" fill-opacity="1"></use></g></g></g></svg>