<?xml version="1.0" encoding="UTF-8" standalone="no"?>
<!DOCTYPE svg PUBLIC "-//W3C//DTD SVG 1.1//EN" "http://www.w3.org/Graphics/SVG/1.1/DTD/svg11.dtd">
<svg version="1.1" xmlns="http://www.w3.org/2000/svg" xmlns:xlink="http://www.w3.org/1999/xlink" preserveAspectRatio="xMidYMid meet" viewBox="0 0 640 640" width="640" height="640"><defs><path d="M491.93 296.05C495.03 299.56 494.7 304.91 491.2 308.01C489.93 309.14 492.47 306.89 491.2 308.01C487.7 311.11 482.34 310.79 479.24 307.28C457.11 282.28 396.34 213.61 374.22 188.61C371.12 185.1 371.44 179.75 374.95 176.65C376.22 175.52 373.68 177.77 374.95 176.65C378.45 173.55 383.81 173.87 386.91 177.38C409.03 202.38 469.8 271.05 491.93 296.05Z" id="e1OrJ6bmsR"></path><path d="M489.41 298.97C493.02 298.97 495.94 301.89 495.94 305.5C495.94 306.8 495.94 304.19 495.94 305.5C495.94 309.1 493.02 312.02 489.41 312.02C465.88 312.02 401.79 312.02 378.25 312.02C374.65 312.02 371.73 309.1 371.73 305.5C371.73 304.19 371.73 306.8 371.73 305.5C371.73 301.89 374.65 298.97 378.25 298.97C401.79 298.97 465.88 298.97 489.41 298.97Z" id="a4xEkHpS3r"></path><path d="M368.04 176.24L485.94 302.55L368.04 302.55L368.04 176.24Z" id="fFICAjSJN"></path><path d="M263.97 311.66C272.61 311.66 279.62 318.67 279.62 327.31C279.62 339.34 279.62 359.77 279.62 371.8C279.62 380.44 272.61 387.45 263.97 387.45C246.26 387.45 208.78 387.45 191.06 387.45C182.42 387.45 175.41 380.44 175.41 371.8C175.41 359.77 175.41 339.34 175.41 327.31C175.41 318.67 182.42 311.66 191.06 311.66C208.78 311.66 246.26 311.66 263.97 311.66Z" id="bvytUiaQT"></path><path d="M370.09 170.45C373.03 170.45 375.41 172.83 375.41 175.77C375.41 214.6 375.41 325.77 375.41 364.59C375.41 367.54 373.03 369.92 370.09 369.92C368.2 369.92 367.88 369.92 366 369.92C363.06 369.92 360.68 367.54 360.68 364.59C360.68 325.77 360.68 214.6 360.68 175.77C360.68 172.83 363.06 170.45 366 170.45C367.88 170.45 368.2 170.45 370.09 170.45Z" id="c6qzflJktb"></path><path d="M134.89 393.6L486.46 393.6L486.46 429.39L134.89 429.39L134.89 393.6Z" id="eTuaOFazY"></path><path d="M396.19 351.5C400.99 351.5 404.89 355.39 404.89 360.19C404.89 366.88 404.89 378.23 404.89 384.91C404.89 389.71 400.99 393.6 396.19 393.6C383.19 393.6 352.89 393.6 339.9 393.6C335.09 393.6 331.2 389.71 331.2 384.91C331.2 378.23 331.2 366.88 331.2 360.19C331.2 355.39 335.09 351.5 339.9 351.5C352.89 351.5 383.19 351.5 396.19 351.5Z" id="bc59TTRgM"></path><path d="M125.41 375.71L503.31 375.71L503.31 411.5L125.41 411.5L125.41 375.71Z" id="bRItyyGBd"></path><path d="M515.51 377.7C518.97 379.84 520.04 384.38 517.9 387.84C507.46 404.74 480.02 449.16 469.58 466.06C467.44 469.52 462.9 470.59 459.43 468.45C458.18 467.68 460.69 469.23 459.43 468.45C455.97 466.31 454.9 461.77 457.04 458.31C467.48 441.42 494.93 396.99 505.37 380.1C507.5 376.64 512.04 375.56 515.51 377.7C516.76 378.48 514.25 376.93 515.51 377.7Z" id="g4dbnp3oyI"></path><path d="M124.6 373.83C127.99 373 131.41 375.07 132.24 378.46C136.46 395.63 147.62 441.01 151.84 458.19C152.67 461.57 150.6 465 147.22 465.83C145.58 466.23 146.81 465.93 145.17 466.33C141.78 467.16 138.36 465.09 137.53 461.71C133.31 444.53 122.15 399.15 117.93 381.97C117.1 378.59 119.17 375.17 122.56 374.33C124.19 373.93 122.96 374.23 124.6 373.83Z" id="a4gKmMI9TG"></path><path d="M463.31 454.82C467.38 454.82 470.68 458.12 470.68 462.19C470.68 463.66 470.68 460.71 470.68 462.19C470.68 466.26 467.38 469.55 463.31 469.55C398.25 469.55 210.46 469.55 145.41 469.55C141.34 469.55 138.04 466.26 138.04 462.19C138.04 460.71 138.04 463.66 138.04 462.19C138.04 458.12 141.34 454.82 145.41 454.82C210.46 454.82 398.25 454.82 463.31 454.82Z" id="b146WxA6mx"></path><path d="M523.33 372.71C527.39 372.71 530.68 376 530.68 380.06C530.68 381.54 530.68 378.62 530.68 380.1C530.68 384.16 527.39 387.45 523.33 387.45C440.53 387.45 199.47 387.45 116.67 387.45C112.61 387.45 109.32 384.16 109.32 380.1C109.32 378.62 109.32 381.54 109.32 380.06C109.32 376 112.61 372.71 116.67 372.71C199.47 372.71 440.53 372.71 523.33 372.71Z" id="a1cWIQfNtg"></path><path d="M138.04 420.08L482.25 420.08L482.25 444.29L138.04 444.29L138.04 420.08Z" id="aDDUf3ZEa"></path><path d="M139.58 437.98L472.21 437.98L472.21 462.19L139.58 462.19L139.58 437.98Z" id="fbPO3cGXu"></path><path d="M240.15 330.61C248.29 330.61 254.89 337.2 254.89 345.34C254.89 348.29 254.89 342.4 254.89 345.34C254.89 353.48 248.29 360.08 240.15 360.08C232.57 360.08 224.57 360.08 216.99 360.08C208.85 360.08 202.25 353.48 202.25 345.34C202.25 342.4 202.25 348.29 202.25 345.34C202.25 337.2 208.85 330.61 216.99 330.61C224.57 330.61 232.57 330.61 240.15 330.61Z" id="c8vGEqoC0"></path><path d="M226.31 337.81C227.53 338.6 227.89 340.23 227.1 341.45C225.45 344.02 221.93 349.51 220.28 352.08C219.49 353.3 217.86 353.66 216.64 352.87C216.2 352.59 217.08 353.16 216.64 352.87C215.42 352.09 215.06 350.46 215.85 349.24C217.5 346.67 221.02 341.18 222.67 338.61C223.46 337.38 225.08 337.03 226.31 337.81C226.75 338.1 225.86 337.53 226.31 337.81Z" id="dcNhi5UpL"></path><path d="M243.4 337.81C244.63 338.6 244.98 340.23 244.2 341.45C242.55 344.02 239.02 349.51 237.37 352.08C236.59 353.3 234.96 353.66 233.74 352.87C233.29 352.59 234.18 353.16 233.74 352.87C232.51 352.09 232.16 350.46 232.94 349.24C234.59 346.67 238.12 341.18 239.77 338.61C240.55 337.38 242.18 337.03 243.4 337.81C243.85 338.1 242.96 337.53 243.4 337.81Z" id="cUd2xMsVs"></path><path d="M275.94 302.19C281.75 302.19 286.46 306.9 286.46 312.71C286.46 314.82 286.46 310.61 286.46 312.71C286.46 318.53 281.75 323.24 275.94 323.24C254.46 323.24 200.57 323.24 179.1 323.24C173.28 323.24 168.57 318.53 168.57 312.71C168.57 310.61 168.57 314.82 168.57 312.71C168.57 306.9 173.28 302.19 179.1 302.19C200.57 302.19 254.46 302.19 275.94 302.19Z" id="b7o4cuQE8"></path><path d="M458.57 411.5C461.77 411.5 464.36 414.09 464.36 417.29C464.36 418.45 464.36 416.13 464.36 417.29C464.36 420.49 461.77 423.08 458.57 423.08C397.26 423.08 219.12 423.08 157.82 423.08C154.62 423.08 152.03 420.49 152.03 417.29C152.03 416.13 152.03 418.45 152.03 417.29C152.03 414.09 154.62 411.5 157.82 411.5C219.12 411.5 397.26 411.5 458.57 411.5Z" id="c2NCTCxTvf"></path><path d="M443.09 437.03C445.95 437.03 448.27 439.35 448.27 442.21C448.27 443.79 448.27 443.32 448.27 444.9C448.27 447.76 445.95 450.08 443.09 450.08C388.18 450.08 228.66 450.08 173.75 450.08C170.89 450.08 168.57 447.76 168.57 444.9C168.57 443.32 168.57 443.79 168.57 442.21C168.57 439.35 170.89 437.03 173.75 437.03C228.66 437.03 388.18 437.03 443.09 437.03Z" id="dh2jJrbJ8"></path></defs><g><g><g><use xlink:href="#e1OrJ6bmsR" opacity="1" fill="#d4d2bf" fill-opacity="1"></use></g><g><use xlink:href="#a4xEkHpS3r" opacity="1" fill="#d4d2bf" fill-opacity="1"></use></g><g><use xlink:href="#fFICAjSJN" opacity="1" fill="#d4d2bf" fill-opacity="1"></use></g><g><use xlink:href="#bvytUiaQT" opacity="1" fill="#ad6f43" fill-opacity="1"></use></g><g><use xlink:href="#c6qzflJktb" opacity="1" fill="#8a532c" fill-opacity="1"></use></g><g><use xlink:href="#eTuaOFazY" opacity="1" fill="#8a532c" fill-opacity="1"></use></g><g><use xlink:href="#bc59TTRgM" opacity="1" fill="#ad6f43" fill-opacity="1"></use></g><g><use xlink:href="#bRItyyGBd" opacity="1" fill="#8a532c" fill-opacity="1"></use></g><g><use xlink:href="#g4dbnp3oyI" opacity="1" fill="#8a532c" fill-opacity="1"></use></g><g><use xlink:href="#a4gKmMI9TG" opacity="1" fill="#8a532c" fill-opacity="1"></use></g><g><use xlink:href="#b146WxA6mx" opacity="1" fill="#8a532c" fill-opacity="1"></use></g><g><use xlink:href="#a1cWIQfNtg" opacity="1" fill="#57351d" fill-opacity="1"></use></g><g><use xlink:href="#aDDUf3ZEa" opacity="1" fill="#8a532c" fill-opacity="1"></use></g><g><use xlink:href="#fbPO3cGXu" opacity="1" fill="#8a532c" fill-opacity="1"></use></g><g><use xlink:href="#c8vGEqoC0" opacity="1" fill="#8dd4db" fill-opacity="1"></use></g><g><use xlink:href="#dcNhi5UpL" opacity="1" fill="#ffffff" fill-opacity="1"></use></g><g><use xlink:href="#cUd2xMsVs" opacity="1" fill="#ffffff" fill-opacity="1"></use></g><g><use xlink:href="#b7o4cuQE8" opacity="1" fill="#8a532c" fill-opacity="1"></use></g><g><use xlink:href="#c2NCTCxTvf" opacity="1" fill="#7a4926" fill-opacity="1"></use></g><g><use xlink:href="#dh2jJrbJ8" opacity="1" fill="#7a4926" fill-opacity="1"></use></g></g></g></svg>