<?xml version="1.0" encoding="UTF-8" standalone="no"?>
<!DOCTYPE svg PUBLIC "-//W3C//DTD SVG 1.1//EN" "http://www.w3.org/Graphics/SVG/1.1/DTD/svg11.dtd">
<svg version="1.1" xmlns="http://www.w3.org/2000/svg" xmlns:xlink="http://www.w3.org/1999/xlink" preserveAspectRatio="xMidYMid meet" viewBox="0 0 640 640" width="640" height="640"><defs><path d="M465.37 240.42C471.17 240.42 476.56 243.38 479.67 248.27C488.78 262.62 506.53 290.58 514.49 303.12C519.14 310.43 513.88 320 505.22 320C471.82 320 391.62 320 358.23 320C347.18 320 338.23 311.05 338.23 300C338.23 288.08 338.23 264.35 338.23 250.44C338.23 244.91 342.71 240.42 348.25 240.42C373.53 240.42 439.94 240.42 465.37 240.42Z" id="a10QOpwPfv"></path><path d="M320.14 306.74C392.78 306.74 468.01 304.8 545.82 300.93C549.84 300.73 552.24 305.35 549.76 308.52C532.6 330.45 494.84 378.69 479.53 398.26C469.58 410.97 454.9 419.1 438.85 420.8C405.41 424.33 363.89 425.94 314.29 425.64C258.79 425.3 201.06 423.09 141.1 419.02C133.41 418.5 126.96 413.03 125.19 405.53C120.22 384.51 107.82 331.97 102.74 310.43C101.56 305.44 105.52 300.71 110.64 301C177.91 304.83 247.74 306.74 320.14 306.74Z" id="b1lCPhJdzq"></path><path d="M325.62 296.75C401.14 296.75 477 295.44 553.19 292.82C557.67 292.66 561.38 296.25 561.38 300.73C561.38 302.46 561.38 299.45 561.38 301.18C561.38 305.75 557.76 309.5 553.19 309.66C476.27 312.28 400.03 313.59 324.5 313.59C249.01 313.59 174.21 312.28 100.1 309.67C95.53 309.5 91.91 305.75 91.91 301.18C91.91 299.45 91.91 302.46 91.91 300.73C91.91 296.25 95.63 292.66 100.1 292.82C174.95 295.44 250.12 296.75 325.62 296.75Z" id="d4fVKgCb6M"></path><path d="M444.37 330.14C459.05 330.14 470.95 342.04 470.95 356.72C470.95 364.66 470.95 359.55 470.95 366.91C470.95 383.23 457.72 396.46 441.4 396.46C380.57 396.46 228.83 396.46 168.3 396.46C151.16 396.46 137.26 382.56 137.26 365.42C137.26 358.36 137.26 368.83 137.26 361.93C137.26 344.37 151.49 330.14 169.05 330.14C229.43 330.14 382.95 330.14 444.37 330.14Z" id="e2QwWc91ul"></path><path d="M473.58 228.84C478.52 228.84 482.53 232.85 482.53 237.79C482.53 239.58 482.53 236 482.53 237.79C482.53 242.73 478.52 246.74 473.58 246.74C445.05 246.74 368.42 246.74 339.89 246.74C334.95 246.74 330.95 242.73 330.95 237.79C330.95 236 330.95 239.58 330.95 237.79C330.95 232.85 334.95 228.84 339.89 228.84C368.42 228.84 445.05 228.84 473.58 228.84Z" id="aCQvN5QY8"></path><path d="M206.74 363.3C206.74 377.53 194.71 389.09 179.89 389.09C165.08 389.09 153.05 377.53 153.05 363.3C153.05 349.07 165.08 337.51 179.89 337.51C194.71 337.51 206.74 349.07 206.74 363.3Z" id="c1rqakPmjs"></path><path d="M338.23 363.3C338.23 377.53 326.2 389.09 311.38 389.09C296.57 389.09 284.54 377.53 284.54 363.3C284.54 349.07 296.57 337.51 311.38 337.51C326.2 337.51 338.23 349.07 338.23 363.3Z" id="b4d3uYnlL"></path><path d="M460.42 363.3C460.42 377.53 448.39 389.09 433.58 389.09C418.76 389.09 406.74 377.53 406.74 363.3C406.74 349.07 418.76 337.51 433.58 337.51C448.39 337.51 460.42 349.07 460.42 363.3Z" id="i14SBGddaV"></path><path d="M464.66 260.42C470.77 260.42 476.43 263.6 479.61 268.82C481.53 271.98 482.31 273.26 484.27 276.47C486.44 280.05 483.87 284.63 479.68 284.63C453.8 284.63 382.99 284.63 356.44 284.63C353.04 284.63 350.28 281.88 350.28 278.48C350.28 274.87 350.28 271.37 350.28 268.06C350.28 263.84 353.7 260.42 357.92 260.42C381.24 260.42 441.79 260.42 464.66 260.42Z" id="c1DkA5KRj8"></path></defs><g><g><g><use xlink:href="#a10QOpwPfv" opacity="1" fill="#eaeaea" fill-opacity="1"></use></g><g><use xlink:href="#b1lCPhJdzq" opacity="1" fill="#ec553e" fill-opacity="1"></use></g><g><use xlink:href="#d4fVKgCb6M" opacity="1" fill="#f3b3af" fill-opacity="1"></use></g><g><use xlink:href="#e2QwWc91ul" opacity="1" fill="#f3726a" fill-opacity="1"></use></g><g><use xlink:href="#aCQvN5QY8" opacity="1" fill="#ec553e" fill-opacity="1"></use></g><g><use xlink:href="#c1rqakPmjs" opacity="1" fill="#8dd4db" fill-opacity="1"></use></g><g><use xlink:href="#b4d3uYnlL" opacity="1" fill="#8dd4db" fill-opacity="1"></use></g><g><use xlink:href="#i14SBGddaV" opacity="1" fill="#8dd4db" fill-opacity="1"></use></g><g><use xlink:href="#c1DkA5KRj8" opacity="1" fill="#8dd4db" fill-opacity="1"></use></g></g></g></svg>