<?xml version="1.0" encoding="UTF-8" standalone="no"?>
<!DOCTYPE svg PUBLIC "-//W3C//DTD SVG 1.1//EN" "http://www.w3.org/Graphics/SVG/1.1/DTD/svg11.dtd">
<svg version="1.1" xmlns="http://www.w3.org/2000/svg" xmlns:xlink="http://www.w3.org/1999/xlink" preserveAspectRatio="xMidYMid meet" viewBox="0 0 640 640" width="640" height="640"><defs><path d="M360.49 227.48C360.49 227.48 403.53 268.8 403.53 268.8C412.01 276.39 421.27 284.67 431.26 293.61C436.41 298.21 433.15 306.74 426.25 306.74C404.39 306.74 347.34 306.74 322.69 306.74C319.53 306.74 316.97 304.18 316.97 301.02C316.97 277.34 316.97 223.38 316.97 202.54C316.97 195.29 325.78 191.72 330.83 196.92C340.92 207.31 351.78 218.51 360.49 227.48Z" id="nhdXCxYFn"></path><path d="M314.11 196.21C318.76 196.21 322.53 199.98 322.53 204.63C322.53 245.26 322.53 358.74 322.53 399.37C322.53 404.02 318.76 407.79 314.11 407.79C312.42 407.79 315.79 407.79 314.11 407.79C309.45 407.79 305.68 404.02 305.68 399.37C305.68 358.74 305.68 245.26 305.68 204.63C305.68 199.98 309.45 196.21 314.11 196.21C315.79 196.21 312.42 196.21 314.11 196.21Z" id="a2uXOtdzVH"></path><path d="M143.83 376.11C133.88 360.09 120.59 346.84 103.98 336.35C100.14 333.94 102.35 328 106.84 328.67C109.77 329.12 117.11 330.23 128.84 332C133.11 330.97 144.27 337.85 162.32 352.65C180.38 367.44 199.85 379.16 220.75 387.79C249.52 390.6 278.99 392 309.17 392C339.34 392 370.22 390.6 401.8 387.79C418.47 376.68 437.06 365.95 457.59 355.6C470.52 349.08 491.33 333.57 504.96 325.68C504.96 325.68 504.96 325.68 504.96 325.68C513.27 325.68 518.06 335.12 513.16 341.83C512.28 343.04 511.42 344.26 510.58 345.48C501.29 359.11 479.2 377.42 471.68 392C463.86 407.14 459.55 421.88 458.73 436.24C458.07 447.74 449.15 457.06 437.69 458.22C402.23 461.79 363.95 463.58 322.85 463.58C280.84 463.58 235.9 461.66 188.05 457.81C176.35 456.87 166.81 448.05 164.95 436.46C161.15 412.79 154.11 392.67 143.83 376.11Z" id="d9y77of1E"></path><path d="M128.84 343.68C128.84 355.3 119.41 364.74 107.79 364.74C96.17 364.74 86.74 355.3 86.74 343.68C86.74 332.06 96.17 322.63 107.79 322.63C119.41 322.63 128.84 332.06 128.84 343.68Z" id="efIWMyzo2"></path><path d="M340.42 423.16C340.42 436.81 328.63 447.89 314.11 447.89C299.58 447.89 287.79 436.81 287.79 423.16C287.79 409.51 299.58 398.42 314.11 398.42C328.63 398.42 340.42 409.51 340.42 423.16Z" id="d5DLx0VfJ"></path><path d="M247.26 387.79C252.79 387.79 257.26 392.27 257.26 397.79C257.26 410.95 257.26 440.42 257.26 453.58C257.26 459.1 252.79 463.58 247.26 463.58C245.26 463.58 249.26 463.58 247.26 463.58C241.74 463.58 237.26 459.1 237.26 453.58C237.26 440.42 237.26 410.95 237.26 397.79C237.26 392.27 241.74 387.79 247.26 387.79C249.26 387.79 245.26 387.79 247.26 387.79Z" id="aKx1TKEh"></path><path d="M372.03 387.79C377.24 387.79 381.47 392.02 381.47 397.24C381.47 410.51 381.47 440.86 381.47 454.13C381.47 459.35 377.24 463.58 372.03 463.58C370.14 463.58 373.92 463.58 372.03 463.58C366.81 463.58 362.58 459.35 362.58 454.13C362.58 440.86 362.58 410.51 362.58 397.24C362.58 392.02 366.81 387.79 372.03 387.79C373.92 387.79 370.14 387.79 372.03 387.79Z" id="f1PcGu5EKd"></path><path d="M181.85 358.99C186.33 357.76 190.97 360.39 192.2 364.87C197.51 384.11 211.18 433.68 216.49 452.92C217.72 457.4 215.09 462.04 210.61 463.27C208.98 463.72 212.23 462.83 210.61 463.27C206.12 464.51 201.49 461.88 200.25 457.39C194.95 438.16 181.27 388.58 175.97 369.35C174.73 364.87 177.36 360.23 181.85 358.99C183.47 358.55 180.22 359.44 181.85 358.99Z" id="flAGeVekZ"></path><path d="M543.91 343.68C543.91 355.3 534.01 364.74 521.81 364.74C509.61 364.74 499.7 355.3 499.7 343.68C499.7 332.06 509.61 322.63 521.81 322.63C534.01 322.63 543.91 332.06 543.91 343.68Z" id="b1GQaf4vQ7"></path><path d="M443.86 362.39C439.38 361.15 434.74 363.78 433.5 368.27C428.39 386.82 415.27 434.36 410.16 452.92C408.92 457.4 411.55 462.04 416.03 463.27C417.66 463.72 414.41 462.83 416.03 463.27C420.52 464.51 425.15 461.88 426.39 457.39C431.51 438.84 444.62 391.3 449.74 372.75C450.98 368.26 448.34 363.63 443.86 362.39C442.24 361.94 445.48 362.84 443.86 362.39Z" id="d8qEq8MHzO"></path><path d="M229.89 379.89L400.42 379.89C461.08 349.7 498.99 330.83 514.16 323.28C514.89 322.92 515.51 323.93 514.86 324.42C505.68 331.3 484.02 347.54 474.84 354.42C470.92 357.36 466.77 360 462.44 362.29C454.31 366.61 433.99 377.39 401.47 394.63L230.95 394.63C205.38 382.81 189.4 375.42 183 372.46C178.56 370.4 174.33 367.9 170.39 364.99C158.95 356.51 130.53 335.49 119.08 327.01C118.43 326.53 119.04 325.52 119.77 325.88C134.46 333.08 171.16 351.09 229.89 379.89Z" id="dnTUAkTlG"></path><path d="M328.32 182.35C335 182.35 340.42 187.77 340.42 194.45C340.42 196.87 340.42 192.03 340.42 194.45C340.42 201.14 335 206.56 328.32 206.56C320.21 206.56 308 206.56 299.89 206.56C293.21 206.56 287.79 201.14 287.79 194.45C287.79 192.03 287.79 196.87 287.79 194.45C287.79 187.77 293.21 182.35 299.89 182.35C308 182.35 320.21 182.35 328.32 182.35Z" id="bwPjHN6rF"></path><path d="M326.74 423.67C326.74 430.59 321.31 436.21 314.63 436.21C307.95 436.21 302.53 430.59 302.53 423.67C302.53 416.75 307.95 411.13 314.63 411.13C321.31 411.13 326.74 416.75 326.74 423.67Z" id="c1Wc3HbIN9"></path><path d="M342.32 243.43C344.81 240.99 348.81 241.03 351.25 243.52C358.47 250.89 375.71 268.48 382.93 275.85C385.37 278.34 385.33 282.34 382.84 284.78C381.94 285.66 383.75 283.89 382.84 284.78C380.35 287.22 376.35 287.18 373.91 284.69C366.69 277.32 349.45 259.73 342.23 252.36C339.78 249.87 339.82 245.88 342.32 243.43C343.22 242.55 341.41 244.32 342.32 243.43Z" id="a8WFjFfVV"></path></defs><g><g><g><use xlink:href="#nhdXCxYFn" opacity="1" fill="#d4d2bf" fill-opacity="1"></use></g><g><use xlink:href="#a2uXOtdzVH" opacity="1" fill="#4e3418" fill-opacity="1"></use></g><g><use xlink:href="#d9y77of1E" opacity="1" fill="#4e3418" fill-opacity="1"></use></g><g><use xlink:href="#efIWMyzo2" opacity="1" fill="#211508" fill-opacity="1"></use></g><g><g></g><use xlink:href="#d5DLx0VfJ" opacity="1" fill="#ffd500" fill-opacity="1"></use><g><use xlink:href="#d5DLx0VfJ" opacity="1" fill-opacity="0" stroke="#363aed" stroke-width="1" stroke-opacity="1"></use></g></g><g><use xlink:href="#aKx1TKEh" opacity="1" fill="#65492b" fill-opacity="1"></use></g><g><use xlink:href="#f1PcGu5EKd" opacity="1" fill="#65492b" fill-opacity="1"></use></g><g><g></g><use xlink:href="#flAGeVekZ" opacity="1" fill="#ffd500" fill-opacity="1"></use><g><use xlink:href="#flAGeVekZ" opacity="1" fill-opacity="0" stroke="#9cbf82" stroke-width="1" stroke-opacity="1"></use></g></g><g><use xlink:href="#b1GQaf4vQ7" opacity="1" fill="#211508" fill-opacity="1"></use></g><g><g><filter id="shadow1225296" x="401.85" y="354.08" width="56.19" height="117.5" filterUnits="userSpaceOnUse" primitiveUnits="userSpaceOnUse"><feFlood></feFlood><feComposite in2="SourceAlpha" operator="in"></feComposite><feGaussianBlur stdDeviation="1"></feGaussianBlur><feOffset dx="0" dy="0" result="afterOffset"></feOffset><feFlood flood-color="#000000" flood-opacity="0.5"></feFlood><feComposite in2="afterOffset" operator="in"></feComposite><feMorphology operator="dilate" radius="1"></feMorphology><feComposite in2="SourceAlpha" operator="out"></feComposite></filter><path d="M443.86 362.39C439.38 361.15 434.74 363.78 433.5 368.27C428.39 386.82 415.27 434.36 410.16 452.92C408.92 457.4 411.55 462.04 416.03 463.27C417.66 463.72 414.41 462.83 416.03 463.27C420.52 464.51 425.15 461.88 426.39 457.39C431.51 438.84 444.62 391.3 449.74 372.75C450.98 368.26 448.34 363.63 443.86 362.39C442.24 361.94 445.48 362.84 443.86 362.39Z" id="ccRF3vUyX" fill="white" fill-opacity="1" filter="url(#shadow1225296)"></path></g><use xlink:href="#d8qEq8MHzO" opacity="1" fill="#ffd500" fill-opacity="1"></use></g><g><use xlink:href="#dnTUAkTlG" opacity="1" fill="#211508" fill-opacity="1"></use></g><g><use xlink:href="#bwPjHN6rF" opacity="1" fill="#ffd500" fill-opacity="1"></use></g><g><use xlink:href="#c1Wc3HbIN9" opacity="1" fill="#d5823f" fill-opacity="1"></use></g><g><use xlink:href="#a8WFjFfVV" opacity="1" fill="#aead9b" fill-opacity="1"></use></g></g></g></svg>