<svg id="Layer_1" data-name="Layer 1" xmlns="http://www.w3.org/2000/svg" viewBox="0 0 550.01 355.09"><defs><style>.cls-1{fill:#726157;stroke:#726157;stroke-width:3px;}.cls-1,.cls-9{stroke-miterlimit:10;}.cls-2{fill:#d5d2bf;}.cls-3{fill:#a09f9f;}.cls-4{fill:#bcbcbc;}.cls-5{fill:#e06153;}.cls-6{fill:#cf4e45;}.cls-7{fill:#d3d3d3;}.cls-8{fill:#8ed4db;}.cls-9{fill:none;stroke:#fff;stroke-width:5px;}.cls-10{fill:#fff;opacity:0.51;}.cls-11{fill:#bab6a4;}</style></defs><line class="cls-1" x1="319.72" y1="204.26" x2="336.06" y2="261.45"/><line class="cls-1" x1="385.79" y1="199.71" x2="363.27" y2="254.76"/><line class="cls-1" x1="546.45" y1="217.02" x2="459.54" y2="246.99"/><path class="cls-1" d="M276.81,395.58" transform="translate(-41.06 -131.13)"/><path class="cls-1" d="M295.31,339.05" transform="translate(-41.06 -131.13)"/><path class="cls-2" d="M588.68,351.53c-27.72,1.31-60.55-12.18-93.19-7.4-27.05,4-52.19,8.87-75.23,14.21a2.93,2.93,0,0,1-2-.49,2.51,2.51,0,0,1-1-1.69l-12.72-91.92-16.62-120c1-.53,3.75-3.67,5-1.76,22.66,33,48.2,74.06,91.53,121,30.77,33.34,76.32,65.53,105.42,83.36A2.56,2.56,0,0,1,588.68,351.53Z" transform="translate(-41.06 -131.13)"/><path class="cls-2" d="M291.45,344.37c11.66-.72,26.42-15,40-13a180,180,0,0,1,31,7.57c.07,0,.47,0,.88-.58a3.77,3.77,0,0,0,.55-1.59L375,253.63q7.26-54.3,14.5-108.58c-.4-.41-1.38-3.05-2-1.23-11.62,32.27-24.87,75-46.31,114.57-16.1,29.69-36.42,63.89-49.87,81.83C290.27,341.52,290.4,344.23,291.45,344.37Z" transform="translate(-41.06 -131.13)"/><rect class="cls-3" x="346.79" width="7.15" height="262.37" rx="3.57"/><polygon class="cls-3" points="208.32 271.61 70.97 285.8 103.29 218.29 201.19 208.18 208.32 271.61"/><rect class="cls-4" x="85.89" y="389.1" width="431.49" height="52.23" rx="6.33" transform="matrix(1, -0.07, 0.07, 1, -70.97, -107.67)"/><path class="cls-5" d="M378.79,486H120.19a42.62,42.62,0,0,1-29.93-12.17l-45.59-45a1.62,1.62,0,0,1,1.08-2.76L542.19,393.5a.71.71,0,0,1,.6,1.17L515.15,425.6C480.87,464,431.12,486,378.79,486Z" transform="translate(-41.06 -131.13)"/><path class="cls-6" d="M366.08,485.77c51.37,3,87.47-9.93,107.13-19.16,35.72-16.75,85.05-53,78.27-71.06a18.09,18.09,0,0,0-1.27-3L322.73,408.29Z" transform="translate(-41.06 -131.13)"/><path class="cls-6" d="M473.6,469.07" transform="translate(-41.06 -131.13)"/><rect class="cls-7" x="297.55" y="148.56" width="7.4" height="521.44" rx="3.7" transform="translate(649.18 -48.87) rotate(86.3)"/><path class="cls-7" d="M125.77,351h0c.29-1.53.91-2.82,1.39-2.88l156.28-19.57c.48-.06.63,1.13.34,2.66h0c-.3,1.53-.92,2.82-1.39,2.88L126.1,353.68C125.63,353.74,125.48,352.55,125.77,351Z" transform="translate(-41.06 -131.13)"/><rect class="cls-8" x="193.83" y="349.5" width="47.49" height="35.62" rx="6.3" transform="translate(-67.65 -114.02) rotate(-4.24)"/><path class="cls-9" d="M204.77,374.19" transform="translate(-41.06 -131.13)"/><path class="cls-9" d="M211.68,358.36" transform="translate(-41.06 -131.13)"/><rect class="cls-10" x="206.09" y="357.54" width="4.28" height="20.94" rx="2.14" transform="translate(34.04 -164.45) rotate(11.15)"/><rect class="cls-10" x="228.24" y="356.84" width="4.28" height="20.94" rx="2.14" transform="translate(34.32 -168.75) rotate(11.15)"/><path class="cls-11" d="M590.86,351.53a7.08,7.08,0,0,0-2.8-7.52l-23.49-16.55q-12.3-8.67-23.94-18.23L518,290.64q-10.75-8.82-20.88-18.37l-30.24-28.49h0a132.47,132.47,0,0,1,10.64,97.58l-1.73,6.25" transform="translate(-41.06 -131.13)"/><path class="cls-11" d="M331.41,331.37,363,341.13,375,253.63l-8.06,19.46a211.56,211.56,0,0,1-26.14,45.83Z" transform="translate(-41.06 -131.13)"/><path class="cls-11" d="M427.94,238.16a125.13,125.13,0,0,1,13,47.3,126.56,126.56,0,0,1,.19,14.18c-.13,3.22,4.87,3.21,5,0a130.35,130.35,0,0,0-7.92-50.4,136.57,136.57,0,0,0-5.91-13.6c-1.45-2.88-5.76-.35-4.32,2.52Z" transform="translate(-41.06 -131.13)"/><path class="cls-11" d="M339.21,286.72a116.79,116.79,0,0,0,21.65-38.6c1-3.06-3.81-4.37-4.82-1.33a110.57,110.57,0,0,1-20.36,36.4,2.56,2.56,0,0,0,0,3.53,2.51,2.51,0,0,0,3.53,0Z" transform="translate(-41.06 -131.13)"/></svg>