<svg id="Layer_1" data-name="Layer 1" xmlns="http://www.w3.org/2000/svg" viewBox="0 0 441.11 439.4"><defs><style>.cls-1,.cls-10,.cls-11{fill:none;stroke-linecap:round;}.cls-1{stroke:#666;stroke-width:4px;}.cls-1,.cls-10,.cls-11,.cls-9{stroke-miterlimit:10;}.cls-2{fill:#d4d2bf;}.cls-3{fill:#bab6a4;}.cls-4{fill:#457c72;}.cls-5{fill:#775034;}.cls-6{fill:#6b472e;}.cls-7{fill:#5a3405;}.cls-8{fill:#8dd4db;}.cls-9{fill:#fff;stroke:#000;stroke-width:0.25px;}.cls-10{stroke:#fff;stroke-width:3px;opacity:0.49;}.cls-11{stroke:#bab6a4;stroke-width:5px;}</style></defs><line class="cls-1" x1="9.73" y1="367.12" x2="44.45" y2="319.33"/><line class="cls-1" x1="402.74" y1="372.48" x2="394.52" y2="313.98"/><path class="cls-2" d="M374.25,59.45a.74.74,0,0,0-1.41-.38C354.56,105.15,324.15,168.66,276,230.29c-47.79,61.09-97.42,109.76-137.2,139.52a4.55,4.55,0,0,0,2.89,8.19,828.1,828.1,0,0,1,231.84,23.93,1.24,1.24,0,0,0,1.53-1.41,1025,1025,0,0,1-13.57-185.91C362.41,161.18,367.48,102.56,374.25,59.45Z" transform="translate(-107.69 -48.7)"/><path class="cls-2" d="M374.25,59.45a686.58,686.58,0,0,1,95.42,172.72,683.67,683.67,0,0,1,36.64,142,234.81,234.81,0,0,0-132.84,27.79,585.68,585.68,0,0,0,26-166.71A585.93,585.93,0,0,0,374.25,59.45Z" transform="translate(-107.69 -48.7)"/><path class="cls-3" d="M367,118.39c-2.22,39.56-12.73,121.72-71.35,197.74a335.36,335.36,0,0,1-64.22,63.3A830.75,830.75,0,0,1,324,391.2c17.33,3.21,33.84,6.83,49.5,10.73-4.38-30.82-7.85-63.81-9.9-98.78A1204.23,1204.23,0,0,1,367,118.39Z" transform="translate(-107.69 -48.7)"/><path id="fgVENuGQz" class="cls-4" d="M376.7,48.7a5.12,5.12,0,0,1,5.1,5.1V431.1a5.12,5.12,0,0,1-5.1,5.1h0a5.12,5.12,0,0,1-5.1-5.1V53.8a5.12,5.12,0,0,1,5.1-5.1Z" transform="translate(-107.69 -48.7)"/><path id="hf0WiaC2" class="cls-5" d="M323,414.2q102.45,0,211.6-8.4a5.68,5.68,0,0,1,5.1,8.9c-7.3,10.4-6.9,9.8-10.3,14.7-16.4,23.4-46.7,58.7-75.2,58.7H155.6c-25.1,0-41.9-41.8-41.9-66.9v-4.3a11,11,0,0,1,12-11Q221,414.15,323,414.2Z" transform="translate(-107.69 -48.7)"/><path class="cls-6" d="M542.92,409.75c-3.89,10.46-26.59,61.82-74.13,75.19a85.55,85.55,0,0,1-23.28,3.16H355.68c7.79-6.26,32.31-27.61,34.5-60.22A71.06,71.06,0,0,0,389,409.75Z" transform="translate(-107.69 -48.7)"/><path id="a3aRJqaO7p" class="cls-7" d="M177,405.8H470.7q60-2.7,75-3.4a3,3,0,0,1,3.1,2.9v4a3.36,3.36,0,0,1-3.1,3.3l-73.9,4.5H177q-50.4-3.45-63-4.4a5.8,5.8,0,0,1-5.1-4c-.4-1.3-.6-1.8-1.1-3.2a2.36,2.36,0,0,1,2.4-3.1Q123.4,403.15,177,405.8Z" transform="translate(-107.69 -48.7)"/><ellipse class="cls-7" cx="321.52" cy="397.82" rx="25.41" ry="24.72"/><path id="aWlGX6rMt" class="cls-8" d="M450.51,446.52c0,10.32-9.52,18.77-21.3,18.77s-21.3-8.45-21.3-18.77,9.51-18.78,21.3-18.78S450.51,436.08,450.51,446.52Z" transform="translate(-107.69 -48.7)"/><ellipse class="cls-7" cx="212.31" cy="400.3" rx="25.34" ry="25.13"/><path id="cSR3fSFc9" class="cls-8" d="M341.24,447.77c0,10.49-9.49,19.09-21.24,19.09s-21.24-8.6-21.24-19.09,9.49-19.09,21.24-19.09S341.24,437.17,341.24,447.77Z" transform="translate(-107.69 -48.7)"/><ellipse class="cls-7" cx="92.81" cy="400.3" rx="25.44" ry="24.77"/><path id="b4pCUvpni" class="cls-8" d="M221.11,448.34c0,10.34-9.52,18.81-21.32,18.81s-21.32-8.47-21.32-18.81,9.52-18.82,21.32-18.82S221.11,437.88,221.11,448.34Z" transform="translate(-107.69 -48.7)"/><path class="cls-9" d="M237,436.2" transform="translate(-107.69 -48.7)"/><path class="cls-2" d="M565,274.2" transform="translate(-107.69 -48.7)"/><line class="cls-10" x1="80.71" y1="405.71" x2="93.49" y2="387.5"/><line class="cls-10" x1="92.78" y1="413.33" x2="103.86" y2="397.85"/><line class="cls-10" x1="200.74" y1="405.59" x2="213.52" y2="387.39"/><line class="cls-10" x1="212.81" y1="413.21" x2="223.89" y2="397.73"/><line class="cls-10" x1="309.95" y1="401.9" x2="322.73" y2="383.69"/><line class="cls-10" x1="322.01" y1="409.52" x2="333.1" y2="394.04"/><path class="cls-11" d="M221.11,335.21a384.54,384.54,0,0,0,72.24-74,384.7,384.7,0,0,0,52-96.18" transform="translate(-107.69 -48.7)"/><path class="cls-11" d="M415.78,341.1a342.59,342.59,0,0,0,26.85-133.8" transform="translate(-107.69 -48.7)"/><path class="cls-3" d="M459.47,206.65a260.18,260.18,0,0,1-5.83,106.43A257.73,257.73,0,0,1,424,381.56a178.85,178.85,0,0,1,82.29-7.42A684.14,684.14,0,0,0,485.7,280,684.4,684.4,0,0,0,459.47,206.65Z" transform="translate(-107.69 -48.7)"/></svg>