<?xml version="1.0" encoding="UTF-8" standalone="no"?>
<!DOCTYPE svg PUBLIC "-//W3C//DTD SVG 1.1//EN" "http://www.w3.org/Graphics/SVG/1.1/DTD/svg11.dtd">
<svg version="1.1" xmlns="http://www.w3.org/2000/svg" xmlns:xlink="http://www.w3.org/1999/xlink" preserveAspectRatio="xMidYMid meet" viewBox="0 0 640 640" width="640" height="640"><defs><path d="M328.13 110.82C337.87 121.65 348.44 131.71 359.75 140.89C372.39 151.16 390.95 166.23 402.99 176.01C409.67 181.43 405.84 192.24 397.23 192.24C381.4 192.24 341.83 192.24 278.51 192.24C278.51 133.12 278.51 96.17 278.51 81.39C278.51 72.34 289.67 68.06 295.72 74.79C305.13 85.25 318.2 99.79 328.13 110.82Z" id="b26NY38x0k"></path><path d="M276.82 60.9C280.59 60.9 283.65 63.96 283.65 67.73C283.65 118.9 283.65 265.57 283.65 316.74C283.65 320.51 280.59 323.57 276.82 323.57C275.45 323.57 278.18 323.57 276.82 323.57C273.05 323.57 269.99 320.51 269.99 316.74C269.99 265.57 269.99 118.9 269.99 67.73C269.99 63.96 273.05 60.9 276.82 60.9C278.18 60.9 275.45 60.9 276.82 60.9Z" id="bJKjeVugA"></path><path d="M133.21 288.26C262.54 296.07 358.57 294.18 421.29 282.6C487.44 270.38 520.71 247.4 521.1 213.65C521.1 213.39 521.16 213.13 521.26 212.89C525.1 204.32 534.68 182.91 550.02 148.66L574.89 176.95L563.13 230.06C538.76 296.13 523.53 337.41 517.44 353.93C516.48 356.52 514.01 358.24 511.25 358.24C507.12 358.24 501.1 358.24 497.42 358.24C497.42 358.24 483.85 358.24 483.85 358.24C410.6 358.24 198.24 358.24 125.14 358.24C120.88 358.24 117.31 355.02 116.87 350.78C115.55 337.98 112.04 303.9 110.65 290.31C110.46 288.47 111.97 286.91 113.81 287.03C120.37 287.47 126.84 287.88 133.21 288.26Z" id="a1flvx4ZIw"></path><path d="M443.99 282.7C447.18 282.7 449.77 285.29 449.77 288.48C449.77 301.4 449.77 334.39 449.77 347.32C449.77 350.51 447.18 353.1 443.99 353.1C442.83 353.1 445.14 353.1 443.99 353.1C440.79 353.1 438.21 350.51 438.21 347.32C438.21 334.39 438.21 301.4 438.21 288.48C438.21 285.29 440.79 282.7 443.99 282.7C445.14 282.7 442.83 282.7 443.99 282.7Z" id="b7AfV9DM9"></path><path d="M195.95 290.48C199.14 290.48 201.73 293.06 201.73 296.25C201.73 308.34 201.73 338.81 201.73 350.89C201.73 354.08 199.14 356.67 195.95 356.67C194.8 356.67 197.11 356.67 195.95 356.67C192.76 356.67 190.17 354.08 190.17 350.89C190.17 338.81 190.17 308.34 190.17 296.25C190.17 293.06 192.76 290.48 195.95 290.48C197.11 290.48 194.8 290.48 195.95 290.48Z" id="ebT5Z751j"></path><path d="M146.53 286.9C149.72 286.9 152.31 289.49 152.31 292.68C152.31 304.77 152.31 335.23 152.31 347.32C152.31 350.51 149.72 353.1 146.53 353.1C145.38 353.1 147.69 353.1 146.53 353.1C143.34 353.1 140.75 350.51 140.75 347.32C140.75 335.23 140.75 304.77 140.75 292.68C140.75 289.49 143.34 286.9 146.53 286.9C147.69 286.9 145.38 286.9 146.53 286.9Z" id="ac2TUXY7j"></path><path d="M399.82 286.9C403.01 286.9 405.6 289.49 405.6 292.68C405.6 304.77 405.6 335.23 405.6 347.32C405.6 350.51 403.01 353.1 399.82 353.1C398.67 353.1 400.98 353.1 399.82 353.1C396.63 353.1 394.04 350.51 394.04 347.32C394.04 335.23 394.04 304.77 394.04 292.68C394.04 289.49 396.63 286.9 399.82 286.9C400.98 286.9 398.67 286.9 399.82 286.9Z" id="e1eoX2GVoz"></path><path d="M267.89 284.64C298.76 284.64 346.66 283.24 411.57 280.43L459.56 268.42L482.69 256.35C489 251.02 495.53 244.77 502.29 237.57C504.69 235.01 508.37 229.49 513.31 221.02L536.01 165C539.17 154.3 544.77 148.85 552.79 148.66C560.81 148.46 571.49 153.91 584.84 165C585.17 169.24 584.5 172.5 582.84 174.77C581.18 177.03 578.53 178.31 574.89 178.6L561.69 167.72C558.14 164.73 555.18 163.83 552.79 165C550.4 166.18 548.58 169.43 547.35 174.77L528.43 224.8C527.6 229.04 526.14 232.89 524.06 236.36C520.92 241.57 519.67 241.38 515.9 245.61C503.64 259.4 496.33 267.02 493.96 268.46C487.09 272.68 478.49 276.43 468.18 279.72C456.95 283.31 443.69 286.35 428.38 288.84C368.76 298.56 314.47 297.25 267.89 297.25C215.56 297.25 161.86 295.89 106.78 293.18C105.21 293.1 103.98 291.81 103.98 290.24C103.98 288.14 103.98 284.63 103.98 282.52C103.98 281 105.26 279.8 106.78 279.88C161.86 283.05 215.56 284.64 267.89 284.64Z" id="a1zjoKg8JH"></path><path d="M521.73 350.89C524.92 350.89 527.51 353.48 527.51 356.67C527.51 357.82 527.51 355.51 527.51 356.67C527.51 359.86 524.92 362.45 521.73 362.45C439.88 362.45 200.12 362.45 118.27 362.45C115.08 362.45 112.49 359.86 112.49 356.67C112.49 355.51 112.49 357.82 112.49 356.67C112.49 353.48 115.08 350.89 118.27 350.89C200.12 350.89 439.88 350.89 521.73 350.89Z" id="b9EZhAFeCZ"></path><path d="M305.19 117.64C310.12 117.64 314.12 121.64 314.12 126.57C314.12 136.34 314.12 156.72 314.12 166.5C314.12 171.43 310.12 175.43 305.19 175.43C303.4 175.43 306.97 175.43 305.19 175.43C300.25 175.43 296.25 171.43 296.25 166.5C296.25 156.72 296.25 136.34 296.25 126.57C296.25 121.64 300.25 117.64 305.19 117.64C306.97 117.64 303.4 117.64 305.19 117.64Z" id="e2owAsm4Xi"></path><path d="M342.71 146.53C345.18 146.53 347.18 148.53 347.18 151C347.18 155.88 347.18 166.08 347.18 170.96C347.18 173.43 345.18 175.43 342.71 175.43C340.87 175.43 339.82 175.43 337.98 175.43C335.52 175.43 333.52 173.43 333.52 170.96C333.52 166.08 333.52 155.88 333.52 151C333.52 148.53 335.52 146.53 337.98 146.53C339.82 146.53 340.87 146.53 342.71 146.53Z" id="aGazJGif"></path></defs><g><g><g><use xlink:href="#b26NY38x0k" opacity="1" fill="#d4d2bf" fill-opacity="1"></use></g><g><use xlink:href="#bJKjeVugA" opacity="1" fill="#51330e" fill-opacity="1"></use></g><g><use xlink:href="#a1flvx4ZIw" opacity="1" fill="#593718" fill-opacity="1"></use></g><g><use xlink:href="#b7AfV9DM9" opacity="1" fill="#754314" fill-opacity="1"></use></g><g><use xlink:href="#ebT5Z751j" opacity="1" fill="#754314" fill-opacity="1"></use></g><g><use xlink:href="#ac2TUXY7j" opacity="1" fill="#754314" fill-opacity="1"></use></g><g><use xlink:href="#e1eoX2GVoz" opacity="1" fill="#754314" fill-opacity="1"></use></g><g><use xlink:href="#a1zjoKg8JH" opacity="1" fill="#b68d1c" fill-opacity="1"></use></g><g><use xlink:href="#b9EZhAFeCZ" opacity="1" fill="#b68d1c" fill-opacity="1"></use></g><g><use xlink:href="#e2owAsm4Xi" opacity="1" fill="#b7a794" fill-opacity="1"></use></g><g><use xlink:href="#aGazJGif" opacity="1" fill="#b7a794" fill-opacity="1"></use></g></g></g></svg>