<?xml version="1.0" encoding="UTF-8" standalone="no"?>
<!DOCTYPE svg PUBLIC "-//W3C//DTD SVG 1.1//EN" "http://www.w3.org/Graphics/SVG/1.1/DTD/svg11.dtd">
<svg version="1.1" xmlns="http://www.w3.org/2000/svg" xmlns:xlink="http://www.w3.org/1999/xlink" preserveAspectRatio="xMidYMid meet" viewBox="0 0 640 640" width="640" height="640"><defs><path d="M317.36 261.9C300.27 226.5 288.6 191.75 282.35 157.64C281.92 155.3 279.38 154.02 277.23 155.05C276.38 155.46 278.09 154.64 277.23 155.05C274.73 156.26 273.37 159.01 273.94 161.73C281.12 196.09 293.25 230.98 310.35 266.39C327.53 301.99 349.78 338.15 377.1 374.86C378.74 377.06 381.71 377.79 384.18 376.59C385.03 376.18 383.33 377 384.18 376.59C386.38 375.53 387.05 372.72 385.56 370.78C357.29 333.81 334.55 297.51 317.36 261.9Z" id="dAD7MIHU2"></path><path d="M222.94 261.9C240.03 226.5 251.7 191.75 257.96 157.64C258.39 155.3 260.92 154.02 263.07 155.05C263.92 155.46 262.22 154.64 263.07 155.05C265.57 156.26 266.93 159.01 266.36 161.73C259.18 196.09 247.05 230.98 229.95 266.39C212.77 301.99 190.52 338.15 163.2 374.86C161.57 377.06 158.59 377.79 156.12 376.59C155.27 376.18 156.97 377 156.12 376.59C153.92 375.53 153.25 372.72 154.74 370.78C183.01 333.81 205.75 297.51 222.94 261.9Z" id="dhWT67iI1"></path><path d="M263.18 82.05C266.45 82.05 269.1 84.7 269.1 87.97C269.1 147.46 269.1 320.02 269.1 379.51C269.1 382.78 266.45 385.43 263.18 385.43C261.99 385.43 264.36 385.43 263.18 385.43C259.91 385.43 257.25 382.78 257.25 379.51C257.25 320.02 257.25 147.46 257.25 87.97C257.25 84.7 259.91 82.05 263.18 82.05C264.36 82.05 261.99 82.05 263.18 82.05Z" id="c9J5T5LK6"></path><path d="M71.77 370C67.38 349.01 69.91 327.33 79.37 304.97C87.9 341.54 96.67 360.49 105.68 361.82C111.69 362.71 103.14 366.75 160.52 375.97C217.89 385.19 282.34 376.67 330.97 375.97C345.61 375.76 354.79 375.89 358.5 376.35C403.88 381.99 446.05 352.06 455.7 307.36C455.7 307.36 455.7 307.36 455.7 307.36C460.54 268.42 477.06 232.6 505.25 199.92C508.56 196.09 514.1 195.1 518.53 197.56C523.2 200.17 534.9 206.67 553.61 217.08C555.12 233.65 555.12 242.95 553.61 244.99C550.6 249.02 523.6 235.3 521.04 239.59C507.59 262.13 500.06 265.77 493.07 314.4C490.5 332.25 489.76 354.25 490.84 380.39C492.05 409.68 468.63 434.1 439.31 434.1C372.58 434.1 195.79 434.1 121.47 434.1C111.55 434.1 102.23 429.36 96.38 421.34C83.4 403.54 75.2 386.43 71.77 370Z" id="b4ObGjCD4Z"></path><path d="M194.41 373.07C239.93 375 300.29 375.16 375.51 373.53C379.04 373.45 393.62 368.27 419.25 357.97C428.02 350.59 436.31 337.9 444.1 319.89C448.18 310.46 453.99 293.05 461.53 267.64C474.98 241.33 486.28 221.78 495.45 209C499.89 202.8 501.57 196.41 511 196.22C520.99 196.03 535.54 200.27 554.65 208.95C554.71 208.98 554.74 209.04 554.74 209.1C554.74 210.73 554.74 215.44 554.74 217.05C554.74 217.16 554.64 217.23 554.54 217.2C537.06 210.43 523.93 206.75 515.14 206.14C506.49 205.54 503.47 210.78 501.87 213.44C481.98 246.46 471.27 265.81 469.74 271.48C461.06 303.71 455.43 321.86 452.85 325.93C436.56 351.68 426.44 365.42 422.51 367.14C397.01 378.32 381.59 383.97 376.28 384.1C298.69 386.03 237.02 385.86 191.25 383.59C143.42 381.22 113.46 376.79 101.37 370.32C99.68 369.42 98.62 367.66 98.62 365.74C98.62 364.68 98.62 364.61 98.62 363.55C98.62 362.06 100.13 361.04 101.51 361.59C115.57 367.2 146.53 371.03 194.41 373.07Z" id="iKVGSNAu"></path><path d="M190.21 382.3C187.67 382.96 186.15 385.54 186.8 388.07C189.18 397.28 195.12 420.31 197.5 429.52C198.15 432.05 200.74 433.58 203.27 432.92C204.19 432.69 202.35 433.16 203.27 432.92C205.8 432.27 207.33 429.69 206.67 427.15C204.3 417.95 198.35 394.91 195.98 385.71C195.32 383.17 192.74 381.65 190.21 382.3C189.29 382.54 191.12 382.07 190.21 382.3Z" id="b21MyyOu57"></path><path d="" id="ciSDKjPAW"></path><path d="M230.55 382.3C228.02 382.96 226.49 385.54 227.15 388.07C229.52 397.28 235.47 420.31 237.84 429.52C238.5 432.05 241.08 433.58 243.61 432.92C244.53 432.69 242.69 433.16 243.61 432.92C246.15 432.27 247.67 429.69 247.01 427.15C244.64 417.95 238.7 394.91 236.32 385.71C235.67 383.17 233.08 381.65 230.55 382.3C229.63 382.54 231.47 382.07 230.55 382.3Z" id="a4sSrRieIp"></path><path d="M270.89 382.3C268.36 382.96 266.84 385.54 267.49 388.07C269.87 397.28 275.81 420.31 278.19 429.52C278.84 432.05 281.42 433.58 283.96 432.92C284.87 432.69 283.04 433.16 283.96 432.92C286.49 432.27 288.01 429.69 287.36 427.15C284.98 417.95 279.04 394.91 276.66 385.71C276.01 383.17 273.43 381.65 270.89 382.3C269.98 382.54 271.81 382.07 270.89 382.3Z" id="b29AZVdv0n"></path><path d="M303.38 382.3C300.85 382.96 299.33 385.54 299.98 388.07C302.36 397.28 308.3 420.31 310.68 429.52C311.33 432.05 313.91 433.58 316.45 432.92C317.36 432.69 315.53 433.16 316.45 432.92C318.98 432.27 320.5 429.69 319.85 427.15C317.47 417.95 311.53 394.91 309.15 385.71C308.5 383.17 305.92 381.65 303.38 382.3C302.47 382.54 304.3 382.07 303.38 382.3Z" id="a7RsdbZWk"></path><path d="M340.4 382.3C337.87 382.96 336.35 385.54 337 388.07C339.38 397.28 345.32 420.31 347.7 429.52C348.35 432.05 350.93 433.58 353.47 432.92C354.38 432.69 352.55 433.16 353.47 432.92C356 432.27 357.52 429.69 356.87 427.15C354.49 417.95 348.55 394.91 346.17 385.71C345.52 383.17 342.94 381.65 340.4 382.3C339.49 382.54 341.32 382.07 340.4 382.3Z" id="a6pcPdova"></path><path d="M289.93 128.15C298.48 128.15 305.4 135.08 305.4 143.62C305.4 171.63 305.4 240.16 305.4 268.17C305.4 276.72 298.48 283.65 289.93 283.65C284.58 283.65 284.01 283.65 278.66 283.65C270.11 283.65 263.18 276.72 263.18 268.17C263.18 240.16 263.18 171.63 263.18 143.62C263.18 135.08 270.11 128.15 278.66 128.15C284.01 128.15 284.58 128.15 289.93 128.15Z" id="a18qkDeQoY"></path><path d="M279.98 128.15C288.45 128.15 295.32 135.01 295.32 143.48C295.32 171.52 295.32 240.28 295.32 268.31C295.32 276.78 288.45 283.65 279.98 283.65C276.62 283.65 281.88 283.65 278.52 283.65C270.04 283.65 263.18 276.78 263.18 268.31C263.18 240.28 263.18 171.52 263.18 143.48C263.18 135.01 270.04 128.15 278.52 128.15C281.88 128.15 276.62 128.15 279.98 128.15Z" id="c1gQI9NNor"></path><path d="M281.55 90.32C287.35 90.32 292.05 95.03 292.05 100.83C292.05 102.93 292.05 98.73 292.05 100.83C292.05 106.63 287.35 111.33 281.55 111.33C272.65 111.33 256.48 111.33 247.59 111.33C241.78 111.33 237.08 106.63 237.08 100.83C237.08 98.73 237.08 102.93 237.08 100.83C237.08 95.03 241.78 90.32 247.59 90.32C256.48 90.32 272.65 90.32 281.55 90.32Z" id="f2GcQBZVjr"></path><path d="M544.39 217.61C546.34 218.16 547.49 220.19 546.94 222.14C546.74 222.85 547.14 221.43 546.94 222.14C546.39 224.1 544.36 225.24 542.41 224.69C538.66 223.65 530.97 221.5 527.23 220.45C525.27 219.9 524.13 217.87 524.68 215.92C524.88 215.21 524.48 216.63 524.68 215.92C525.23 213.96 527.26 212.82 529.21 213.37C532.96 214.41 540.65 216.56 544.39 217.61Z" id="b2tQTBwUJ0"></path><path d="M544.39 229.21C546.34 229.76 547.49 231.79 546.94 233.74C546.74 234.45 547.14 233.04 546.94 233.74C546.39 235.7 544.36 236.84 542.41 236.29C538.66 235.25 530.97 233.1 527.23 232.05C525.27 231.5 524.13 229.47 524.68 227.52C524.88 226.81 524.48 228.23 524.68 227.52C525.23 225.56 527.26 224.42 529.21 224.97C532.96 226.01 540.65 228.16 544.39 229.21Z" id="g2FFRnsRBf"></path></defs><g><g><g><use xlink:href="#dAD7MIHU2" opacity="1" fill="#4b4b4b" fill-opacity="1"></use></g><g><use xlink:href="#dhWT67iI1" opacity="1" fill="#4b4b4b" fill-opacity="1"></use></g><g><use xlink:href="#c9J5T5LK6" opacity="1" fill="#4e3418" fill-opacity="1"></use></g><g><use xlink:href="#b4ObGjCD4Z" opacity="1" fill="#65492b" fill-opacity="1"></use></g><g><use xlink:href="#iKVGSNAu" opacity="1" fill="#392712" fill-opacity="1"></use></g><g><use xlink:href="#b21MyyOu57" opacity="1" fill="#4e3418" fill-opacity="1"></use></g><g><use xlink:href="#ciSDKjPAW" opacity="1" fill="#4e3418" fill-opacity="1"></use><g><use xlink:href="#ciSDKjPAW" opacity="1" fill-opacity="0" stroke="#000000" stroke-width="1" stroke-opacity="1"></use></g></g><g><use xlink:href="#a4sSrRieIp" opacity="1" fill="#4e3418" fill-opacity="1"></use></g><g><use xlink:href="#b29AZVdv0n" opacity="1" fill="#4e3418" fill-opacity="1"></use></g><g><use xlink:href="#a7RsdbZWk" opacity="1" fill="#4e3418" fill-opacity="1"></use></g><g><use xlink:href="#a6pcPdova" opacity="1" fill="#4e3418" fill-opacity="1"></use></g><g><use xlink:href="#a18qkDeQoY" opacity="1" fill="#d4d2bf" fill-opacity="1"></use></g><g><use xlink:href="#c1gQI9NNor" opacity="1" fill="#932b37" fill-opacity="1"></use></g><g><use xlink:href="#f2GcQBZVjr" opacity="1" fill="#932b37" fill-opacity="1"></use></g><g><use xlink:href="#b2tQTBwUJ0" opacity="1" fill="#4e3418" fill-opacity="1"></use></g><g><use xlink:href="#g2FFRnsRBf" opacity="1" fill="#4e3418" fill-opacity="1"></use></g></g></g></svg>