<svg id="Layer_1" data-name="Layer 1" xmlns="http://www.w3.org/2000/svg" viewBox="0 0 384.7 290.47"><defs><style>.cls-1{fill:#5a3405;}.cls-2{fill:#775034;}.cls-3{fill:#fff;}.cls-4{fill:#d5d2bf;}.cls-5{fill:#6b472e;}.cls-6{fill:#c1bdaa;}.cls-7{fill:#8ed4db;}.cls-8,.cls-9{fill:none;stroke-linecap:round;stroke-miterlimit:10;}.cls-8{stroke:#fff;stroke-width:3px;opacity:0.49;isolation:isolate;}.cls-9{stroke:#c1bdaa;stroke-width:4px;}</style></defs><path class="cls-1" d="M31.2,266.68l-28,3.88A2.84,2.84,0,0,1,0,267.22L10.2,213.76a2.84,2.84,0,0,1,3.31-2.27h0L54,219.17,33.41,265A2.83,2.83,0,0,1,31.2,266.68Z" transform="translate(0.03 0.01)"/><path class="cls-1" d="M210.25,261.32l-53.06,28.62a4.28,4.28,0,0,1-5.81-1.73,4.33,4.33,0,0,1-.52-2V204.38a4.29,4.29,0,0,1,4.29-4.29h72.76a4.29,4.29,0,0,1,4.27,4.31,4.6,4.6,0,0,1-.27,1.47L212.22,259A4.34,4.34,0,0,1,210.25,261.32Z" transform="translate(0.03 0.01)"/><path class="cls-1" d="M159.81,207.76,164.45,3.49a3.33,3.33,0,0,1,3-3.5h1.16c1.7,0,3.06,1.69,3,3.72L171.29,15l-5.46,193a3.32,3.32,0,0,1-3,3.47C161.13,211.46,159.77,209.76,159.81,207.76Z" transform="translate(0.03 0.01)"/><path class="cls-2" d="M12.42,198.18,374,184.5a3.66,3.66,0,0,1,2.78,6.21,246.73,246.73,0,0,1-25.84,23c-56.8,43.89-119.75,52.68-155.2,54.4a525.58,525.58,0,0,1-88,0,525.48,525.48,0,0,1-68.8-10.4C27.41,250,14.75,217.7,8.76,204a4.16,4.16,0,0,1,2.15-5.48A4.37,4.37,0,0,1,12.42,198.18Z" transform="translate(0.03 0.01)"/><path class="cls-3" d="M342,155.18" transform="translate(0.03 0.01)"/><path class="cls-3" d="M342,160.56" transform="translate(0.03 0.01)"/><path class="cls-4" d="M166.53,190.21c19.2-4.7,49.85-17.09,74.53-19.17,46.19-3.9,77.6,8.64,108.22,14.42A893.9,893.9,0,0,0,262.5,88.58,894.25,894.25,0,0,0,171.63,12a360.91,360.91,0,0,1,8.43,94.8A360.9,360.9,0,0,1,166.53,190.21Z" transform="translate(0.03 0.01)"/><path class="cls-4" d="M164.39,6.24A366.54,366.54,0,0,1,138,93.3c-17.73,39.83-48.39,82.46-65.72,102.62a98.93,98.93,0,0,1,87.51-12.81A675.89,675.89,0,0,1,164.39,6.24Z" transform="translate(0.03 0.01)"/><path class="cls-5" d="M213.53,190.57l161.6-5.81a3.26,3.26,0,0,1,2.37,5.62c-17,16.25-38.37,36.21-74,52.09A311.63,311.63,0,0,1,177,269.35C232.2,231.24,224.44,217,213.53,190.57Z" transform="translate(0.03 0.01)"/><path class="cls-6" d="M166.53,190.21a362.43,362.43,0,0,0,13.53-83.45,359.85,359.85,0,0,0-.65-42.44c2.32,12.53,11.27,51.9,46.93,81.13a132.73,132.73,0,0,0,51.46,25.79c-11,.14-22.85.79-35.34,2.18A364.16,364.16,0,0,0,166.53,190.21Z" transform="translate(0.03 0.01)"/><path class="cls-6" d="M114.7,179.17a99.39,99.39,0,0,1,45.11,3.94q-1.69-16.5-2.68-34.35c-1-18.67-1.22-36.41-.87-53.09a103.68,103.68,0,0,1-15.73,55.93A101.41,101.41,0,0,1,114.7,179.17Z" transform="translate(0.03 0.01)"/><path class="cls-1" d="M5.94,195.82,381.6,183.21a3,3,0,0,1,3.07,2.93v1.22a3,3,0,0,1-2.88,3L6.13,201.76a3,3,0,0,1-3.06-2.94v-.06h0A3,3,0,0,1,5.94,195.82Z" transform="translate(0.03 0.01)"/><ellipse class="cls-1" cx="79.18" cy="232.32" rx="21.57" ry="20.85"/><ellipse class="cls-7" cx="79.18" cy="232.32" rx="15.86" ry="15.33"/><ellipse class="cls-1" cx="171.66" cy="232.32" rx="21.57" ry="20.85"/><ellipse class="cls-7" cx="171.66" cy="232.32" rx="15.86" ry="15.33"/><ellipse class="cls-1" cx="249.14" cy="227.26" rx="21.57" ry="20.85"/><ellipse class="cls-7" cx="249.14" cy="227.26" rx="15.86" ry="15.33"/><line class="cls-8" x1="69.48" y1="233.7" x2="80.86" y2="221.57"/><line class="cls-8" x1="76.58" y1="242.63" x2="88.43" y2="229.35"/><line class="cls-8" x1="162.19" y1="233.92" x2="173.56" y2="221.79"/><line class="cls-8" x1="169.28" y1="242.85" x2="181.13" y2="229.57"/><line class="cls-8" x1="239.66" y1="228.71" x2="251.04" y2="216.58"/><line class="cls-8" x1="246.76" y1="237.63" x2="258.61" y2="224.36"/><path class="cls-9" d="M207.63,64.76a177.56,177.56,0,0,1,75.38,82" transform="translate(0.03 0.01)"/><path class="cls-9" d="M146.05,89.64a181.36,181.36,0,0,1-12,36.91,179.84,179.84,0,0,1-16.93,29.83" transform="translate(0.03 0.01)"/></svg>