<?xml version="1.0" encoding="UTF-8" standalone="no"?>
<!DOCTYPE svg PUBLIC "-//W3C//DTD SVG 1.1//EN" "http://www.w3.org/Graphics/SVG/1.1/DTD/svg11.dtd">
<svg version="1.1" xmlns="http://www.w3.org/2000/svg" xmlns:xlink="http://www.w3.org/1999/xlink" preserveAspectRatio="xMidYMid meet" viewBox="0 0 640 640" width="640" height="640"><defs><path d="M108.84 25.68C119.89 25.68 128.84 34.64 128.84 45.68C128.84 59.58 128.84 81.26 128.84 95.16C128.84 106.2 119.89 115.16 108.84 115.16C94.53 115.16 71.58 115.16 57.26 115.16C46.22 115.16 37.26 106.2 37.26 95.16C37.26 81.26 37.26 59.58 37.26 45.68C37.26 34.64 46.22 25.68 57.26 25.68C71.58 25.68 94.53 25.68 108.84 25.68Z" id="b18e9vQwdM"></path><path d="M523.58 25.68C534.62 25.68 543.58 34.64 543.58 45.68C543.58 59.58 543.58 81.26 543.58 95.16C543.58 106.2 534.62 115.16 523.58 115.16C454.53 115.16 267.37 115.16 198.32 115.16C187.27 115.16 178.32 106.2 178.32 95.16C178.32 81.26 178.32 59.58 178.32 45.68C178.32 34.64 187.27 25.68 198.32 25.68C267.37 25.68 454.53 25.68 523.58 25.68Z" id="abODzErs"></path><path d="M108.84 158.32C119.89 158.32 128.84 167.27 128.84 178.32C128.84 192.21 128.84 213.89 128.84 227.79C128.84 238.84 119.89 247.79 108.84 247.79C94.53 247.79 71.58 247.79 57.26 247.79C46.22 247.79 37.26 238.84 37.26 227.79C37.26 213.89 37.26 192.21 37.26 178.32C37.26 167.27 46.22 158.32 57.26 158.32C71.58 158.32 94.53 158.32 108.84 158.32Z" id="a2w1XEhKIX"></path><path d="M523.58 158.32C534.62 158.32 543.58 167.27 543.58 178.32C543.58 192.21 543.58 213.89 543.58 227.79C543.58 238.84 534.62 247.79 523.58 247.79C454.53 247.79 267.37 247.79 198.32 247.79C187.27 247.79 178.32 238.84 178.32 227.79C178.32 213.89 178.32 192.21 178.32 178.32C178.32 167.27 187.27 158.32 198.32 158.32C267.37 158.32 454.53 158.32 523.58 158.32Z" id="c1eI0aC7gq"></path><path d="M108.84 283.58C119.89 283.58 128.84 292.53 128.84 303.58C128.84 317.47 128.84 339.16 128.84 353.05C128.84 364.1 119.89 373.05 108.84 373.05C94.53 373.05 71.58 373.05 57.26 373.05C46.22 373.05 37.26 364.1 37.26 353.05C37.26 339.16 37.26 317.47 37.26 303.58C37.26 292.53 46.22 283.58 57.26 283.58C71.58 283.58 94.53 283.58 108.84 283.58Z" id="e4uiUYgXz7"></path><path d="M523.58 283.58C534.62 283.58 543.58 292.53 543.58 303.58C543.58 317.47 543.58 339.16 543.58 353.05C543.58 364.1 534.62 373.05 523.58 373.05C454.53 373.05 267.37 373.05 198.32 373.05C187.27 373.05 178.32 364.1 178.32 353.05C178.32 339.16 178.32 317.47 178.32 303.58C178.32 292.53 187.27 283.58 198.32 283.58C267.37 283.58 454.53 283.58 523.58 283.58Z" id="a3JlDodagT"></path><path d="M66.61 42.53C71.33 42.53 75.16 46.35 75.16 51.07C75.16 60.52 75.16 80.32 75.16 89.77C75.16 94.49 71.33 98.32 66.61 98.32C64.74 98.32 67.68 98.32 65.81 98.32C61.09 98.32 57.26 94.49 57.26 89.77C57.26 80.32 57.26 60.52 57.26 51.07C57.26 46.35 61.09 42.53 65.81 42.53C67.68 42.53 64.74 42.53 66.61 42.53Z" id="gpT81WcU1"></path><path d="M99.24 42.53C103.96 42.53 107.79 46.35 107.79 51.07C107.79 60.52 107.79 80.32 107.79 89.77C107.79 94.49 103.96 98.32 99.24 98.32C97.37 98.32 100.31 98.32 98.44 98.32C93.72 98.32 89.89 94.49 89.89 89.77C89.89 80.32 89.89 60.52 89.89 51.07C89.89 46.35 93.72 42.53 98.44 42.53C100.31 42.53 97.37 42.53 99.24 42.53Z" id="a99FqcRPpt"></path><path d="M426.75 30.95C444.01 30.95 458 44.94 458 62.2C458 71.74 458 69.11 458 78.64C458 95.9 444.01 109.89 426.75 109.89C394.18 109.89 327.72 109.89 295.14 109.89C277.89 109.89 263.89 95.9 263.89 78.64C263.89 69.11 263.89 71.74 263.89 62.2C263.89 44.94 277.89 30.95 295.14 30.95C327.72 30.95 394.18 30.95 426.75 30.95Z" id="a14KZozgSG"></path><path d="M370.38 85.97L345.29 100.84L344.95 71.68L344.61 42.53L370.04 56.81L395.47 71.1L370.38 85.97Z" id="aLHDwQ9jN"></path><path d="M89.05 165.69L89.13 165.7L89.2 165.71L89.27 165.73L89.34 165.75L89.4 165.78L89.47 165.8L89.53 165.83L89.59 165.87L89.65 165.9L89.71 165.95L89.76 165.99L89.82 166.03L89.87 166.08L89.92 166.14L89.97 166.19L90.02 166.25L90.06 166.31L90.11 166.37L90.15 166.43L90.19 166.5L90.24 166.57L90.28 166.64L90.32 166.71L90.36 166.79L90.39 166.87L90.43 166.95L90.47 167.03L90.5 167.11L90.54 167.2L90.58 167.28L90.61 167.37L90.64 167.46L90.68 167.55L90.71 167.64L90.74 167.73L90.78 167.83L90.81 167.92L90.84 168.02L92.53 174.08L93.05 174.24L94.22 174.64L95.37 175.08L96.49 175.56L97.6 176.08L97.69 176.13L103.36 172.97L103.46 172.93L103.55 172.88L103.64 172.84L103.74 172.8L103.83 172.75L103.92 172.71L104.01 172.67L104.1 172.63L104.18 172.6L104.27 172.56L104.36 172.53L104.44 172.49L104.53 172.46L104.61 172.43L104.7 172.41L104.78 172.38L104.86 172.36L104.94 172.34L105.02 172.32L105.1 172.3L105.18 172.29L105.25 172.28L105.33 172.27L105.41 172.27L105.48 172.27L105.55 172.27L105.62 172.27L105.7 172.28L105.76 172.29L105.83 172.3L105.9 172.32L105.97 172.34L106.03 172.36L106.1 172.39L106.16 172.42L106.22 172.46L106.29 172.5L106.35 172.54L106.4 172.59L106.46 172.64L114.72 180.57L114.78 180.63L114.83 180.68L114.88 180.74L114.92 180.8L114.96 180.86L114.99 180.92L115.02 180.99L115.05 181.05L115.07 181.12L115.09 181.18L115.11 181.25L115.12 181.32L115.13 181.39L115.14 181.46L115.14 181.54L115.14 181.61L115.14 181.68L115.13 181.76L115.12 181.83L115.11 181.91L115.1 181.99L115.08 182.06L115.06 182.14L115.03 182.22L115.01 182.3L114.98 182.38L114.95 182.46L114.92 182.54L114.88 182.63L114.85 182.71L114.81 182.79L114.77 182.87L114.73 182.96L114.68 183.04L114.63 183.12L114.59 183.21L114.54 183.29L114.49 183.37L114.43 183.46L114.38 183.54L111.1 188.98L111.17 189.1L111.71 190.16L112.21 191.23L112.67 192.33L113.08 193.46L113.25 193.96L119.57 195.58L119.67 195.6L119.77 195.63L119.86 195.65L119.96 195.68L120.06 195.7L120.15 195.73L120.24 195.76L120.33 195.79L120.42 195.82L120.51 195.85L120.6 195.89L120.68 195.92L120.77 195.95L120.85 195.99L120.93 196.03L121 196.07L121.08 196.11L121.15 196.15L121.22 196.19L121.29 196.24L121.35 196.28L121.41 196.33L121.47 196.38L121.53 196.43L121.58 196.48L121.64 196.53L121.68 196.59L121.73 196.65L121.77 196.7L121.81 196.76L121.84 196.82L121.88 196.89L121.9 196.95L121.93 197.02L121.95 197.08L121.97 197.15L121.98 197.22L121.99 197.3L122 197.37L122 197.45L122 208.66L122 208.73L121.99 208.81L121.98 208.88L121.97 208.95L121.95 209.02L121.93 209.08L121.9 209.15L121.88 209.21L121.84 209.27L121.81 209.33L121.77 209.38L121.73 209.44L121.68 209.49L121.64 209.54L121.58 209.59L121.53 209.64L121.47 209.69L121.41 209.73L121.35 209.78L121.29 209.82L121.22 209.86L121.15 209.91L121.08 209.95L121 209.98L120.93 210.02L120.85 210.06L120.77 210.1L120.68 210.13L120.6 210.17L120.51 210.2L120.42 210.24L120.33 210.27L120.24 210.3L120.15 210.34L120.06 210.37L119.96 210.4L119.86 210.43L119.77 210.46L119.67 210.49L119.57 210.53L113.25 212.14L113.08 212.65L112.67 213.77L112.21 214.87L111.71 215.95L111.17 217.01L111.1 217.11L114.38 222.54L114.43 222.62L114.49 222.71L114.54 222.79L114.59 222.88L114.63 222.96L114.68 223.04L114.73 223.13L114.77 223.21L114.81 223.29L114.85 223.38L114.88 223.46L114.92 223.54L114.95 223.62L114.98 223.7L115.01 223.78L115.03 223.86L115.06 223.94L115.08 224.02L115.1 224.1L115.11 224.17L115.12 224.25L115.13 224.33L115.14 224.4L115.14 224.47L115.14 224.55L115.14 224.62L115.13 224.69L115.12 224.76L115.11 224.83L115.09 224.9L115.07 224.97L115.05 225.03L115.02 225.1L114.99 225.16L114.96 225.22L114.92 225.28L114.88 225.34L114.83 225.4L114.78 225.46L114.72 225.51L106.46 233.44L106.4 233.49L106.35 233.54L106.29 233.58L106.22 233.62L106.16 233.66L106.1 233.69L106.03 233.72L105.97 233.74L105.9 233.77L105.83 233.78L105.76 233.8L105.7 233.81L105.62 233.81L105.55 233.82L105.48 233.82L105.41 233.82L105.33 233.81L105.25 233.8L105.18 233.79L105.1 233.78L105.02 233.76L104.94 233.74L104.86 233.72L104.78 233.7L104.7 233.68L104.61 233.65L104.53 233.62L104.44 233.59L104.36 233.56L104.27 233.52L104.18 233.49L104.1 233.45L104.01 233.41L103.92 233.37L103.83 233.33L103.74 233.29L103.64 233.24L103.55 233.2L103.46 233.16L103.36 233.11L97.71 229.97L97.6 230.03L96.49 230.55L95.37 231.03L94.22 231.47L93.05 231.87L92.53 232.02L90.84 238.09L90.81 238.18L90.78 238.28L90.74 238.37L90.71 238.46L90.68 238.56L90.64 238.65L90.61 238.74L90.58 238.82L90.54 238.91L90.5 238.99L90.47 239.08L90.43 239.16L90.39 239.24L90.36 239.32L90.32 239.39L90.28 239.46L90.24 239.54L90.19 239.61L90.15 239.67L90.11 239.74L90.06 239.8L90.02 239.86L89.97 239.92L89.92 239.97L89.87 240.02L89.82 240.07L89.76 240.12L89.71 240.16L89.65 240.2L89.59 240.24L89.53 240.27L89.47 240.3L89.4 240.33L89.34 240.35L89.27 240.37L89.2 240.39L89.13 240.4L89.05 240.41L88.97 240.42L88.89 240.42L77.21 240.42L77.13 240.42L77.05 240.41L76.98 240.4L76.9 240.39L76.83 240.37L76.76 240.35L76.69 240.33L76.63 240.3L76.56 240.27L76.5 240.24L76.43 240.2L76.37 240.16L76.32 240.12L76.26 240.07L76.2 240.02L76.15 239.97L76.1 239.92L76.05 239.86L76 239.8L75.95 239.74L75.9 239.67L75.86 239.61L75.82 239.54L75.77 239.46L75.73 239.39L75.69 239.32L75.66 239.24L75.62 239.16L75.58 239.08L75.55 238.99L75.51 238.91L75.48 238.82L75.45 238.74L75.42 238.65L75.39 238.56L75.36 238.46L75.34 238.37L75.31 238.28L75.29 238.18L75.26 238.09L73.58 232.02L73.05 231.87L71.88 231.47L70.74 231.03L69.61 230.55L68.51 230.03L68.38 229.96L62.74 233.09L62.65 233.14L62.57 233.19L62.48 233.24L62.39 233.29L62.3 233.33L62.22 233.38L62.13 233.42L62.04 233.46L61.96 233.5L61.87 233.54L61.79 233.57L61.7 233.6L61.62 233.64L61.53 233.66L61.45 233.69L61.36 233.72L61.28 233.74L61.2 233.76L61.12 233.77L61.04 233.79L60.96 233.8L60.88 233.81L60.8 233.81L60.73 233.82L60.65 233.82L60.57 233.81L60.5 233.81L60.43 233.8L60.35 233.79L60.28 233.77L60.21 233.75L60.15 233.73L60.08 233.7L60.01 233.67L59.95 233.64L59.88 233.6L59.82 233.56L59.76 233.52L59.7 233.47L59.64 233.42L51.38 225.49L51.33 225.44L51.28 225.38L51.23 225.32L51.19 225.26L51.15 225.2L51.12 225.14L51.09 225.08L51.06 225.02L51.04 224.95L51.02 224.89L51.01 224.82L51 224.75L50.99 224.69L50.99 224.62L50.99 224.55L50.99 224.48L51 224.4L51 224.33L51.01 224.26L51.03 224.18L51.04 224.11L51.06 224.03L51.09 223.95L51.11 223.88L51.13 223.8L51.16 223.72L51.19 223.64L51.23 223.55L51.26 223.47L51.29 223.39L51.33 223.31L51.37 223.22L51.41 223.14L51.45 223.05L51.5 222.96L51.54 222.87L51.59 222.79L51.63 222.7L51.68 222.61L51.73 222.52L54.99 217.1L54.94 217.01L54.4 215.95L53.89 214.87L53.44 213.77L53.02 212.65L52.86 212.14L46.54 210.53L46.44 210.49L46.34 210.46L46.24 210.43L46.14 210.4L46.05 210.37L45.95 210.34L45.86 210.3L45.77 210.27L45.68 210.24L45.59 210.2L45.51 210.17L45.42 210.13L45.34 210.1L45.26 210.06L45.18 210.02L45.1 209.98L45.03 209.95L44.96 209.91L44.89 209.86L44.82 209.82L44.75 209.78L44.69 209.73L44.63 209.69L44.58 209.64L44.52 209.59L44.47 209.54L44.42 209.49L44.38 209.44L44.34 209.38L44.3 209.33L44.26 209.27L44.23 209.21L44.2 209.15L44.18 209.08L44.15 209.02L44.14 208.95L44.12 208.88L44.11 208.81L44.11 208.73L44.11 208.66L44.11 197.45L44.11 197.37L44.11 197.3L44.12 197.22L44.14 197.15L44.15 197.08L44.18 197.02L44.2 196.95L44.23 196.89L44.26 196.82L44.3 196.76L44.34 196.7L44.38 196.65L44.42 196.59L44.47 196.53L44.52 196.48L44.58 196.43L44.63 196.38L44.69 196.33L44.75 196.28L44.82 196.24L44.89 196.19L44.96 196.15L45.03 196.11L45.1 196.07L45.18 196.03L45.26 195.99L45.34 195.95L45.42 195.92L45.51 195.89L45.59 195.85L45.68 195.82L45.77 195.79L45.86 195.76L45.95 195.73L46.05 195.7L46.14 195.68L46.24 195.65L46.34 195.63L46.44 195.6L46.54 195.58L52.86 193.96L53.02 193.46L53.44 192.33L53.89 191.23L54.4 190.16L54.94 189.1L55 188.99L51.73 183.57L51.68 183.48L51.63 183.39L51.59 183.3L51.54 183.21L51.5 183.12L51.45 183.03L51.41 182.95L51.37 182.86L51.33 182.78L51.29 182.69L51.26 182.61L51.23 182.53L51.19 182.45L51.16 182.37L51.13 182.29L51.11 182.21L51.09 182.13L51.06 182.05L51.04 181.98L51.03 181.9L51.01 181.82L51 181.75L51 181.68L50.99 181.61L50.99 181.54L50.99 181.47L50.99 181.4L51 181.33L51.01 181.26L51.02 181.19L51.04 181.13L51.06 181.07L51.09 181L51.12 180.94L51.15 180.88L51.19 180.82L51.23 180.76L51.28 180.7L51.33 180.65L51.38 180.59L59.64 172.67L59.7 172.61L59.76 172.56L59.82 172.52L59.88 172.48L59.95 172.44L60.01 172.41L60.08 172.38L60.15 172.35L60.21 172.33L60.28 172.31L60.35 172.3L60.43 172.28L60.5 172.27L60.57 172.27L60.65 172.27L60.73 172.27L60.8 172.27L60.88 172.27L60.96 172.28L61.04 172.29L61.12 172.31L61.2 172.33L61.28 172.35L61.36 172.37L61.45 172.39L61.53 172.42L61.62 172.45L61.7 172.48L61.79 172.51L61.87 172.55L61.96 172.58L62.04 172.62L62.13 172.66L62.22 172.71L62.3 172.75L62.39 172.8L62.48 172.84L62.57 172.89L62.65 172.94L62.74 173L68.4 176.14L68.51 176.08L69.61 175.56L70.74 175.08L71.88 174.64L73.05 174.24L73.58 174.08L75.26 168.02L75.29 167.92L75.31 167.83L75.34 167.73L75.36 167.64L75.39 167.55L75.42 167.46L75.45 167.37L75.48 167.28L75.51 167.2L75.55 167.11L75.58 167.03L75.62 166.95L75.66 166.87L75.69 166.79L75.73 166.71L75.77 166.64L75.82 166.57L75.86 166.5L75.9 166.43L75.95 166.37L76 166.31L76.05 166.25L76.1 166.19L76.15 166.14L76.2 166.08L76.26 166.03L76.32 165.99L76.37 165.95L76.43 165.9L76.5 165.87L76.56 165.83L76.63 165.8L76.69 165.78L76.76 165.75L76.83 165.73L76.9 165.71L76.98 165.7L77.05 165.69L77.13 165.69L77.21 165.68L88.89 165.68L88.97 165.69L89.05 165.69ZM81.66 186.76L80.97 186.83L80.29 186.92L79.62 187.04L78.96 187.18L78.31 187.35L77.67 187.54L77.04 187.75L76.42 187.99L75.81 188.25L75.22 188.53L74.64 188.83L74.08 189.15L73.53 189.5L72.99 189.86L72.47 190.24L71.96 190.64L71.48 191.06L71 191.49L70.55 191.94L70.11 192.41L69.7 192.9L69.3 193.4L68.92 193.91L68.57 194.44L68.23 194.98L67.92 195.54L67.62 196.11L67.35 196.69L67.11 197.28L66.88 197.89L66.68 198.5L66.51 199.12L66.36 199.76L66.24 200.4L66.14 201.05L66.07 201.71L66.03 202.38L66.01 203.05L66.03 203.73L66.07 204.39L66.14 205.05L66.24 205.7L66.36 206.35L66.51 206.98L66.68 207.61L66.88 208.22L67.11 208.82L67.35 209.42L67.62 210L67.92 210.57L68.23 211.12L68.57 211.66L68.92 212.19L69.3 212.71L69.7 213.21L70.11 213.69L70.55 214.16L71 214.61L71.48 215.05L71.96 215.47L72.47 215.87L72.99 216.25L73.53 216.61L74.08 216.95L74.64 217.27L75.22 217.58L75.81 217.86L76.42 218.12L77.04 218.35L77.67 218.57L78.31 218.76L78.96 218.93L79.62 219.07L80.29 219.19L80.97 219.28L81.66 219.35L82.35 219.39L83.05 219.4L83.75 219.39L84.45 219.35L85.14 219.28L85.82 219.19L86.49 219.07L87.15 218.93L87.8 218.76L88.44 218.57L89.07 218.35L89.69 218.12L90.29 217.86L90.88 217.58L91.46 217.27L92.03 216.95L92.58 216.61L93.12 216.25L93.64 215.87L94.14 215.47L94.63 215.05L95.1 214.61L95.55 214.16L95.99 213.69L96.41 213.21L96.8 212.71L97.18 212.19L97.54 211.66L97.88 211.12L98.19 210.57L98.48 210L98.75 209.42L99 208.82L99.22 208.22L99.42 207.61L99.6 206.98L99.75 206.35L99.87 205.7L99.97 205.05L100.04 204.39L100.08 203.73L100.09 203.05L100.08 202.38L100.04 201.71L99.97 201.05L99.87 200.4L99.75 199.76L99.6 199.12L99.42 198.5L99.22 197.89L99 197.28L98.75 196.69L98.48 196.11L98.19 195.54L97.88 194.98L97.54 194.44L97.18 193.91L96.8 193.4L96.41 192.9L95.99 192.41L95.55 191.94L95.1 191.49L94.63 191.06L94.14 190.64L93.64 190.24L93.12 189.86L92.58 189.5L92.03 189.15L91.46 188.83L90.88 188.53L90.29 188.25L89.69 187.99L89.07 187.75L88.44 187.54L87.8 187.35L87.15 187.18L86.49 187.04L85.82 186.92L85.14 186.83L84.45 186.76L83.75 186.72L83.05 186.7L82.35 186.72L81.66 186.76Z" id="a5MUHVGqM"></path><path d="M61.67 314.99L85.28 302L85.11 328.32L84.94 354.63L61.5 341.31L51.41 327.99L61.67 314.99Z" id="e1lSFh9mlm"></path><path d="M47.14 313.09L68.34 313.09L68.34 343.54L47.14 343.54L47.14 313.09Z" id="aHi3RQdwx"></path><path d="M107.79 330.95C107.79 317.79 107.79 311.37 107.79 306.47C107.79 304 109.79 302 112.26 302C113.16 302 111.37 302 112.26 302C114.89 302 117.19 303.79 117.83 306.34C120.08 315.31 121.21 323.52 121.21 330.95C121.21 338.09 120.21 344.58 118.2 350.4C117.32 352.93 114.94 354.63 112.26 354.63C111.37 354.63 113.16 354.63 112.26 354.63C109.79 354.63 107.79 352.63 107.79 350.16C107.79 346.32 107.79 344.11 107.79 330.95Z" id="a12udo58Hr"></path><path d="M93.18 330.32C93.18 320.32 93.18 315.44 93.18 311.72C93.18 309.84 94.71 308.32 96.58 308.32C97.41 308.32 96.5 308.32 97.33 308.32C99.34 308.32 101.1 309.65 101.64 311.59C103.55 318.42 104.5 324.66 104.5 330.32C104.5 335.75 103.65 340.69 101.94 345.14C101.21 347.05 99.38 348.32 97.33 348.32C96.5 348.32 97.41 348.32 96.58 348.32C94.71 348.32 93.18 346.79 93.18 344.92C93.18 342 93.18 340.32 93.18 330.32Z" id="h5wVDQCk9Z"></path><path d="M108.84 409.89C119.89 409.89 128.84 418.85 128.84 429.89C128.84 443.79 128.84 465.47 128.84 479.37C128.84 490.41 119.89 499.37 108.84 499.37C94.53 499.37 71.58 499.37 57.26 499.37C46.22 499.37 37.26 490.41 37.26 479.37C37.26 465.47 37.26 443.79 37.26 429.89C37.26 418.85 46.22 409.89 57.26 409.89C71.58 409.89 94.53 409.89 108.84 409.89Z" id="a23s91DjQ"></path><path d="M61.67 441.31L85.28 428.32L85.11 454.63L84.94 480.95L61.5 467.63L51.41 454.3L61.67 441.31Z" id="a1YfArkUeF"></path><path d="M47.14 439.41L68.34 439.41L68.34 469.86L47.14 469.86L47.14 439.41Z" id="b2BYveOxeT"></path><path d="M111.71 454.63L122 465.75L116.24 471.98L105.95 460.86L95.66 471.98L89.89 465.75L100.18 454.63L89.89 443.51L95.66 437.28L105.95 448.4L116.24 437.28L122 443.51L111.71 454.63Z" id="e1gUE2ICDQ"></path><path d="M227.05 312.42L273.72 293.06L292 337.1L245.33 356.46L227.05 312.42Z" id="acFCQnsv3"></path><path d="M365.5 165.68C374 165.68 380.89 172.89 380.89 181.77C380.89 182.11 380.88 182.44 380.86 182.77C387 184.12 391.51 188.65 391.51 194.02C391.51 194.02 391.51 194.02 391.51 194.02C391.51 200.46 385.03 205.68 377.03 205.68C373.4 205.68 344.35 205.68 340.72 205.68C332.73 205.68 326.25 200.46 326.25 194.02C326.25 194.02 326.25 194.02 326.25 194.02C326.25 188.4 331.17 183.72 337.73 182.61C338.32 176.52 343.24 171.77 349.22 171.77C350.53 171.77 351.79 172 352.97 172.42C355.76 168.34 360.33 165.68 365.5 165.68Z" id="d2bIazT4QV"></path><path d="M331.25 165.68C339.74 165.68 346.64 172.89 346.64 181.77C346.64 182.11 346.63 182.44 346.61 182.77C352.74 184.12 357.26 188.65 357.26 194.02C357.26 194.02 357.26 194.02 357.26 194.02C357.26 200.46 350.78 205.68 342.78 205.68C339.15 205.68 310.1 205.68 306.47 205.68C298.48 205.68 292 200.46 292 194.02C292 194.02 292 194.02 292 194.02C292 188.4 296.92 183.72 303.48 182.61C304.07 176.52 308.99 171.77 314.97 171.77C316.28 171.77 317.54 172 318.72 172.42C321.51 168.34 326.08 165.68 331.25 165.68Z" id="iGTZOHAU"></path><path d="M396.21 175.23C387.71 175.23 380.82 180.72 380.82 187.48C380.82 187.74 380.83 187.99 380.85 188.24C374.71 189.27 370.19 192.71 370.19 196.81C370.19 196.81 370.19 196.81 370.19 196.81C370.19 201.71 376.68 205.68 384.67 205.68C388.3 205.68 417.35 205.68 420.98 205.68C428.98 205.68 435.46 201.71 435.46 196.81C435.46 196.81 435.46 196.81 435.46 196.81C435.46 192.53 430.53 188.96 423.97 188.12C423.38 183.48 418.47 179.86 412.49 179.86C411.17 179.86 409.91 180.04 408.74 180.36C405.94 177.26 401.37 175.23 396.21 175.23Z" id="aAB4Zv8B"></path><path d="M352.37 195.16L341.06 221.44L352.37 221.44L344.29 240.42L375 214.14L358.84 214.14L370.15 195.16L352.37 195.16Z" id="b6krDYpCb"></path><path d="M274.94 292.12C276.61 292.92 277.32 294.93 276.51 296.6C270.64 308.8 254.47 342.36 248.59 354.56C247.78 356.23 245.78 356.93 244.1 356.13C243.5 355.84 244.71 356.42 244.1 356.13C242.43 355.32 241.73 353.31 242.54 351.64C248.41 339.45 264.58 305.88 270.46 293.68C271.26 292.01 273.27 291.31 274.94 292.12C275.55 292.41 274.34 291.82 274.94 292.12Z" id="b2YMEwl5gr"></path><path d="M224.66 309.96C225.43 308.28 227.43 307.54 229.11 308.31C241.42 313.95 275.29 329.46 287.6 335.1C289.29 335.87 290.03 337.87 289.26 339.55C288.98 340.17 289.54 338.94 289.26 339.55C288.49 341.24 286.49 341.98 284.8 341.21C272.5 335.57 238.62 320.06 226.32 314.42C224.63 313.64 223.89 311.65 224.66 309.96C224.94 309.35 224.38 310.57 224.66 309.96Z" id="a1igZy6QP8"></path><path d="M448.54 292.12L505.78 310.82L488.52 366.01L431.27 347.31L448.54 292.12Z" id="a1pkQ3YJuI"></path><path d="M507.62 310.91C508.52 312.98 507.59 315.39 505.54 316.32C490.84 323.01 450.44 341.4 435.75 348.08C433.71 349.01 431.31 348.09 430.42 346.04C430.09 345.29 430.74 346.79 430.42 346.04C429.51 343.97 430.44 341.56 432.49 340.63C447.19 333.94 487.59 315.55 502.29 308.86C504.32 307.94 506.72 308.86 507.62 310.91C507.94 311.65 507.29 310.16 507.62 310.91Z" id="aeVui4opy"></path><path d="M448.26 287.96C450.25 287.01 452.63 287.87 453.55 289.88C460.39 304.78 479.24 345.85 486.09 360.76C487.01 362.78 486.15 365.17 484.14 366.14C483.42 366.48 484.86 365.79 484.14 366.14C482.15 367.09 479.77 366.23 478.85 364.22C472.01 349.32 453.16 308.25 446.31 293.34C445.39 291.32 446.25 288.93 448.26 287.96C448.98 287.62 447.54 288.31 448.26 287.96Z" id="e15OqFjYe"></path><path d="M338.58 302.27L385 292.85L396.36 330L349.94 339.42L338.58 302.27Z" id="c26IC4YkPk"></path><path d="M386.27 292.26C387.67 293.07 388.02 294.93 387.01 296.19C379.9 305.06 360.51 329.27 353.41 338.14C352.3 339.52 350.36 339.88 348.84 339C348.31 338.69 349.37 339.31 348.84 339C347.44 338.19 347.09 336.33 348.1 335.07C355.2 326.2 374.6 301.99 381.7 293.12C382.8 291.74 384.75 291.38 386.27 292.26C386.8 292.57 385.74 291.96 386.27 292.26Z" id="b4cc3f1P5r"></path><path d="M336.65 300.02C337.64 298.73 339.42 298.36 340.84 299.15C351.71 305.19 381.85 321.95 392.72 327.99C394.02 328.71 394.37 330.42 393.47 331.6C393.12 332.05 393.81 331.15 393.47 331.6C392.48 332.89 390.7 333.26 389.28 332.47C378.41 326.43 348.27 309.67 337.4 303.63C336.1 302.91 335.75 301.2 336.65 300.02C337 299.57 336.31 300.47 336.65 300.02Z" id="d2HHDEfqaM"></path></defs><g><g><g><use xlink:href="#b18e9vQwdM" opacity="1" fill="#ff8d00" fill-opacity="1"></use></g><g><use xlink:href="#abODzErs" opacity="1" fill="#ff8d00" fill-opacity="1"></use></g><g><use xlink:href="#a2w1XEhKIX" opacity="1" fill="#ff8d00" fill-opacity="1"></use></g><g><use xlink:href="#c1eI0aC7gq" opacity="1" fill="#ff8d00" fill-opacity="1"></use></g><g><use xlink:href="#e4uiUYgXz7" opacity="1" fill="#ff8d00" fill-opacity="1"></use></g><g><use xlink:href="#a3JlDodagT" opacity="1" fill="#ff8d00" fill-opacity="1"></use></g><g><use xlink:href="#gpT81WcU1" opacity="1" fill="#ffbd27" fill-opacity="1"></use></g><g><use xlink:href="#a99FqcRPpt" opacity="1" fill="#ffbd27" fill-opacity="1"></use></g><g><use xlink:href="#a14KZozgSG" opacity="1" fill="#ffbd27" fill-opacity="1"></use></g><g><use xlink:href="#aLHDwQ9jN" opacity="1" fill="#ff8d00" fill-opacity="1"></use></g><g><use xlink:href="#a5MUHVGqM" opacity="1" fill="#ffbd27" fill-opacity="1"></use></g><g><use xlink:href="#e1lSFh9mlm" opacity="1" fill="#ffbd27" fill-opacity="1"></use></g><g><use xlink:href="#aHi3RQdwx" opacity="1" fill="#ffbd27" fill-opacity="1"></use></g><g><use xlink:href="#a12udo58Hr" opacity="1" fill="#ffbd27" fill-opacity="1"></use></g><g><use xlink:href="#h5wVDQCk9Z" opacity="1" fill="#ffbd27" fill-opacity="1"></use></g><g><use xlink:href="#a23s91DjQ" opacity="1" fill="#ff8d00" fill-opacity="1"></use></g><g><use xlink:href="#a1YfArkUeF" opacity="1" fill="#ffbd27" fill-opacity="1"></use></g><g><use xlink:href="#b2BYveOxeT" opacity="1" fill="#ffbd27" fill-opacity="1"></use></g><g><use xlink:href="#e1gUE2ICDQ" opacity="1" fill="#ffbd27" fill-opacity="1"></use></g><g><use xlink:href="#acFCQnsv3" opacity="1" fill="#ffbd27" fill-opacity="1"></use></g><g><use xlink:href="#d2bIazT4QV" opacity="1" fill="#ffbd27" fill-opacity="1"></use></g><g><use xlink:href="#iGTZOHAU" opacity="1" fill="#ffbd27" fill-opacity="1"></use></g><g><use xlink:href="#aAB4Zv8B" opacity="1" fill="#ffbd27" fill-opacity="1"></use></g><g><use xlink:href="#b6krDYpCb" opacity="1" fill="#ffbd27" fill-opacity="1"></use></g><g><use xlink:href="#b2YMEwl5gr" opacity="1" fill="#ff8d00" fill-opacity="1"></use></g><g><use xlink:href="#a1igZy6QP8" opacity="1" fill="#ff8d00" fill-opacity="1"></use></g><g><use xlink:href="#a1pkQ3YJuI" opacity="1" fill="#ffbd27" fill-opacity="1"></use></g><g><use xlink:href="#aeVui4opy" opacity="1" fill="#ff8d00" fill-opacity="1"></use></g><g><use xlink:href="#e15OqFjYe" opacity="1" fill="#ff8d00" fill-opacity="1"></use></g><g><use xlink:href="#c26IC4YkPk" opacity="1" fill="#ffbd27" fill-opacity="1"></use></g><g><use xlink:href="#b4cc3f1P5r" opacity="1" fill="#ff8d00" fill-opacity="1"></use></g><g><use xlink:href="#d2HHDEfqaM" opacity="1" fill="#ff8d00" fill-opacity="1"></use></g></g></g></svg>