<?xml version="1.0" encoding="UTF-8" standalone="no"?>
<!DOCTYPE svg PUBLIC "-//W3C//DTD SVG 1.1//EN" "http://www.w3.org/Graphics/SVG/1.1/DTD/svg11.dtd">
<svg version="1.1" xmlns="http://www.w3.org/2000/svg" xmlns:xlink="http://www.w3.org/1999/xlink" preserveAspectRatio="xMidYMid meet" viewBox="0 0 640 640" width="640" height="640"><defs><path d="M104.89 150.42C104.89 171.63 87.21 188.84 65.42 188.84C43.63 188.84 25.95 171.63 25.95 150.42C25.95 129.22 43.63 112 65.42 112C87.21 112 104.89 129.22 104.89 150.42Z" id="a1qMtQyiaH"></path><path d="M357.53 112C368.57 112 377.53 120.95 377.53 132C377.53 143.37 377.53 157.47 377.53 168.84C377.53 179.89 368.57 188.84 357.53 188.84C296.26 188.84 132.47 188.84 71.21 188.84C60.16 188.84 51.21 179.89 51.21 168.84C51.21 157.47 51.21 143.37 51.21 132C51.21 120.95 60.16 112 71.21 112C132.47 112 296.26 112 357.53 112Z" id="gccNAauAA"></path><path d="M412.26 150.42C412.26 171.63 393.16 188.84 369.63 188.84C346.1 188.84 327 171.63 327 150.42C327 129.22 346.1 112 369.63 112C393.16 112 412.26 129.22 412.26 150.42Z" id="a3sjKN9ZZo"></path><path d="M201.74 98.32C201.74 123.3 176.03 143.58 144.37 143.58C112.71 143.58 87 123.3 87 98.32C87 73.33 112.71 53.05 144.37 53.05C176.03 53.05 201.74 73.33 201.74 98.32Z" id="bdwto8B6w"></path><path d="M357.53 92C357.53 125.7 314.13 153.05 260.68 153.05C207.24 153.05 163.84 125.7 163.84 92C163.84 58.3 207.24 30.95 260.68 30.95C314.13 30.95 357.53 58.3 357.53 92Z" id="c1grGDWAFR"></path><path d="M547 153.05C547 173.97 527.66 190.95 503.84 190.95C480.02 190.95 460.68 173.97 460.68 153.05C460.68 132.14 480.02 115.16 503.84 115.16C527.66 115.16 547 132.14 547 153.05Z" id="h1oC2Ou1x3"></path><path d="M559.07 114.11C570.43 114.11 579.63 123.31 579.63 134.67C579.63 145.92 579.63 159.13 579.63 170.38C579.63 181.74 570.43 190.95 559.07 190.95C544.23 190.95 520.29 190.95 505.46 190.95C494.1 190.95 484.89 181.74 484.89 170.38C484.89 159.13 484.89 145.92 484.89 134.67C484.89 123.31 494.1 114.11 505.46 114.11C520.29 114.11 544.23 114.11 559.07 114.11Z" id="b8yjGPVgK"></path><path d="M609.11 152.53C609.11 173.73 591.42 190.95 569.63 190.95C547.85 190.95 530.16 173.73 530.16 152.53C530.16 131.32 547.85 114.11 569.63 114.11C591.42 114.11 609.11 131.32 609.11 152.53Z" id="e1s3XBvJYh"></path><path d="M565.95 109.89C565.95 128.49 547.79 143.58 525.42 143.58C503.05 143.58 484.89 128.49 484.89 109.89C484.89 91.3 503.05 76.21 525.42 76.21C547.79 76.21 565.95 91.3 565.95 109.89Z" id="axTYgVgq"></path><path d="M562.53 299.37C573.57 299.37 582.53 308.32 582.53 319.37C582.53 329.89 582.53 341.47 582.53 352C582.53 363.05 573.57 372 562.53 372C526.74 372 439.37 372 403.58 372C392.53 372 383.58 363.05 383.58 352C383.58 341.47 383.58 329.89 383.58 319.37C383.58 308.32 392.53 299.37 403.58 299.37C439.37 299.37 526.74 299.37 562.53 299.37Z" id="aA9q46dJJ"></path><path d="M436.21 335.68C436.21 355.73 418.29 372 396.21 372C374.13 372 356.21 355.73 356.21 335.68C356.21 315.64 374.13 299.37 396.21 299.37C418.29 299.37 436.21 315.64 436.21 335.68Z" id="c2I9NtmwI"></path><path d="M595.16 335.68C595.16 355.73 579.12 372 559.37 372C539.62 372 523.58 355.73 523.58 335.68C523.58 315.64 539.62 299.37 559.37 299.37C579.12 299.37 595.16 315.64 595.16 335.68Z" id="c4DvajtHY"></path><path d="M548.84 295.16C548.84 313.17 517.95 327.79 479.89 327.79C441.84 327.79 410.95 313.17 410.95 295.16C410.95 277.15 441.84 262.53 479.89 262.53C517.95 262.53 548.84 277.15 548.84 295.16Z" id="f60uRx8e8E"></path><path d="M274.11 283.58C285.15 283.58 294.11 292.53 294.11 303.58C294.11 316.21 294.11 334.11 294.11 346.74C294.11 357.78 285.15 366.74 274.11 366.74C227.79 366.74 108.84 366.74 62.53 366.74C51.48 366.74 42.53 357.78 42.53 346.74C42.53 334.11 42.53 316.21 42.53 303.58C42.53 292.53 51.48 283.58 62.53 283.58C108.84 283.58 227.79 283.58 274.11 283.58Z" id="c6x1x6SIxq"></path><path d="M333.37 325.16C333.37 348.11 307.66 366.74 276 366.74C244.34 366.74 218.63 348.11 218.63 325.16C218.63 302.21 244.34 283.58 276 283.58C307.66 283.58 333.37 302.21 333.37 325.16Z" id="cjmvoqn03"></path><path d="M113.05 325.16C113.05 348.11 92.54 366.74 67.26 366.74C41.99 366.74 21.47 348.11 21.47 325.16C21.47 302.21 41.99 283.58 67.26 283.58C92.54 283.58 113.05 302.21 113.05 325.16Z" id="hADIkkhVW"></path><path d="M302.53 286.47C302.53 307.82 282.48 325.16 257.79 325.16C233.1 325.16 213.05 307.82 213.05 286.47C213.05 265.12 233.1 247.79 257.79 247.79C282.48 247.79 302.53 265.12 302.53 286.47Z" id="bGeahOcCq"></path><path d="M241.47 272.53C241.47 297.8 211.76 318.32 175.16 318.32C138.56 318.32 108.84 297.8 108.84 272.53C108.84 247.25 138.56 226.74 175.16 226.74C211.76 226.74 241.47 247.25 241.47 272.53Z" id="c1LVAOshnC"></path><path d="M518.32 497.26C529.36 497.26 538.32 506.22 538.32 517.26C538.32 528.42 538.32 541.89 538.32 553.05C538.32 564.1 529.36 573.05 518.32 573.05C434 573.05 201.05 573.05 116.74 573.05C105.69 573.05 96.74 564.1 96.74 553.05C96.74 541.89 96.74 528.42 96.74 517.26C96.74 506.22 105.69 497.26 116.74 497.26C201.05 497.26 434 497.26 518.32 497.26Z" id="baelqeZBm"></path><path d="M149.89 535.16C149.89 556.07 130.91 573.05 107.53 573.05C84.14 573.05 65.16 556.07 65.16 535.16C65.16 514.24 84.14 497.26 107.53 497.26C130.91 497.26 149.89 514.24 149.89 535.16Z" id="b1I0iwjaPv"></path><path d="M569.37 535.16C569.37 556.07 550.38 573.05 527 573.05C503.62 573.05 484.63 556.07 484.63 535.16C484.63 514.24 503.62 497.26 527 497.26C550.38 497.26 569.37 514.24 569.37 535.16Z" id="jnFa4wwFo"></path><path d="M267.79 484.76C267.73 516.71 235.38 542.6 195.58 542.53C155.79 542.46 123.52 516.46 123.58 484.5C123.64 452.55 155.99 426.67 195.79 426.74C235.58 426.81 267.85 452.81 267.79 484.76Z" id="a3th7MPV6Y"></path><path d="M412 485.95C412 507.3 377.69 524.63 335.42 524.63C293.16 524.63 258.84 507.3 258.84 485.95C258.84 464.6 293.16 447.26 335.42 447.26C377.69 447.26 412 464.6 412 485.95Z" id="aiUTo4Cf8"></path><path d="M486.74 500.42C486.74 523.66 464.57 542.53 437.26 542.53C409.96 542.53 387.79 523.66 387.79 500.42C387.79 477.18 409.96 458.32 437.26 458.32C464.57 458.32 486.74 477.18 486.74 500.42Z" id="b4IXu8owEB"></path></defs><g><g><g><use xlink:href="#a1qMtQyiaH" opacity="1" fill="#dedede" fill-opacity="1"></use></g><g><use xlink:href="#gccNAauAA" opacity="1" fill="#dedede" fill-opacity="1"></use></g><g><use xlink:href="#a3sjKN9ZZo" opacity="1" fill="#dedede" fill-opacity="1"></use></g><g><use xlink:href="#bdwto8B6w" opacity="1" fill="#dedede" fill-opacity="1"></use></g><g><use xlink:href="#c1grGDWAFR" opacity="1" fill="#dedede" fill-opacity="1"></use></g><g><use xlink:href="#h1oC2Ou1x3" opacity="1" fill="#dedede" fill-opacity="1"></use></g><g><use xlink:href="#b8yjGPVgK" opacity="1" fill="#dedede" fill-opacity="1"></use></g><g><use xlink:href="#e1s3XBvJYh" opacity="1" fill="#dedede" fill-opacity="1"></use></g><g><use xlink:href="#axTYgVgq" opacity="1" fill="#dedede" fill-opacity="1"></use></g><g><use xlink:href="#aA9q46dJJ" opacity="1" fill="#dedede" fill-opacity="1"></use></g><g><use xlink:href="#c2I9NtmwI" opacity="1" fill="#dedede" fill-opacity="1"></use></g><g><use xlink:href="#c4DvajtHY" opacity="1" fill="#dedede" fill-opacity="1"></use></g><g><use xlink:href="#f60uRx8e8E" opacity="1" fill="#dedede" fill-opacity="1"></use></g><g><use xlink:href="#c6x1x6SIxq" opacity="1" fill="#dedede" fill-opacity="1"></use></g><g><use xlink:href="#cjmvoqn03" opacity="1" fill="#dedede" fill-opacity="1"></use></g><g><use xlink:href="#hADIkkhVW" opacity="1" fill="#dedede" fill-opacity="1"></use></g><g><use xlink:href="#bGeahOcCq" opacity="1" fill="#dedede" fill-opacity="1"></use></g><g><use xlink:href="#c1LVAOshnC" opacity="1" fill="#dedede" fill-opacity="1"></use></g><g><use xlink:href="#baelqeZBm" opacity="1" fill="#dedede" fill-opacity="1"></use></g><g><use xlink:href="#b1I0iwjaPv" opacity="1" fill="#dedede" fill-opacity="1"></use></g><g><use xlink:href="#jnFa4wwFo" opacity="1" fill="#dedede" fill-opacity="1"></use></g><g><use xlink:href="#a3th7MPV6Y" opacity="1" fill="#dedede" fill-opacity="1"></use></g><g><use xlink:href="#aiUTo4Cf8" opacity="1" fill="#dedede" fill-opacity="1"></use></g><g><use xlink:href="#b4IXu8owEB" opacity="1" fill="#dedede" fill-opacity="1"></use></g></g></g></svg>