<svg id="Layer_1" data-name="Layer 1" xmlns="http://www.w3.org/2000/svg" viewBox="0 0 530 530"><defs><style>.cls-1{fill:#d8b555;}.cls-2{fill:#edd766;}</style></defs><circle class="cls-1" cx="265" cy="265" r="265"/><circle class="cls-2" cx="265" cy="265" r="191.9"/><path class="cls-2" d="M959.5,638.9A13.4,13.4,0,0,1,946,625.4V454.6a13.5,13.5,0,1,1,27,0V625.4A13.5,13.5,0,0,1,959.5,638.9Z" transform="translate(-695 -275)"/><path class="cls-1" d="M959.5,411.1h0A43.5,43.5,0,0,0,916,454.6V625.4a43.5,43.5,0,0,0,43.5,43.5h0a43.5,43.5,0,0,0,43.5-43.5V454.6a43.5,43.5,0,0,0-43.5-43.5Z" transform="translate(-695 -275)"/></svg>