<?xml version="1.0" encoding="UTF-8" standalone="no"?>
<!DOCTYPE svg PUBLIC "-//W3C//DTD SVG 1.1//EN" "http://www.w3.org/Graphics/SVG/1.1/DTD/svg11.dtd">
<svg version="1.1" xmlns="http://www.w3.org/2000/svg" xmlns:xlink="http://www.w3.org/1999/xlink" preserveAspectRatio="xMidYMid meet" viewBox="0 0 640 640" width="640" height="640"><defs><path d="M37.46 44.61L228.19 44.61L228.19 185.68L37.46 185.68L37.46 44.61Z" id="b49BvXynG"></path><path d="M51.05 44.61L228.19 44.61L228.19 170.75L51.05 170.75L51.05 44.61Z" id="c4tRQCV5jz"></path><path d="M64.64 53.32L74.83 53.32L74.83 162.03L64.64 162.03L64.64 53.32Z" id="a33llgAt"></path><path d="M90.11 53.32L100.3 53.32L100.3 162.03L90.11 162.03L90.11 53.32Z" id="a6Cn6HcHeD"></path><path d="M116.44 53.32L126.63 53.32L126.63 162.03L116.44 162.03L116.44 53.32Z" id="e5RvbQ7idM"></path><path d="M143.61 53.32L153.8 53.32L153.8 162.03L143.61 162.03L143.61 53.32Z" id="bfTBno96D"></path><path d="M170.78 53.32L180.97 53.32L180.97 162.03L170.78 162.03L170.78 53.32Z" id="bPh18UiId"></path><path d="M198.81 53.32L209 53.32L209 162.03L198.81 162.03L198.81 53.32Z" id="g7jYL1QhB"></path><path d="M232.12 36.73C234.26 36.73 236 38.46 236 40.6C236 42.98 236 45.46 236 47.65C236 50.32 233.83 52.49 231.15 52.49C191.7 52.49 76.64 52.49 36.8 52.49C35.2 52.49 33.89 51.19 33.89 49.58C33.89 47.01 33.89 42.21 33.89 39.63C33.89 38.03 35.2 36.73 36.8 36.73C76.64 36.73 192.48 36.73 232.12 36.73Z" id="a23YTXJxEz"></path><path d="M269.04 45.02L459.77 45.02L459.77 186.1L269.04 186.1L269.04 45.02Z" id="ajSIjClh1"></path><path d="M282.63 45.02L459.77 45.02L459.77 171.16L282.63 171.16L282.63 45.02Z" id="a13olaMO1u"></path><path d="M296.21 53.74L306.4 53.74L306.4 162.45L296.21 162.45L296.21 53.74Z" id="b3str9QFKl"></path><path d="M321.69 53.74L331.88 53.74L331.88 162.45L321.69 162.45L321.69 53.74Z" id="cu3X0V2H1"></path><path d="M348.01 53.74L358.2 53.74L358.2 162.45L348.01 162.45L348.01 53.74Z" id="bAZftDfmQ"></path><path d="M375.19 53.74L385.38 53.74L385.38 162.45L375.19 162.45L375.19 53.74Z" id="b2MQA2l8e5"></path><path d="M402.36 53.74L412.55 53.74L412.55 162.45L402.36 162.45L402.36 53.74Z" id="apmiqbTSg"></path><path d="M430.38 53.74L440.57 53.74L440.57 162.45L430.38 162.45L430.38 53.74Z" id="dBOiPIDX"></path><path d="M463.7 36.73C465.84 36.73 467.58 38.46 467.58 40.6C467.58 42.98 467.58 45.46 467.58 47.65C467.58 50.32 465.41 52.49 462.73 52.49C423.28 52.49 308.22 52.49 268.38 52.49C266.78 52.49 265.47 51.19 265.47 49.58C265.47 47.01 265.47 42.21 265.47 39.63C265.47 38.03 266.78 36.73 268.38 36.73C308.22 36.73 424.06 36.73 463.7 36.73Z" id="bAVdEePTt"></path><path d="M37.46 240.4L228.19 240.4L228.19 381.47L37.46 381.47L37.46 240.4Z" id="gYAB7ZsLx"></path><path d="M51.05 240.4L228.19 240.4L228.19 366.54L51.05 366.54L51.05 240.4Z" id="c1x6m90HC1"></path><path d="M64.64 249.11L74.83 249.11L74.83 357.82L64.64 357.82L64.64 249.11Z" id="b2IGlQB7Jr"></path><path d="M90.11 249.11L100.3 249.11L100.3 357.82L90.11 357.82L90.11 249.11Z" id="a1WNIUXCth"></path><path d="M116.44 249.11L126.63 249.11L126.63 357.82L116.44 357.82L116.44 249.11Z" id="a99rg4ZMz"></path><path d="M143.61 249.11L153.8 249.11L153.8 357.82L143.61 357.82L143.61 249.11Z" id="bxg5pU7ny"></path><path d="M170.78 249.11L180.97 249.11L180.97 357.82L170.78 357.82L170.78 249.11Z" id="a4LIiLGTs"></path><path d="M198.81 249.11L209 249.11L209 357.82L198.81 357.82L198.81 249.11Z" id="hyVdxiAUa"></path><path d="M232.12 227.79C234.26 227.79 236 229.53 236 231.67C236 234.05 236 236.53 236 238.71C236 241.39 233.83 243.56 231.15 243.56C191.7 243.56 76.64 243.56 36.8 243.56C35.2 243.56 33.89 242.25 33.89 240.65C33.89 238.08 33.89 233.27 33.89 230.7C33.89 229.09 35.2 227.79 36.8 227.79C76.64 227.79 192.48 227.79 232.12 227.79Z" id="l2wHsN3Vk6"></path><path d="M269.04 240.81L459.77 240.81L459.77 381.89L269.04 381.89L269.04 240.81Z" id="a5zsbpoWqZ"></path><path d="M282.63 240.81L459.77 240.81L459.77 366.95L282.63 366.95L282.63 240.81Z" id="d7VOiLO2PK"></path><path d="M296.21 249.53L306.4 249.53L306.4 358.24L296.21 358.24L296.21 249.53Z" id="bifzJGSfP"></path><path d="M321.69 249.53L331.88 249.53L331.88 358.24L321.69 358.24L321.69 249.53Z" id="a14iIsWjEl"></path><path d="M348.01 249.11L358.2 249.11L358.2 357.82L348.01 357.82L348.01 249.11Z" id="c1zfr9OK3P"></path><path d="M375.19 249.53L385.38 249.53L385.38 358.24L375.19 358.24L375.19 249.53Z" id="a1DRKmKGBx"></path><path d="M402.36 249.53L412.55 249.53L412.55 358.24L402.36 358.24L402.36 249.53Z" id="cxgexQmD"></path><path d="M430.38 249.53L440.57 249.53L440.57 358.24L430.38 358.24L430.38 249.53Z" id="e1FJgu3ioA"></path><path d="M463.7 227.79C465.84 227.79 467.58 229.53 467.58 231.67C467.58 234.05 467.58 236.53 467.58 238.71C467.58 241.39 465.41 243.56 462.73 243.56C423.28 243.56 308.22 243.56 268.38 243.56C266.78 243.56 265.47 242.25 265.47 240.65C265.47 238.08 265.47 233.27 265.47 230.7C265.47 229.09 266.78 227.79 268.38 227.79C308.22 227.79 424.06 227.79 463.7 227.79Z" id="b2uw42k7Bo"></path><path d="M37.46 444.61L228.19 444.61L228.19 585.68L37.46 585.68L37.46 444.61Z" id="d3O1MBw9N4"></path><path d="M51.05 444.61L228.19 444.61L228.19 570.75L51.05 570.75L51.05 444.61Z" id="anMiweQBm"></path><path d="M64.64 453.32L74.83 453.32L74.83 562.03L64.64 562.03L64.64 453.32Z" id="b22P1uvuR1"></path><path d="M90.11 453.32L100.3 453.32L100.3 562.03L90.11 562.03L90.11 453.32Z" id="c1MQldlPVw"></path><path d="M116.44 453.32L126.63 453.32L126.63 562.03L116.44 562.03L116.44 453.32Z" id="a1IPTnx0jB"></path><path d="M143.61 453.32L153.8 453.32L153.8 562.03L143.61 562.03L143.61 453.32Z" id="aLrHtLfHb"></path><path d="M170.78 453.32L180.97 453.32L180.97 562.03L170.78 562.03L170.78 453.32Z" id="e2CVBgkA4W"></path><path d="M198.81 453.32L209 453.32L209 562.03L198.81 562.03L198.81 453.32Z" id="a2T5ksWKJx"></path><path d="M232.12 428.84C234.26 428.84 236 430.58 236 432.72C236 435.1 236 437.58 236 439.76C236 442.44 233.83 444.61 231.15 444.61C191.7 444.61 76.64 444.61 36.8 444.61C35.2 444.61 33.89 443.31 33.89 441.7C33.89 439.13 33.89 434.32 33.89 431.75C33.89 430.14 35.2 428.84 36.8 428.84C76.64 428.84 192.48 428.84 232.12 428.84Z" id="c8fryDRHxC"></path><path d="M269.04 445.02L459.77 445.02L459.77 586.1L269.04 586.1L269.04 445.02Z" id="cGhegPBsT"></path><path d="M282.63 445.02L459.77 445.02L459.77 571.16L282.63 571.16L282.63 445.02Z" id="d1VISg2bB3"></path><path d="M296.21 453.74L306.4 453.74L306.4 562.45L296.21 562.45L296.21 453.74Z" id="c7qsN5oQZ"></path><path d="M321.69 453.74L331.88 453.74L331.88 562.45L321.69 562.45L321.69 453.74Z" id="a4ayoavMi"></path><path d="M348.01 453.74L358.2 453.74L358.2 562.45L348.01 562.45L348.01 453.74Z" id="af9xmAdFA"></path><path d="M375.19 453.74L385.38 453.74L385.38 562.45L375.19 562.45L375.19 453.74Z" id="aiI5Tm02n"></path><path d="M402.36 453.74L412.55 453.74L412.55 562.45L402.36 562.45L402.36 453.74Z" id="aSrnu3v3u"></path><path d="M430.38 453.74L440.57 453.74L440.57 562.45L430.38 562.45L430.38 453.74Z" id="a1hB7Y55f"></path><path d="M463.7 428.84C465.84 428.84 467.58 430.58 467.58 432.72C467.58 435.1 467.58 437.58 467.58 439.76C467.58 442.44 465.41 444.61 462.73 444.61C423.28 444.61 308.22 444.61 268.38 444.61C266.78 444.61 265.47 443.31 265.47 441.7C265.47 439.13 265.47 434.32 265.47 431.75C265.47 430.14 266.78 428.84 268.38 428.84C308.22 428.84 424.06 428.84 463.7 428.84Z" id="a5McKVZgR"></path><path d="M499.37 90.95L614.11 90.95L614.11 185.68L499.37 185.68L499.37 90.95Z" id="b2aX8W4NOr"></path><path d="M509.89 90.95L614.11 90.95L614.11 170.75L509.89 170.75L509.89 90.95Z" id="e4AYDQj61o"></path><path d="M530.95 90.95L541.47 90.95L541.47 162.03L530.95 162.03L530.95 90.95Z" id="ascuUycOP"></path><path d="M562 90.95L573.05 90.95L573.05 162.03L562 162.03L562 90.95Z" id="bi9zGdiv7"></path><path d="M589.89 90.95L600.42 90.95L600.42 162.03L589.89 162.03L589.89 90.95Z" id="exYxczrkW"></path><path d="M612.85 83.05C615.58 83.05 617.79 85.26 617.79 87.99C617.79 90.16 617.79 92.86 617.79 95.32C617.79 97.26 616.21 98.84 614.26 98.84C590.55 98.84 524.06 98.84 500.62 98.84C497.9 98.84 495.68 96.63 495.68 93.9C495.68 91.73 495.68 90.54 495.68 88.46C495.68 85.48 498.11 83.05 501.1 83.05C524.43 83.05 589.42 83.05 612.85 83.05Z" id="b61TfPa51"></path><path d="M499.37 235.68L614.11 235.68L614.11 330.42L499.37 330.42L499.37 235.68Z" id="a10uRQXNa8"></path><path d="M509.89 235.68L614.11 235.68L614.11 315.48L509.89 315.48L509.89 235.68Z" id="cW8kOnJZF"></path><path d="M530.95 235.68L541.47 235.68L541.47 306.77L530.95 306.77L530.95 235.68Z" id="b1YSuPzb8g"></path><path d="M562 235.68L573.05 235.68L573.05 306.77L562 306.77L562 235.68Z" id="crEiykI6m"></path><path d="M589.89 235.68L600.42 235.68L600.42 306.77L589.89 306.77L589.89 235.68Z" id="a3L0gmBhY"></path><path d="M612.85 227.79C615.58 227.79 617.79 230 617.79 232.73C617.79 234.9 617.79 237.6 617.79 240.05C617.79 242 616.21 243.58 614.26 243.58C590.55 243.58 524.06 243.58 500.62 243.58C497.9 243.58 495.68 241.37 495.68 238.64C495.68 236.47 495.68 235.28 495.68 233.2C495.68 230.21 498.11 227.79 501.1 227.79C524.43 227.79 589.42 227.79 612.85 227.79Z" id="c8x79FJrv"></path><path d="M499.37 389.37L614.11 389.37L614.11 484.11L499.37 484.11L499.37 389.37Z" id="afiML1NmS"></path><path d="M509.89 389.37L614.11 389.37L614.11 469.17L509.89 469.17L509.89 389.37Z" id="c1jX0XqkI8"></path><path d="M589.89 389.37L600.42 389.37L600.42 460.45L589.89 460.45L589.89 389.37Z" id="a5Aae1SohF"></path><path d="M562 389.37L573.05 389.37L573.05 460.45L562 460.45L562 389.37Z" id="pkbgzprzN"></path><path d="M612.85 381.47C615.58 381.47 617.79 383.69 617.79 386.41C617.79 388.58 617.79 391.28 617.79 393.74C617.79 395.68 616.21 397.26 614.26 397.26C590.55 397.26 524.06 397.26 500.62 397.26C497.9 397.26 495.68 395.05 495.68 392.32C495.68 390.15 495.68 388.96 495.68 386.89C495.68 383.9 498.11 381.47 501.1 381.47C524.43 381.47 589.42 381.47 612.85 381.47Z" id="e3ZUzxXa9t"></path><path d="M530.95 389.37L541.47 389.37L541.47 460.45L530.95 460.45L530.95 389.37Z" id="i2nfsikFIX"></path></defs><g><g><g><use xlink:href="#b49BvXynG" opacity="1" fill="#508bff" fill-opacity="1"></use></g><g><use xlink:href="#c4tRQCV5jz" opacity="1" fill="#58a6f9" fill-opacity="1"></use></g><g><use xlink:href="#a33llgAt" opacity="1" fill="#508bff" fill-opacity="1"></use></g><g><use xlink:href="#a6Cn6HcHeD" opacity="1" fill="#508bff" fill-opacity="1"></use></g><g><use xlink:href="#e5RvbQ7idM" opacity="1" fill="#508bff" fill-opacity="1"></use></g><g><use xlink:href="#bfTBno96D" opacity="1" fill="#508bff" fill-opacity="1"></use></g><g><use xlink:href="#bPh18UiId" opacity="1" fill="#508bff" fill-opacity="1"></use></g><g><use xlink:href="#g7jYL1QhB" opacity="1" fill="#508bff" fill-opacity="1"></use></g><g><use xlink:href="#a23YTXJxEz" opacity="1" fill="#1d68f9" fill-opacity="1"></use></g><g><use xlink:href="#ajSIjClh1" opacity="1" fill="#1de169" fill-opacity="1"></use></g><g><use xlink:href="#a13olaMO1u" opacity="1" fill="#4dff92" fill-opacity="1"></use></g><g><use xlink:href="#b3str9QFKl" opacity="1" fill="#1de169" fill-opacity="1"></use></g><g><use xlink:href="#cu3X0V2H1" opacity="1" fill="#1de169" fill-opacity="1"></use></g><g><use xlink:href="#bAZftDfmQ" opacity="1" fill="#1de169" fill-opacity="1"></use></g><g><use xlink:href="#b2MQA2l8e5" opacity="1" fill="#1de169" fill-opacity="1"></use></g><g><use xlink:href="#apmiqbTSg" opacity="1" fill="#1de169" fill-opacity="1"></use></g><g><use xlink:href="#dBOiPIDX" opacity="1" fill="#1de169" fill-opacity="1"></use></g><g><use xlink:href="#bAVdEePTt" opacity="1" fill="#18b655" fill-opacity="1"></use></g><g><use xlink:href="#gYAB7ZsLx" opacity="1" fill="#ff8050" fill-opacity="1"></use></g><g><use xlink:href="#c1x6m90HC1" opacity="1" fill="#f9ac58" fill-opacity="1"></use></g><g><use xlink:href="#b2IGlQB7Jr" opacity="1" fill="#ff8050" fill-opacity="1"></use></g><g><use xlink:href="#a1WNIUXCth" opacity="1" fill="#ff8050" fill-opacity="1"></use></g><g><use xlink:href="#a99rg4ZMz" opacity="1" fill="#ff8050" fill-opacity="1"></use></g><g><use xlink:href="#bxg5pU7ny" opacity="1" fill="#ff8050" fill-opacity="1"></use></g><g><use xlink:href="#a4LIiLGTs" opacity="1" fill="#ff8050" fill-opacity="1"></use></g><g><use xlink:href="#hyVdxiAUa" opacity="1" fill="#ff8050" fill-opacity="1"></use></g><g><use xlink:href="#l2wHsN3Vk6" opacity="1" fill="#f65f26" fill-opacity="1"></use></g><g><use xlink:href="#a5zsbpoWqZ" opacity="1" fill="#e1c81d" fill-opacity="1"></use></g><g><use xlink:href="#d7VOiLO2PK" opacity="1" fill="#ffee4d" fill-opacity="1"></use></g><g><use xlink:href="#bifzJGSfP" opacity="1" fill="#e1c81d" fill-opacity="1"></use></g><g><use xlink:href="#a14iIsWjEl" opacity="1" fill="#e1c81d" fill-opacity="1"></use></g><g><use xlink:href="#c1zfr9OK3P" opacity="1" fill="#e1c81d" fill-opacity="1"></use></g><g><use xlink:href="#a1DRKmKGBx" opacity="1" fill="#e1c81d" fill-opacity="1"></use></g><g><use xlink:href="#cxgexQmD" opacity="1" fill="#e1c81d" fill-opacity="1"></use></g><g><use xlink:href="#e1FJgu3ioA" opacity="1" fill="#e1c81d" fill-opacity="1"></use></g><g><use xlink:href="#b2uw42k7Bo" opacity="1" fill="#ab970e" fill-opacity="1"></use></g><g><use xlink:href="#d3O1MBw9N4" opacity="1" fill="#6600ff" fill-opacity="1"></use></g><g><use xlink:href="#anMiweQBm" opacity="1" fill="#7b63ff" fill-opacity="1"></use></g><g><use xlink:href="#b22P1uvuR1" opacity="1" fill="#6600ff" fill-opacity="1"></use></g><g><use xlink:href="#c1MQldlPVw" opacity="1" fill="#6600ff" fill-opacity="1"></use></g><g><use xlink:href="#a1IPTnx0jB" opacity="1" fill="#6600ff" fill-opacity="1"></use></g><g><use xlink:href="#aLrHtLfHb" opacity="1" fill="#6600ff" fill-opacity="1"></use></g><g><use xlink:href="#e2CVBgkA4W" opacity="1" fill="#6600ff" fill-opacity="1"></use></g><g><use xlink:href="#a2T5ksWKJx" opacity="1" fill="#6600ff" fill-opacity="1"></use></g><g><use xlink:href="#c8fryDRHxC" opacity="1" fill="#6600ff" fill-opacity="1"></use></g><g><use xlink:href="#cGhegPBsT" opacity="1" fill="#00ccff" fill-opacity="1"></use></g><g><use xlink:href="#d1VISg2bB3" opacity="1" fill="#4de8ff" fill-opacity="1"></use></g><g><use xlink:href="#c7qsN5oQZ" opacity="1" fill="#00ccff" fill-opacity="1"></use></g><g><use xlink:href="#a4ayoavMi" opacity="1" fill="#00ccff" fill-opacity="1"></use></g><g><use xlink:href="#af9xmAdFA" opacity="1" fill="#00ccff" fill-opacity="1"></use></g><g><use xlink:href="#aiI5Tm02n" opacity="1" fill="#00ccff" fill-opacity="1"></use></g><g><use xlink:href="#aSrnu3v3u" opacity="1" fill="#00ccff" fill-opacity="1"></use></g><g><use xlink:href="#a1hB7Y55f" opacity="1" fill="#00ccff" fill-opacity="1"></use></g><g><use xlink:href="#a5McKVZgR" opacity="1" fill="#00ccff" fill-opacity="1"></use></g><g><use xlink:href="#b2aX8W4NOr" opacity="1" fill="#ff4d62" fill-opacity="1"></use></g><g><use xlink:href="#e4AYDQj61o" opacity="1" fill="#fb7d8d" fill-opacity="1"></use></g><g><use xlink:href="#ascuUycOP" opacity="1" fill="#ff4d62" fill-opacity="1"></use></g><g><use xlink:href="#bi9zGdiv7" opacity="1" fill="#ff4d62" fill-opacity="1"></use></g><g><use xlink:href="#exYxczrkW" opacity="1" fill="#ff4d62" fill-opacity="1"></use></g><g><use xlink:href="#b61TfPa51" opacity="1" fill="#ff4d62" fill-opacity="1"></use></g><g><use xlink:href="#a10uRQXNa8" opacity="1" fill="#00edb9" fill-opacity="1"></use></g><g><use xlink:href="#cW8kOnJZF" opacity="1" fill="#86ffe4" fill-opacity="1"></use></g><g><use xlink:href="#b1YSuPzb8g" opacity="1" fill="#00edb9" fill-opacity="1"></use></g><g><use xlink:href="#crEiykI6m" opacity="1" fill="#00edb9" fill-opacity="1"></use></g><g><use xlink:href="#a3L0gmBhY" opacity="1" fill="#00edb9" fill-opacity="1"></use></g><g><use xlink:href="#c8x79FJrv" opacity="1" fill="#00edb9" fill-opacity="1"></use></g><g><use xlink:href="#afiML1NmS" opacity="1" fill="#ff2fe1" fill-opacity="1"></use></g><g><use xlink:href="#c1jX0XqkI8" opacity="1" fill="#ff75eb" fill-opacity="1"></use></g><g><use xlink:href="#a5Aae1SohF" opacity="1" fill="#ff2fe1" fill-opacity="1"></use></g><g><use xlink:href="#pkbgzprzN" opacity="1" fill="#ff2fe1" fill-opacity="1"></use></g><g><use xlink:href="#e3ZUzxXa9t" opacity="1" fill="#ff2fe1" fill-opacity="1"></use></g><g><use xlink:href="#i2nfsikFIX" opacity="1" fill="#ff2fe1" fill-opacity="1"></use></g></g></g></svg>