<svg id="Layer_1" data-name="Layer 1" xmlns="http://www.w3.org/2000/svg" viewBox="0 0 584.68 858.62"><defs><style>.cls-1{fill:#906dc6;}.cls-2{fill:#7355ad;}.cls-3{fill:#a089ce;}</style></defs><path class="cls-1" d="M1131.5,619.5c-30-10-36-69-107-68l-1.11,0c-26,.68-46.25,12.67-61.91,30.57C944.77,601.18,933.33,627,925.88,653a314.41,314.41,0,0,0-9.24,44.49c0,.34-.1.69-.14,1-4.54,34.6,23.74,82.07,37.39,129.64,6.49,22.63,9.67,45.28,4.43,66.58A84.26,84.26,0,0,1,938.5,931.5c-64,71-209-24-195-127,3.32-24.4,8.21-52,13.43-80.89,5.84-32.31,12.1-66.23,17.05-99.07,6.13-40.65,10.24-79.64,9.07-111.92a188.19,188.19,0,0,0-4.41-36.29q-1-4.06-2.14-7.83a189.84,189.84,0,0,0-22.38-47,212.17,212.17,0,0,0-35.54-41.24,198.5,198.5,0,0,0-18.13-14.54c-10-7.06-19.69-14.48-29-22.37-19.65-16.6-48.67-42.79-67.44-67.27-11.21-14.6-18.76-28.6-18.49-39.58,0-1.1.09-2.21.2-3.32,3.82-40.17,57.48-83.45,45.8-2.68-12,83,75,98,75,86s38-43,48-69c7.87-20.47-30.75-3.12-33.86-48.53-.84-12.25.91-29.09,6.86-52.47q1-3.94,2-7.48c26.88-96.48,44.73,26.08,74,91.48,30,67-64,65-67,110C734,377.35,819.42,443,841.65,422.24c4.92-4.6,6.75-13.43,3.85-27.74-1.16-5.7-2-11.25-2.59-16.65-7.55-69.46,28.81-114.44,31.59-141.35,3-29-43-38-20-70,11-15.27,30.6,4.3,43.89,33.5a161.74,161.74,0,0,1,11.81,37.33c4.21,23.11,2.38,46.08-10.7,60.17-39,42-29,103,31.84-9s-22.84-132,49.16-183c32.07-22.72,41.72,6,39.2,48-1.16,19.44-4.93,41.75-10.28,63.16-9.06,36.25-22.67,69.93-35.92,82.83-38,37-77,181-42.16,144.57s137.16-3.57,118.16,35.43-46-17-84-13-34,80,10,57c34.51-18,105.93-9.63,150.57,16.56,12.28,7.19,22.53,15.74,29.43,25.44a104.86,104.86,0,0,1,9.48,15.87C1180.84,614.86,1157.69,628.23,1131.5,619.5Z" transform="translate(-585.49 -97.5)"/><path class="cls-2" d="M803,671.5a52.52,52.52,0,0,1-46.07,52.11c5.84-32.31,12.1-66.23,17.05-99.07A52.48,52.48,0,0,1,803,671.5Z" transform="translate(-585.49 -97.5)"/><circle class="cls-2" cx="280.51" cy="441.5" r="31"/><path class="cls-2" d="M958.32,894.72A47.57,47.57,0,0,1,928.5,905c-25.13,0-45.5-18.8-45.5-42s20.37-42,45.5-42a48,48,0,0,1,25.39,7.14C960.38,850.77,963.56,873.42,958.32,894.72Z" transform="translate(-585.49 -97.5)"/><path class="cls-2" d="M760,402.5a32.69,32.69,0,0,1-5.88,19,212.17,212.17,0,0,0-35.54-41.24A22.84,22.84,0,0,1,735,373C748.81,373,760,386.21,760,402.5Z" transform="translate(-585.49 -97.5)"/><path class="cls-2" d="M910.2,237.33A20.5,20.5,0,1,1,898.39,200,161.74,161.74,0,0,1,910.2,237.33Z" transform="translate(-585.49 -97.5)"/><path class="cls-2" d="M886,400.5a27.51,27.51,0,0,1-44.35,21.74c4.92-4.6,6.75-13.43,3.85-27.74-1.16-5.7-2-11.25-2.59-16.65A27.5,27.5,0,0,1,886,400.5Z" transform="translate(-585.49 -97.5)"/><path class="cls-2" d="M1023.39,551.53c-26,.68-46.25,12.67-61.91,30.57a35,35,0,0,1,61.91-30.57Z" transform="translate(-585.49 -97.5)"/><path class="cls-2" d="M759,169.5A30.5,30.5,0,0,1,720.64,199c-.84-12.25.91-29.09,6.86-52.47q1-3.94,2-7.48A30.5,30.5,0,0,1,759,169.5Z" transform="translate(-585.49 -97.5)"/><circle class="cls-3" cx="231.01" cy="717" r="39.5"/><path class="cls-3" d="M925.88,653a314.41,314.41,0,0,0-9.24,44.49A32.5,32.5,0,1,1,925.88,653Z" transform="translate(-585.49 -97.5)"/><path class="cls-3" d="M815,493a22,22,0,0,1-22,22,21.74,21.74,0,0,1-10-2.38,188.19,188.19,0,0,0-4.41-36.29A22,22,0,0,1,815,493Z" transform="translate(-585.49 -97.5)"/><path class="cls-3" d="M1019.7,153.51c-1.16,19.44-4.93,41.75-10.28,63.16A32,32,0,0,1,1014,153,31.55,31.55,0,0,1,1019.7,153.51Z" transform="translate(-585.49 -97.5)"/><path class="cls-3" d="M1165,581.37a33.53,33.53,0,0,1-38.91-41.31c12.28,7.19,22.53,15.74,29.43,25.44A104.86,104.86,0,0,1,1165,581.37Z" transform="translate(-585.49 -97.5)"/><path class="cls-3" d="M621,253.5a23.49,23.49,0,0,1-17,22.58c-11.21-14.6-18.76-28.6-18.49-39.58,0-1.1.09-2.21.2-3.32A23.5,23.5,0,0,1,621,253.5Z" transform="translate(-585.49 -97.5)"/></svg>