<svg id="Layer_1" data-name="Layer 1" xmlns="http://www.w3.org/2000/svg" viewBox="0 0 554.11 395.17"><defs><style>.cls-1{fill:#d5d2bf;}.cls-2{fill:#67554e;}.cls-3{fill:#c4bfab;}.cls-4{fill:#64554a;}.cls-5{fill:#614e46;}.cls-6,.cls-9{fill:none;stroke-linecap:round;stroke-miterlimit:10;}.cls-6{stroke:#c4bfab;stroke-width:5px;}.cls-7{fill:#4c4139;}.cls-8{fill:#8ed4db;}.cls-9{stroke:#fff;stroke-width:4px;opacity:0.55;}.cls-10{fill:#e5dfbd;}.cls-11{fill:#c4bd99;}</style></defs><path class="cls-1" d="M510.09,360.36c-24.44,4.25-48,16.7-60.54,16.63-43.11-.23-64.32-9.31-109.24-7a300,300,0,0,0-36,4.07q2-86.2,4-172.41c-1.23,43.1,11,63.15,22.76,73.47,12.23,10.74,23,10.13,46.88,26.66,18.54,12.83,26.21,23,35.92,32C430.17,348.87,461.47,354,510.09,360.36Z" transform="translate(-69.21 -188.34)"/><path class="cls-2" d="M211.61,530a3,3,0,0,1,.52-.07A917.56,917.56,0,0,0,384.44,499.6a916.1,916.1,0,0,0,151.89-56.91,5.8,5.8,0,0,0,3.3-5.24,114,114,0,0,1,32.82-80.19,5.69,5.69,0,0,0,.78-1L580.94,344,201.12,437.29c-3.48.86-14.51,22.64-13.14,25.95l20.44,9.25a16.8,16.8,0,0,1-1.9,16.26l-13,17.92a5.8,5.8,0,0,0-.81,5.27S204.67,531.33,211.61,530Z" transform="translate(-69.21 -188.34)"/><path class="cls-3" d="M298.58,233.4l-.64,138.23s61.88-3,80.32-1c-6.73-8.42-6.08-20-20.28-34.3-18.32-18.47-36.57-23.38-44-33.2C304.74,290.89,295.45,270.1,298.58,233.4Z" transform="translate(-69.21 -188.34)"/><path class="cls-1" d="M297.51,210.21c-13.18,34.21-16.5,60.87-17,79.29-.22,8.59.06,19.85-3.17,35.38a151.27,151.27,0,0,1-14.22,39.5,2,2,0,0,0,2.4,2.75,26.38,26.38,0,0,1,16.94-.84c4.21,1.28,14.08,4.1,16,5.82C300.45,318.35,295.58,264,297.51,210.21Z" transform="translate(-69.21 -188.34)"/><path class="cls-4" d="M396.29,490.22" transform="translate(-69.21 -188.34)"/><path class="cls-3" d="M299.25,247.79q-4.77,34.66-11.72,71.82-4.45,23.52-9.41,45.79c4.53,2,15.28,4.21,19.82,6.23Z" transform="translate(-69.21 -188.34)"/><path class="cls-5" d="M298.16,194.28l-5.11,223.28,12.78.38,2.65-213.7.12-9.5c0-3.6-2.49-6.53-5.51-6.39C300.38,188.47,298.23,191.05,298.16,194.28Z" transform="translate(-69.21 -188.34)"/><path class="cls-6" d="M325.12,283.92c24.31,8.05,38.06,19.81,46.21,29.41,9.14,10.77,12.17,19.92,24.65,30.9A91.18,91.18,0,0,0,427.23,362" transform="translate(-69.21 -188.34)"/><ellipse class="cls-7" cx="275.58" cy="471.8" rx="27.85" ry="27.1" transform="translate(-204.05 -77.24) rotate(-18.4)"/><path class="cls-8" d="M294.76,465.42a19.25,19.25,0,0,1-.29,13l-9.75-.17a.21.21,0,0,0-.19.31l4.56,7.71a20.79,20.79,0,0,1-8.85,4.68,20,20,0,0,1-23.42-11.56c-4.3-10.63,1.54-22.58,12.55-26.24a20.59,20.59,0,0,1,9.12-.9s.11,8.33.94,8.5l6.8-5.85A19.27,19.27,0,0,1,294.76,465.42Z" transform="translate(-69.21 -188.34)"/><ellipse class="cls-7" cx="371.5" cy="446.73" rx="27.1" ry="27.85" transform="translate(-278.72 256.36) rotate(-50.05)"/><path class="cls-8" d="M356,433.74a19.29,19.29,0,0,1,5.11-4.3,18.84,18.84,0,0,1,8.44-2.37l.31,0a23.11,23.11,0,0,1,5.19.31l.11,0a16.39,16.39,0,0,1,3.58,1,21,21,0,0,1,6.59,4.35,20,20,0,0,1,2.45,26c-6.79,9.24-20,10.54-28.92,3.09a20.55,20.55,0,0,1-5.55-7.29s7-4.46,6.74-5.27l-8.55-2.71A19.29,19.29,0,0,1,356,433.74Z" transform="translate(-69.21 -188.34)"/><ellipse class="cls-7" cx="469.03" cy="414.86" rx="27.85" ry="27.1" transform="translate(-226.33 220.16) rotate(-40.91)"/><path class="cls-8" d="M453.75,428.1a19.18,19.18,0,0,1-4.7-12.1l9.07-3.57a.21.21,0,0,0,.05-.36L451,406.69A20.65,20.65,0,0,1,457.4,399a20,20,0,0,1,26.05,1.71c8.05,8.17,7.23,21.45-1.54,29a20.67,20.67,0,0,1-8.08,4.33s-3.29-7.65-4.13-7.5l-4,8A19.23,19.23,0,0,1,453.75,428.1Z" transform="translate(-69.21 -188.34)"/><line class="cls-9" x1="390.75" y1="232.79" x2="400.63" y2="214.15"/><line class="cls-9" x1="401.15" y1="237.01" x2="411.04" y2="218.36"/><line class="cls-9" x1="292.63" y1="266.01" x2="302.52" y2="247.36"/><line class="cls-9" x1="303.04" y1="270.23" x2="312.93" y2="251.58"/><line class="cls-9" x1="196.03" y1="290.12" x2="205.92" y2="271.47"/><line class="cls-9" x1="206.44" y1="294.34" x2="216.33" y2="275.69"/><path class="cls-7" d="M190.17,437.48,577.46,334.87c4.42-1.18,8.79.82,9.75,4.45h0c1,3.63-1.84,7.52-6.27,8.69L193.65,450.63c-4.42,1.17-8.79-.82-9.75-4.45h0C182.94,442.55,185.74,438.65,190.17,437.48Z" transform="translate(-69.21 -188.34)"/><path class="cls-10" d="M618.38,559.05a5.31,5.31,0,0,0,3.94-8.39,343.09,343.09,0,0,1-22.49-36.06c-17.88-33.09-17.17-44.92-24.64-56.32-20.44-31.19-78.23-22.55-224.24-7-121.25,12.89-139.74,13.12-176.1,29-47,20.58-81.27,48.72-104.06,71.31a5.32,5.32,0,0,0,2.54,9,896.79,896.79,0,0,0,135.83,20.92c77.55,5.81,124.21-1.05,331.72-16.72C573.25,562.3,600.25,560.35,618.38,559.05Z" transform="translate(-69.21 -188.34)"/><path class="cls-11" d="M535.12,418.53c-14.63-3-27.48,15.74-24.64,23.76,3.5,9.88,34,12.39,39.6,1.76C553.91,436.74,547.05,421,535.12,418.53Z" transform="translate(-69.21 -188.34)"/><path class="cls-11" d="M288.68,446.73C275.31,440,253.44,460.48,254.14,469c.87,10.45,55.13,6.54,63.22-2.32C322.93,460.53,299.59,452.18,288.68,446.73Z" transform="translate(-69.21 -188.34)"/><path class="cls-11" d="M441.92,434.57c-14.85,1.72-30.56,18.49-25.34,25.2C423,468,467.11,461.09,469,449.25,470.35,441.1,454,433.17,441.92,434.57Z" transform="translate(-69.21 -188.34)"/></svg>