<svg id="Layer_1" data-name="Layer 1" xmlns="http://www.w3.org/2000/svg" viewBox="0 0 344.5 344.5"><defs><style>.cls-1{fill:#6e5248;}.cls-2{fill:#614843;}.cls-3{fill:#735853;}.cls-4{fill:#7d645d;}.cls-5{fill:#5a443e;}.cls-6{fill:#7e645e;}</style></defs><rect class="cls-1" width="344.5" height="344.5" rx="8.16"/><rect class="cls-2" x="53" y="52.75" width="239" height="239"/><polygon class="cls-1" points="115.25 80.61 260.44 229.01 260.25 263 222.25 263 80.25 116 80.25 81 115.25 80.61"/><path class="cls-3" d="M403.1,458.81,200.64,256.35a5.74,5.74,0,0,1,0-8.13l10-3.33c2.25-2.24,11.54-1.47,13.78.77L420.35,441.55a5.75,5.75,0,0,1,0,8.14l-9.12,9.12A5.74,5.74,0,0,1,403.1,458.81Z" transform="translate(-133.75 -188)"/><path class="cls-4" d="M133.75,196.16V511A8.16,8.16,0,0,0,148,516.39l2.5-2.82a8.13,8.13,0,0,0,2.06-5.37L154,205l303-.67a8.17,8.17,0,0,0,5.45-2.11h0A8.16,8.16,0,0,0,457,188H141.91A8.16,8.16,0,0,0,133.75,196.16Z" transform="translate(-133.75 -188)"/><path class="cls-5" d="M133.75,511.29,460.11,511l.09-323h9.89a8.16,8.16,0,0,1,8.16,8.16V524.34a8.16,8.16,0,0,1-8.16,8.16H141.91a8.16,8.16,0,0,1-8.16-8.16Z" transform="translate(-133.75 -188)"/><polygon class="cls-5" points="53 52.75 53 291.75 80.25 267 80.25 81 261.25 79 292 52.75 53 52.75"/><polygon class="cls-6" points="53 291.75 292 291.75 292 52.75 261.25 79 260.25 263 80.25 267 53 291.75"/></svg>