<svg xmlns="http://www.w3.org/2000/svg" viewBox="0 0 1920.7 813.4"><defs><style>.cls-1{fill:#88b780;}.cls-2{fill:#efebce;}.cls-3{fill:#b54e64;}.cls-4{fill:#fff;}.cls-5{fill:#c65874;}.cls-6{fill:#24242d;}</style></defs><g id="Island"><path class="cls-1" d="M1725,708,227,722s-10.8-4.3,62-77.9l4.4-4.3s90.3-80.6,266.4-150.4c33-13.1,69.1-25.8,108.2-37.5l14.6-4.4,10.3-2.9A1476,1476,0,0,1,912,401c118.1-14.5,236.1,5.2,344.1,40.6,129.1,42.3,244,106.8,327.7,161.8C1671.5,660.9,1725,708,1725,708Z" transform="translate(0 -266.6)"/><path class="cls-2" d="M1754,722H227s-10.8-4.3,62-77.9c33.5,14.4,72,28.1,126,21.9,56.5-6.5,55.8-26.3,118-33,84.8-9.1,104.8,25.5,191,29,97.7,3.9,101.4-39.4,206-41s98.3,41.7,196,39c112.2-3.2,158.6-61.5,249-32,33,10.8,38.3,22.3,69,26,53.3,6.5,102.2-20.5,139.8-50.6C1671.5,660.9,1754,722,1754,722Z" transform="translate(0 -266.6)"/><path class="cls-2" d="M251.6,683.8S102,876,0,1054.5V1080H1920s13-147-70-275c-23.6-36.4-110.9-89.4-139.9-114.8" transform="translate(0 -266.6)"/></g><g id="Dragon"><path class="cls-3" d="M708.6,420.6s1.1-54.8,8.1-61.7S764.4,384,764.4,384Z" transform="translate(0 -266.6)"/><path class="cls-3" d="M1054.3,308.5l20.2,27L752.7,379.6s1.4-7.4,3.9-17.5c4.4-18.4,12.1-45.7,19.9-51.5s26.1,7.9,40.4,19.5c9.6,7.9,17.1,15,17.1,15s2.8-10.4,7.3-23.6c7.2-20.9,18.6-48.8,29.8-53.4,13.9-5.7,34.5,24.4,43.7,39.4,2.9,4.8,4.7,8.1,4.7,8.1s1-3.5,2.8-8.7c4.4-12.6,13.6-34.7,25-39.5s34.8,22,46.3,36.9c4.2,5.5,6.9,9.3,6.9,9.3s1.4-3.7,3.6-9c5.2-13,15-35.5,20.6-37.8C1032.5,263.6,1054.3,308.5,1054.3,308.5Z" transform="translate(0 -266.6)"/><path class="cls-4" d="M693.5,448.5a13,13,0,0,1-13,13,13.1,13.1,0,0,1-5.9-1.4c3.9-6.5,8.6-13.7,14.3-21.5A13,13,0,0,1,693.5,448.5Z" transform="translate(0 -266.6)"/><path class="cls-5" d="M1168.5,559.5c-3-21,57-39,73-54,11.1-10.4,21.8-34.4,14.6-63.9-3.1-12.9-9.7-26.8-21.1-41.1-27-33.8-76.4-73.3-175.7-86.1h-.7a489,489,0,0,0-49.5-3.8l-7.3-.2h-3.7c-21.7-.3-45.3.5-70.8,2.6l-7.1.5h-1.9a357.8,357.8,0,0,0-72,13.9l-7.8,2.5c-5.2,1.7-10.3,3.6-15.3,5.5l-1.3.6a302.7,302.7,0,0,0-60.3,32l-7.6,5.4h0l-2,1.4a313.2,313.2,0,0,0-38,33.7l-4.8-3c-11.3-6.4-28.2-11.4-52.9-9.8-50.5,3.3-87.2,74-96.5,93.7-1.5,3.2-2.3,5.1-2.3,5.1s129.1,20.3,172-9.7c0,0,15.5,3.5,38.3,7.9,37.1,7,93.6,16.3,134.1,16.4,5.9,0,11.5-.2,16.6-.6,48-3.9,124.1-29.9,156-41.5-30.7,32.5-62.6,87.3-3,140.5,92,82.1,215.4-18,218.1-20.2C1276.6,595.9,1171.5,580.5,1168.5,559.5Zm-488-98a13.1,13.1,0,0,1-5.9-1.4,12.9,12.9,0,0,1-6.6-8.2,12.7,12.7,0,0,1-.5-3.4,13,13,0,0,1,13-13,13.2,13.2,0,0,1,8.4,3.1,11.9,11.9,0,0,1,4,6,12.3,12.3,0,0,1,.6,3.9A13,13,0,0,1,680.5,461.5Z" transform="translate(0 -266.6)"/><path class="cls-4" d="M1074.5,467Z" transform="translate(0 -266.6)"/><path class="cls-4" d="M693.5,448.5a13,13,0,0,1-13,13,13,13,0,0,1-13-13,13,13,0,0,1,13-13,13.2,13.2,0,0,1,8.4,3.1A13,13,0,0,1,693.5,448.5Z" transform="translate(0 -266.6)"/><path class="cls-6" d="M693.5,448.5a13,13,0,0,1-13,13,13,13,0,0,1-13-13,13,13,0,0,1,13-13,13.2,13.2,0,0,1,8.4,3.1A13,13,0,0,1,693.5,448.5Z" transform="translate(0 -266.6)"/><path class="cls-3" d="M826.3,530.3l4.2,3.2c-44.7,7.8-95.5,13.6-100.4,0-4.4-12,27.6-37.5,39.8-41.7,34.1-11.8,37.6,0,37.6,0,1.8-4,25.6-63.3,75.9-70,20.6-2.8,58.7-1.8,68.3,2.3-22.4,24.7,44.1,55.9,44.1,55.9s-54.1-2.3-90.1,17.5,112.3,56,112.3,56C923.4,569.6,860.8,549,826.3,530.3Z" transform="translate(0 -266.6)"/></g></svg>