<svg id="Layer_1" data-name="Layer 1" xmlns="http://www.w3.org/2000/svg" viewBox="0 0 552.3 519.6"><defs><style>.cls-1{fill:#868989;}.cls-2{fill:#6a6b6b;}.cls-3{fill:#7b7d7d;}.cls-4{fill:#6f7273;}</style></defs><path class="cls-1" d="M989.5,736.1h-59V309.6A29.5,29.5,0,0,1,960,280.1h0a29.5,29.5,0,0,1,29.5,29.5Z" transform="translate(-684.2 -280.1)"/><path class="cls-2" d="M1097.2,596.1H823.8a37.6,37.6,0,0,1-33-19.6h0A18.5,18.5,0,0,1,807,549.1h307.1a18.5,18.5,0,0,1,16.2,27.4h0A37.7,37.7,0,0,1,1097.2,596.1Z" transform="translate(-684.2 -280.1)"/><path class="cls-2" d="M1052.6,435.1H868.5c-9.3,0-17.8-7.5-22.3-19.6h0c-4.6-12.3,1.5-27.4,10.9-27.4h206.8c9.5,0,15.5,15.1,11,27.4h0C1070.4,427.6,1061.9,435.1,1052.6,435.1Z" transform="translate(-684.2 -280.1)"/><polygon class="cls-3" points="552.3 519.6 0 519.6 27.3 453.7 41.1 420.4 511.2 420.4 531.3 468.8 552.3 519.6"/><polygon class="cls-4" points="102.7 420.4 61.8 463.9 27.3 453.7 41.1 420.4 102.7 420.4"/><polygon class="cls-4" points="209.2 519.6 66.7 519.6 91.9 470 136.8 453.9 209.2 519.6"/><polygon class="cls-4" points="241.2 442.2 216.6 470 275.8 509.1 319.3 463.9 241.2 442.2"/><polygon class="cls-4" points="434 420.4 402.9 463.9 381.8 420.4 434 420.4"/><polygon class="cls-4" points="552.3 519.6 413.1 519.6 452.2 453.9 531.3 468.8 552.3 519.6"/><rect class="cls-2" x="12.3" y="395" width="528" height="32" rx="16"/></svg>