<?xml version="1.0" encoding="UTF-8" standalone="no"?>
<!DOCTYPE svg PUBLIC "-//W3C//DTD SVG 1.1//EN" "http://www.w3.org/Graphics/SVG/1.1/DTD/svg11.dtd">
<svg version="1.1" xmlns="http://www.w3.org/2000/svg" xmlns:xlink="http://www.w3.org/1999/xlink" preserveAspectRatio="xMidYMid meet" viewBox="0 0 640 640" width="640" height="640"><defs><path d="M57.49 140.38L35.81 140.38L63.23 90.38L50.56 90.38L88.35 20.42L113.75 90.38L103.04 90.38L126.71 140.38L108.75 140.38L140.42 198.32L23.58 198.32L57.49 140.38Z" id="govs6cuVX"></path><path d="M187.98 109.57L305.65 109.57L305.65 198.32L187.98 198.32L187.98 109.57Z" id="bh6NSBYxF"></path><path d="M275.29 57.55L275.3 57.4L275.31 57.25L275.33 57.11L275.35 56.96L275.39 56.82L275.43 56.68L275.48 56.54L275.53 56.4L275.59 56.27L275.66 56.13L275.74 56L275.82 55.88L275.91 55.75L276 55.63L276.1 55.51L276.2 55.4L276.31 55.28L276.43 55.18L276.55 55.07L276.68 54.97L276.81 54.87L276.94 54.78L277.08 54.69L277.23 54.6L277.38 54.52L277.53 54.44L277.69 54.37L277.85 54.3L278.02 54.24L278.18 54.18L278.36 54.13L278.53 54.08L278.71 54.04L278.89 54L279.08 53.96L279.26 53.94L279.45 53.92L279.64 53.9L279.84 53.89L280.03 53.89L299.05 53.8L299.25 53.81L299.44 53.81L299.63 53.83L299.82 53.85L300.01 53.87L300.2 53.91L300.38 53.94L300.56 53.98L300.73 54.03L300.9 54.08L301.07 54.14L301.24 54.2L301.4 54.27L301.56 54.34L301.71 54.42L301.86 54.5L302.01 54.58L302.15 54.67L302.29 54.76L302.42 54.86L302.55 54.96L302.67 55.06L302.79 55.17L302.9 55.28L303 55.4L303.1 55.51L303.2 55.63L303.29 55.76L303.37 55.88L303.44 56.01L303.51 56.14L303.58 56.28L303.63 56.42L303.68 56.55L303.72 56.7L303.76 56.84L303.79 56.98L303.81 57.13L303.82 57.28L303.82 57.43L304 95.72L323.1 112.05L304.08 112.13L304.31 163.19L261.98 163.37L261.98 163.36L261.98 163.2L261.82 127.78L261.81 127.62L261.8 127.46L261.78 127.3L261.75 127.14L261.71 126.99L261.67 126.83L261.62 126.68L261.56 126.54L261.49 126.39L261.42 126.25L261.34 126.11L261.26 125.97L261.17 125.84L261.07 125.71L260.97 125.58L260.86 125.46L260.74 125.34L260.62 125.22L260.5 125.11L260.36 125L260.23 124.9L260.09 124.8L259.94 124.7L259.79 124.61L259.64 124.53L259.48 124.44L259.31 124.37L259.15 124.29L258.97 124.23L258.8 124.17L258.62 124.11L258.44 124.06L258.26 124.01L258.07 123.97L257.88 123.94L257.68 123.91L257.49 123.89L257.29 123.88L257.09 123.87L256.89 123.86L237.26 123.95L237.05 123.95L236.85 123.96L236.66 123.98L236.46 124L236.27 124.03L236.08 124.07L235.89 124.11L235.71 124.16L235.52 124.21L235.35 124.27L235.17 124.33L235 124.4L234.84 124.47L234.67 124.55L234.52 124.63L234.36 124.72L234.21 124.81L234.07 124.91L233.93 125.01L233.79 125.12L233.66 125.23L233.54 125.34L233.42 125.46L233.3 125.58L233.19 125.7L233.09 125.83L233 125.96L232.91 126.1L232.82 126.23L232.74 126.37L232.67 126.52L232.61 126.66L232.55 126.81L232.5 126.96L232.46 127.11L232.43 127.27L232.4 127.42L232.38 127.58L232.37 127.74L232.37 127.91L232.53 163.33L232.53 163.49L232.53 163.5L190.2 163.68L189.96 112.63L170.94 112.71L246.71 46.74L275.36 71.23L275.29 57.55Z" id="eD1xRstcA"></path><path d="M376.57 140.38L355.48 140.38L382.16 90.38L369.83 90.38L406.6 20.42L431.31 90.38L420.9 90.38L443.92 140.38L426.45 140.38L457.26 198.32L343.58 198.32L376.57 140.38Z" id="bZH5wf3pI"></path><path d="M494.57 98.13L616.31 98.13L616.31 198.32L494.57 198.32L494.57 98.13Z" id="f2vzj2QIR"></path><path d="M592.28 68.91L629.12 101.61L555.44 101.61L481.76 101.61L518.59 68.91L555.44 36.21L592.28 68.91Z" id="a2Dzx7BmEm"></path><path d="M57.49 364.59L35.81 364.59L63.23 314.59L50.56 314.59L88.35 244.63L113.75 314.59L103.04 314.59L126.71 364.59L108.75 364.59L140.42 422.53L23.58 422.53L57.49 364.59Z" id="b2h89jZlmk"></path><path d="M187.98 333.78L305.65 333.78L305.65 422.53L187.98 422.53L187.98 333.78Z" id="j1gR0aZKBs"></path><path d="M275.29 281.76L275.3 281.61L275.31 281.47L275.33 281.32L275.35 281.17L275.39 281.03L275.43 280.89L275.48 280.75L275.53 280.61L275.59 280.48L275.66 280.34L275.74 280.21L275.82 280.09L275.91 279.96L276 279.84L276.1 279.72L276.2 279.61L276.31 279.5L276.43 279.39L276.55 279.28L276.68 279.18L276.81 279.08L276.94 278.99L277.08 278.9L277.23 278.81L277.38 278.73L277.53 278.65L277.69 278.58L277.85 278.51L278.02 278.45L278.18 278.39L278.36 278.34L278.53 278.29L278.71 278.25L278.89 278.21L279.08 278.18L279.26 278.15L279.45 278.13L279.64 278.11L279.84 278.1L280.03 278.1L299.05 278.01L299.25 278.02L299.44 278.02L299.63 278.04L299.82 278.06L300.01 278.08L300.2 278.12L300.38 278.15L300.56 278.19L300.73 278.24L300.9 278.29L301.07 278.35L301.24 278.41L301.4 278.48L301.56 278.55L301.71 278.63L301.86 278.71L302.01 278.79L302.15 278.88L302.29 278.97L302.42 279.07L302.55 279.17L302.67 279.27L302.79 279.38L302.9 279.49L303 279.61L303.1 279.72L303.2 279.84L303.29 279.97L303.37 280.09L303.44 280.22L303.51 280.36L303.58 280.49L303.63 280.63L303.68 280.77L303.72 280.91L303.76 281.05L303.79 281.19L303.81 281.34L303.82 281.49L303.82 281.64L304 319.93L323.1 336.26L304.08 336.34L304.31 387.4L261.98 387.58L261.98 387.57L261.98 387.41L261.82 351.99L261.81 351.83L261.8 351.67L261.78 351.51L261.75 351.35L261.71 351.2L261.67 351.04L261.62 350.89L261.56 350.75L261.49 350.6L261.42 350.46L261.34 350.32L261.26 350.18L261.17 350.05L261.07 349.92L260.97 349.79L260.86 349.67L260.74 349.55L260.62 349.43L260.5 349.32L260.36 349.21L260.23 349.11L260.09 349.01L259.94 348.91L259.79 348.82L259.64 348.74L259.48 348.65L259.31 348.58L259.15 348.5L258.97 348.44L258.8 348.38L258.62 348.32L258.44 348.27L258.26 348.22L258.07 348.18L257.88 348.15L257.68 348.12L257.49 348.1L257.29 348.09L257.09 348.08L256.89 348.07L237.26 348.16L237.05 348.16L236.85 348.17L236.66 348.19L236.46 348.21L236.27 348.24L236.08 348.28L235.89 348.32L235.71 348.37L235.52 348.42L235.35 348.48L235.17 348.54L235 348.61L234.84 348.68L234.67 348.76L234.52 348.84L234.36 348.93L234.21 349.02L234.07 349.12L233.93 349.22L233.79 349.33L233.66 349.44L233.54 349.55L233.42 349.67L233.3 349.79L233.19 349.91L233.09 350.04L233 350.17L232.91 350.31L232.82 350.44L232.74 350.58L232.67 350.73L232.61 350.87L232.55 351.02L232.5 351.17L232.46 351.32L232.43 351.48L232.4 351.64L232.38 351.79L232.37 351.95L232.37 352.12L232.53 387.54L232.53 387.7L232.53 387.71L190.2 387.89L189.96 336.84L170.94 336.92L246.71 270.95L275.36 295.44L275.29 281.76Z" id="bzzQc6SC0"></path><path d="M376.57 364.59L355.48 364.59L382.16 314.59L369.83 314.59L406.6 244.63L431.31 314.59L420.9 314.59L443.92 364.59L426.45 364.59L457.26 422.53L343.58 422.53L376.57 364.59Z" id="gqwCvcSjJ"></path><path d="M494.57 322.34L616.31 322.34L616.31 422.53L494.57 422.53L494.57 322.34Z" id="a4rcGIsfa0"></path><path d="M592.28 293.12L629.12 325.82L555.44 325.82L481.76 325.82L518.59 293.12L555.44 260.42L592.28 293.12Z" id="b2YGOH5PCQ"></path><path d="M57.49 563.53L35.81 563.53L63.23 513.53L50.56 513.53L88.35 443.58L113.75 513.53L103.04 513.53L126.71 563.53L108.75 563.53L140.42 621.47L23.58 621.47L57.49 563.53Z" id="aQbFgaSsx"></path><path d="M187.98 532.73L305.65 532.73L305.65 621.47L187.98 621.47L187.98 532.73Z" id="m5aeJBolfA"></path><path d="M275.29 480.71L275.3 480.56L275.31 480.41L275.33 480.27L275.35 480.12L275.39 479.98L275.43 479.83L275.48 479.7L275.53 479.56L275.59 479.42L275.66 479.29L275.74 479.16L275.82 479.03L275.91 478.91L276 478.79L276.1 478.67L276.2 478.55L276.31 478.44L276.43 478.33L276.55 478.23L276.68 478.13L276.81 478.03L276.94 477.94L277.08 477.85L277.23 477.76L277.38 477.68L277.53 477.6L277.69 477.53L277.85 477.46L278.02 477.4L278.18 477.34L278.36 477.29L278.53 477.24L278.71 477.19L278.89 477.16L279.08 477.12L279.26 477.1L279.45 477.07L279.64 477.06L279.84 477.05L280.03 477.04L299.05 476.96L299.25 476.96L299.44 476.97L299.63 476.99L299.82 477.01L300.01 477.03L300.2 477.06L300.38 477.1L300.56 477.14L300.73 477.19L300.9 477.24L301.07 477.3L301.24 477.36L301.4 477.43L301.56 477.5L301.71 477.57L301.86 477.65L302.01 477.74L302.15 477.83L302.29 477.92L302.42 478.02L302.55 478.12L302.67 478.22L302.79 478.33L302.9 478.44L303 478.55L303.1 478.67L303.2 478.79L303.29 478.91L303.37 479.04L303.44 479.17L303.51 479.3L303.58 479.44L303.63 479.57L303.68 479.71L303.72 479.85L303.76 480L303.79 480.14L303.81 480.29L303.82 480.44L303.82 480.59L304 518.88L323.1 535.21L304.08 535.29L304.31 586.34L261.98 586.53L261.98 586.52L261.98 586.36L261.82 550.94L261.81 550.77L261.8 550.61L261.78 550.46L261.75 550.3L261.71 550.14L261.67 549.99L261.62 549.84L261.56 549.69L261.49 549.55L261.42 549.41L261.34 549.27L261.26 549.13L261.17 549L261.07 548.87L260.97 548.74L260.86 548.62L260.74 548.5L260.62 548.38L260.5 548.27L260.36 548.16L260.23 548.06L260.09 547.96L259.94 547.86L259.79 547.77L259.64 547.68L259.48 547.6L259.31 547.52L259.15 547.45L258.97 547.39L258.8 547.32L258.62 547.27L258.44 547.22L258.26 547.17L258.07 547.13L257.88 547.1L257.68 547.07L257.49 547.05L257.29 547.03L257.09 547.02L256.89 547.02L237.26 547.11L237.05 547.11L236.85 547.12L236.66 547.14L236.46 547.16L236.27 547.19L236.08 547.23L235.89 547.27L235.71 547.31L235.52 547.37L235.35 547.43L235.17 547.49L235 547.56L234.84 547.63L234.67 547.71L234.52 547.79L234.36 547.88L234.21 547.97L234.07 548.07L233.93 548.17L233.79 548.28L233.66 548.38L233.54 548.5L233.42 548.62L233.3 548.74L233.19 548.86L233.09 548.99L233 549.12L232.91 549.25L232.82 549.39L232.74 549.53L232.67 549.67L232.61 549.82L232.55 549.97L232.5 550.12L232.46 550.27L232.43 550.43L232.4 550.58L232.38 550.74L232.37 550.9L232.37 551.06L232.53 586.48L232.53 586.65L232.53 586.65L190.2 586.84L189.96 535.78L170.94 535.87L246.71 469.89L275.36 494.39L275.29 480.71Z" id="a4KXkvZRo0"></path><path d="M376.57 563.53L355.48 563.53L382.16 513.53L369.83 513.53L406.6 443.58L431.31 513.53L420.9 513.53L443.92 563.53L426.45 563.53L457.26 621.47L343.58 621.47L376.57 563.53Z" id="c1imbP6HIi"></path><path d="M494.57 521.29L616.31 521.29L616.31 621.47L494.57 621.47L494.57 521.29Z" id="f5o4e4RcJr"></path><path d="M592.28 492.07L629.12 524.77L555.44 524.77L481.76 524.77L518.59 492.07L555.44 459.37L592.28 492.07Z" id="cacKEJ3RtK"></path></defs><g><g><g><use xlink:href="#govs6cuVX" opacity="1" fill="#005d32" fill-opacity="1"></use></g><g><use xlink:href="#bh6NSBYxF" opacity="1" fill="#034d2a" fill-opacity="1"></use></g><g><use xlink:href="#eD1xRstcA" opacity="1" fill="#034d2a" fill-opacity="1"></use></g><g><use xlink:href="#bZH5wf3pI" opacity="1" fill="#008446" fill-opacity="1"></use></g><g><use xlink:href="#f2vzj2QIR" opacity="1" fill="#008446" fill-opacity="1"></use></g><g><use xlink:href="#a2Dzx7BmEm" opacity="1" fill="#008446" fill-opacity="1"></use></g><g><use xlink:href="#b2h89jZlmk" opacity="1" fill="#5a1305" fill-opacity="1"></use></g><g><use xlink:href="#j1gR0aZKBs" opacity="1" fill="#5a1305" fill-opacity="1"></use></g><g><use xlink:href="#bzzQc6SC0" opacity="1" fill="#5a1305" fill-opacity="1"></use></g><g><use xlink:href="#gqwCvcSjJ" opacity="1" fill="#814002" fill-opacity="1"></use></g><g><use xlink:href="#a4rcGIsfa0" opacity="1" fill="#814002" fill-opacity="1"></use></g><g><use xlink:href="#b2YGOH5PCQ" opacity="1" fill="#814002" fill-opacity="1"></use></g><g><use xlink:href="#aQbFgaSsx" opacity="1" fill="#05225a" fill-opacity="1"></use></g><g><use xlink:href="#m5aeJBolfA" opacity="1" fill="#05225a" fill-opacity="1"></use></g><g><use xlink:href="#a4KXkvZRo0" opacity="1" fill="#05225a" fill-opacity="1"></use></g><g><use xlink:href="#c1imbP6HIi" opacity="1" fill="#0a3d9e" fill-opacity="1"></use></g><g><use xlink:href="#f5o4e4RcJr" opacity="1" fill="#0a3d9e" fill-opacity="1"></use></g><g><use xlink:href="#cacKEJ3RtK" opacity="1" fill="#0a3d9e" fill-opacity="1"></use></g></g></g></svg>