<svg id="Layer_1" data-name="Layer 1" xmlns="http://www.w3.org/2000/svg" viewBox="0 0 656.6 882"><defs><style>.cls-1{fill:#6a6b6b;}.cls-2{fill:#8ed4db;}.cls-3{fill:#868989;}.cls-4{fill:#efd518;}.cls-5{fill:#4765d1;}.cls-6{fill:#84d886;}.cls-7{fill:#c65874;}.cls-8{fill:#b54e64;}</style></defs><rect class="cls-1" x="482" y="452" width="51" height="94" rx="10.3"/><rect class="cls-2" x="189" y="484" width="193" height="62" rx="15.4"/><rect class="cls-2" x="364" y="499" width="94" height="48" rx="19.9"/><rect class="cls-3" x="554" y="183" width="31" height="340"/><rect class="cls-3" x="144" y="183" width="31" height="340"/><path class="cls-4" d="M776.5,356v.2a43.8,43.8,0,1,1-87.5,0V356Z" transform="translate(-587 -165)"/><path class="cls-5" d="M864,356v.2a43.8,43.8,0,1,1-87.5,0V356Z" transform="translate(-587 -165)"/><path class="cls-6" d="M951.5,356v.2a43.8,43.8,0,1,1-87.5,0V356Z" transform="translate(-587 -165)"/><path class="cls-4" d="M1039,356v.2a43.8,43.8,0,1,1-87.5,0V356Z" transform="translate(-587 -165)"/><path class="cls-5" d="M1126.5,356v.2a43.8,43.8,0,1,1-87.5,0V356Z" transform="translate(-587 -165)"/><path class="cls-6" d="M1214,356v.2a43.8,43.8,0,1,1-87.5,0V356Z" transform="translate(-587 -165)"/><rect class="cls-3" x="37" y="569" width="107" height="25"/><circle class="cls-1" cx="119" cy="847" r="35"/><circle class="cls-1" cx="612" cy="847" r="35"/><polygon class="cls-7" points="656.6 832.5 72.4 832.5 103 540.2 626 540.2 656.6 832.5"/><path class="cls-8" d="M1068.8,1013.2A580.2,580.2,0,0,1,951,1025a574.7,574.7,0,0,1-114.8-11.8q6.1-146.9,12.2-293.7h208.2Z" transform="translate(-587 -165)"/><polygon class="cls-7" points="630.2 191.5 100.2 191.5 179.5 16 551 16 630.2 191.5"/><rect class="cls-3" x="86.1" y="522.5" width="558.1" height="45.96" rx="19.5"/><rect class="cls-8" x="164" width="401" height="44" rx="22"/><ellipse class="cls-1" cx="36" cy="582" rx="36" ry="28"/></svg>