<svg id="Layer_1" data-name="Layer 1" xmlns="http://www.w3.org/2000/svg" viewBox="0 0 161.3 977"><defs><style>.cls-1{fill:#868989;}.cls-2{fill:#e2d46d;}.cls-3{fill:#6a6b6b;}</style></defs><rect class="cls-1" x="59.1" width="42.5" height="774" rx="21.2"/><ellipse class="cls-2" cx="80.1" cy="75" rx="38.5" ry="39"/><path class="cls-3" d="M1015.5,1043h-111V817.5A55.4,55.4,0,0,1,960,762h0a55.4,55.4,0,0,1,55.5,55.5Z" transform="translate(-879.4 -66)"/><path class="cls-3" d="M1028.8,135H891.2a11.8,11.8,0,0,1-10.6-17.1h0A63,63,0,0,1,937,83h46a63,63,0,0,1,56.4,34.9h0A11.8,11.8,0,0,1,1028.8,135Z" transform="translate(-879.4 -66)"/></svg>