<?xml version="1.0" encoding="utf-8"?>
<!-- Generator: Adobe Illustrator 25.2.1, SVG Export Plug-In . SVG Version: 6.00 Build 0)  -->
<svg version="1.1" id="Layer_1" xmlns="http://www.w3.org/2000/svg" xmlns:xlink="http://www.w3.org/1999/xlink" x="0px" y="0px"
	 viewBox="0 0 173.1 548.4" style="enable-background:new 0 0 173.1 548.4;" xml:space="preserve">
<style type="text/css">
	.st0{fill:#DADFE5;}
	.st1{fill:#C65874;}
	.st2{fill:#A0B0BD;}
	.st3{fill:#91A0AA;}
	.st4{fill:#B54E64;}
	.st5{fill:#E4EBF1;}
	.st6{fill:#8ED4DB;}
	.st7{fill:#B8C2CC;}
	.st8{opacity:0.51;fill:none;stroke:#FFFFFF;stroke-width:3;stroke-miterlimit:10;enable-background:new    ;}
	.st9{opacity:0.3;fill:none;stroke:#FFFFFF;stroke-width:3;stroke-miterlimit:10;enable-background:new    ;}
	.st10{fill:#78BDC1;}
	.st11{fill:#C24552;}
</style>
<polygon class="st0" points="94.1,44.4 87.6,43.5 87.6,0 94.1,0 94.1,3 "/>
<rect x="53.9" y="178.9" class="st1" width="69.1" height="56.6"/>
<path class="st2" d="M144.6,474.3h-113c-2.9,0-5.4,1.8-6.4,4.5L0,548.4h173.1L151,479C150.1,476.2,147.5,474.3,144.6,474.3z"/>
<path class="st3" d="M143,473.9H33.3c-2.8,0-7.2,1.8-8.1,4.9l-0.7,2h127.1L151,479C150.1,475.8,145.9,473.9,143,473.9z"/>
<polygon class="st4" points="132.9,325.5 41.8,325.5 33.2,474.3 142.9,474.3 "/>
<rect x="53.9" y="178.9" class="st4" width="21.2" height="58.5"/>
<rect x="101.2" y="173.7" class="st4" width="21.2" height="58.5"/>
<polygon class="st1" points="112.2,474.3 62.9,474.3 67.9,325.5 107.2,325.5 "/>
<path class="st0" d="M50.6,230.7h74.9c2.5,0,4.6,2.1,4.6,4.6l0,0v90.2l0,0H46l0,0v-90.2C46,232.8,48.1,230.7,50.6,230.7
	C50.6,230.7,50.6,230.7,50.6,230.7z"/>
<path class="st0" d="M50.1,178.9h76.6c3.5,0,5.8-3.3,4.2-6l0,0c-23.4-40-61.6-40-85,0l0,0C44.3,175.6,46.6,178.9,50.1,178.9z"/>
<rect x="68.2" y="74.5" class="st1" width="42.7" height="26.7"/>
<path class="st0" d="M65.9,74.5h47.3c2.2,0,3.6-1.5,2.6-2.8l0,0c-14.4-18.9-38.1-18.9-52.5,0l0,0C62.3,72.9,63.7,74.5,65.9,74.5z"/>
<polygon class="st5" points="96.5,142.9 81.9,142.9 68.8,178.9 110.3,178.9 "/>
<rect x="62.9" y="106.6" class="st1" width="53.2" height="46.8"/>
<rect x="62.9" y="106.6" class="st4" width="11.4" height="46.3"/>
<rect x="105" y="106.6" class="st4" width="11.1" height="46.8"/>
<path class="st6" d="M64.8,116.7h49.5c1,0,1.9,0.8,1.9,1.9v23c0,1-0.8,1.9-1.9,1.9H64.8c-1,0-1.9-0.8-1.9-1.9v-23
	C62.9,117.5,63.8,116.7,64.8,116.7z"/>
<path class="st0" d="M59.3,95.7h62.1c3,0,5.4,2.4,5.4,5.4v0c0,3-2.4,5.4-5.4,5.4H59.3c-3,0-5.5-2.4-5.5-5.4v0
	C53.9,98.2,56.3,95.7,59.3,95.7z"/>
<rect x="81.9" y="58.6" class="st5" width="15.8" height="15.8"/>
<path class="st7" d="M71.9,66h33.4c4.1,0,6.4-5,4-8.5l-8.5-12.6c-3.7-5.7-11.3-7.3-17-3.7c-1.5,0.9-2.7,2.2-3.7,3.7L69.4,60.6
	C67.9,62.9,69.4,66,71.9,66z"/>
<rect x="71.7" y="230.7" class="st5" width="32.7" height="94.7"/>
<polygon class="st5" points="106.2,95.7 71.8,95.7 67.3,106.6 111.8,106.6 "/>
<path class="st3" d="M37.6,486.6c0,0-14.2,7.1,3,22.3c17.2,15.1,19.1-5.2,24.4-7.5s14.7-8.3,9-10.3s-8-9.4-12.9-9.2
	S39.2,483.5,37.6,486.6z"/>
<path class="st3" d="M154,525.1c0,0,7.8-13.9-14.9-16.8s-12.9,15-16,19.8s-7.6,15.1-1.7,13.5s11.9,3.3,15.8,0.5
	S154.4,528.6,154,525.1z"/>
<path class="st3" d="M92.7,497.3c2.4,11.7,22.1,6.8,25.6,3s18.2,0.2,22.1-7s-4.6-14.2-16.2-13.2C121.4,480.3,89.9,483.7,92.7,497.3z
	"/>
<path class="st3" d="M24.6,514.4c0,0-18,6.3-3.1,19.4s26,8.3,26.6,1.9S51.1,516.7,24.6,514.4z"/>
<path class="st3" d="M69.6,521.4c0,0-3.4,21,17,15.6s21.7-18.8,15.8-23.7C96.6,508.5,85.7,498.2,69.6,521.4z"/>
<path class="st6" d="M83.4,241.8h10.1c1.6,0,2.9,1.3,2.9,2.9V258c0,1.6-1.3,2.9-2.9,2.9H83.4c-1.6,0-2.9-1.3-2.9-2.9v-13.4
	C80.5,243,81.8,241.8,83.4,241.8z"/>
<path class="st6" d="M83.4,267.7h10.1c1.6,0,2.9,1.3,2.9,2.9v15.7c0,1.6-1.3,2.9-2.9,2.9H83.4c-1.6,0-2.9-1.3-2.9-2.9v-15.7
	C80.5,269,81.8,267.7,83.4,267.7z"/>
<path class="st6" d="M83.4,296.6h10.1c1.6,0,2.9,1.3,2.9,2.9v16.6c0,1.6-1.3,2.9-2.9,2.9H83.4c-1.6,0-2.9-1.3-2.9-2.9v-16.6
	C80.5,297.9,81.8,296.6,83.4,296.6z"/>
<line class="st8" x1="84.3" y1="123.2" x2="78.2" y2="135.3"/>
<line class="st8" x1="100.8" y1="124" x2="94.7" y2="136.1"/>
<line class="st9" x1="88.4" y1="244.6" x2="88.4" y2="256.8"/>
<line class="st9" x1="88.4" y1="271.7" x2="88.4" y2="283.9"/>
<line class="st9" x1="88.4" y1="300.7" x2="88.4" y2="312.9"/>
<path class="st10" d="M64.7,116.7h9.6l0,0v26.8l0,0h-9.6c-1,0-1.8-0.8-1.8-1.8l0,0v-23.1C62.9,117.5,63.7,116.7,64.7,116.7
	L64.7,116.7z"/>
<path class="st10" d="M105,116.7h9.3c1,0,1.8,0.8,1.8,1.8l0,0v23.1c0,1-0.8,1.8-1.8,1.8l0,0H105l0,0V116.7L105,116.7z"/>
<path class="st11" d="M94.1,6.5c0,0,16.4-9.5,28.3,5s26.7,5.1,26.7,5.1s9.5,9.6,6,16.7s-10.2,13.6-19.1,9.3s-12.7-10.8-25.2-11.8
	s-16.8,1-16.8,1L94.1,6.5z"/>
</svg>
