<svg id="Layer_1" data-name="Layer 1" xmlns="http://www.w3.org/2000/svg" viewBox="0 0 2436 1073"><defs><style>.cls-1{fill:#fff;}</style></defs><g id="Layer_2" data-name="Layer 2"><g id="Layer_1-2" data-name="Layer 1-2"><path class="cls-1" d="M0,1073s95.61-43.24,229-292C303,643,682.84,0,1007,0c318.86,0,653.7,269.57,775,414,472,562,654,659,654,659Z"/></g></g><polygon class="cls-1" points="1412.72 29.09 1390.26 159.81 1451.53 157.77 1412.72 29.09"/><polygon class="cls-1" points="642.9 116.04 620.43 246.76 681.71 244.72 642.9 116.04"/><polygon class="cls-1" points="1873.23 391.06 1839.62 586.63 1901.93 578.53 1873.23 391.06"/><polygon class="cls-1" points="411.02 360.4 377.41 555.97 439.73 547.87 411.02 360.4"/><polygon class="cls-1" points="1780.15 317.26 1746.54 512.83 1839.62 510.01 1780.15 317.26"/><polygon class="cls-1" points="473.34 272.4 439.73 467.98 532.81 465.16 473.34 272.4"/><polygon class="cls-1" points="198.04 739.15 164.43 934.72 222.76 925.93 198.04 739.15"/><polygon class="cls-1" points="2056.77 586.63 2023.15 782.21 2081.49 773.42 2056.77 586.63"/><polygon class="cls-1" points="1629.01 233.66 1629.01 370.19 1730.66 370.19 1730.66 233.66 1737.36 233.66 1683.19 147.55 1621.19 233.66 1629.01 233.66"/><polygon class="cls-1" points="1489.22 122.34 1489.22 258.87 1590.87 258.87 1590.87 122.34 1597.57 122.34 1543.4 36.23 1481.41 122.34 1489.22 122.34"/></svg>