<svg id="Layer_1" data-name="Layer 1" xmlns="http://www.w3.org/2000/svg" viewBox="0 0 2436 1073.08"><defs><style>.cls-1{fill:#8dbf85;}.cls-2{fill:#88b780;}</style></defs><g id="Layer_2" data-name="Layer 2"><g id="Layer_1-2" data-name="Layer 1-2"><path class="cls-1" d="M2436,1073H0s95.61-43.24,229-292c6-11.18,14-25.67,23.81-42.87,32.31-56.6,84.27-142.47,149-235.88h0C536.5,308.06,726.49,81.33,910.28,17.5h0C942.84,6.19,975.19,0,1007,0c316.37,0,648.47,265.37,772.12,410.59L1782,414q38.79,46.19,75,88.25c79.46,92.38,149.68,170.28,211.29,235.88C2329.54,1016.26,2436,1073,2436,1073Z" transform="translate(0 0.08)"/></g></g><path class="cls-2" d="M1857,502.25C1659.31,378.74,1490.51,347.92,1351.35,359c-157.11,12.51-229.53,74.69-421.06,120.55-153.45,36.75-328.88,50-528.43,22.7,1.07-2.33,3.22-7.14,6.44-14.06,28-60.07,99.05-212.14,226.34-323.36C671.12,133,786.27,22,983.49,2.77,1344.84-32.42,1659.28,267.89,1782,414Q1820.79,460.19,1857,502.25Z" transform="translate(0 0.08)"/><path class="cls-2" d="M2436,1073H0s95.61-43.24,229-292c6-11.18,14-25.67,23.81-42.87,233.77,69.17,417.83,70.35,536,61.15,354.15-27.57,505.17-178.63,829.89-171.22,198.56,4.53,356.55,65.91,449.62,110.07Z" transform="translate(0 0.08)"/></svg>