<svg id="Layer_1" data-name="Layer 1" xmlns="http://www.w3.org/2000/svg" viewBox="0 0 2437 1107"><defs><style>.cls-1{fill:#fff;}</style></defs><polygon class="cls-1" points="729 76 694 163 749.17 163 729 76"/><polygon class="cls-1" points="780.71 160 814 33 838.05 160 780.71 160"/><polygon class="cls-1" points="472.71 183 506 56 530.05 183 472.71 183"/><polygon class="cls-1" points="241.71 193 275 66 299.05 193 241.71 193"/><polygon class="cls-1" points="300.71 224 334 97 358.05 224 300.71 224"/><polygon class="cls-1" points="1639 647 1675.75 533.75 1704.75 688.75 1639 647"/><polygon class="cls-1" points="1194.05 192.86 1229.05 310 1173.88 310 1194.05 192.86"/><polygon class="cls-1" points="1604.05 518.86 1639.05 636 1583.88 636 1604.05 518.86"/><polygon class="cls-1" points="1134.34 310 1101.05 139 1077 310 1134.34 310"/><polygon class="cls-1" points="2091.34 955 2058.05 784 2034 955 2091.34 955"/><path class="cls-1" d="M.5,171.5s420.91-6.95,745,0c373,8,650.64,270.82,796,391,635,525,895,563,895,563H-.5Z" transform="translate(0.5 -18.5)"/><polygon class="cls-1" points="1327.65 308.81 1327.65 455.96 1429.3 455.96 1429.3 308.81 1436 308.81 1381.83 216 1319.83 308.81 1327.65 308.81"/><polygon class="cls-1" points="558.65 92.81 558.65 239.96 660.3 239.96 660.3 92.81 667 92.81 612.83 0 550.83 92.81 558.65 92.81"/><polygon class="cls-1" points="1817.65 703.81 1817.65 850.96 1919.3 850.96 1919.3 703.81 1926 703.81 1871.83 611 1809.83 703.81 1817.65 703.81"/><polygon class="cls-1" points="1320 190 1288 20 1250 191 1261.09 190.63 1258 378 1307 378 1309 191.26 1320 190"/></svg>