<?xml version="1.0" encoding="iso-8859-1"?>
<!-- Generator: Adobe Illustrator 19.0.0, SVG Export Plug-In . SVG Version: 6.00 Build 0)  -->
<svg version="1.1" xmlns="http://www.w3.org/2000/svg" xmlns:xlink="http://www.w3.org/1999/xlink" x="0px" y="0px"
	 viewBox="0 0 800 800" style="enable-background:new 0 0 800 800;" xml:space="preserve">
<g id="Layer_3">
	
		<line id="XMLID_4_" style="fill:#333333;stroke:#333333;stroke-width:6;stroke-miterlimit:10;" x1="140.527" y1="273.519" x2="378.667" y2="546.077"/>
	
		<line id="XMLID_5_" style="fill:none;stroke:#333333;stroke-width:6;stroke-miterlimit:10;" x1="676.413" y1="269.947" x2="421.333" y2="546.077"/>
	
		<line id="XMLID_6_" style="fill:none;stroke:#333333;stroke-width:6;stroke-miterlimit:10;" x1="554.957" y1="328.357" x2="400" y2="546.077"/>
	
		<line id="XMLID_7_" style="fill:none;stroke:#333333;stroke-width:6;stroke-miterlimit:10;" x1="259.575" y1="329.842" x2="400" y2="546.077"/>
	<line id="XMLID_8_" style="fill:none;stroke:#333333;stroke-width:6;stroke-miterlimit:10;" x1="399" y1="546" x2="399" y2="296"/>
</g>
<g id="Layer_1">
	<path id="XMLID_18_" style="fill:#C65874;" d="M676.41,269.95c0.19,27.78-75.74,76.13-121.45,58.41
		c-44.44,23.25-237.63,23.48-295.38,1.48c-53.79,11.11-118.87-28.96-119.05-56.32c-0.13-19.45,5.36-38.15,15.54-55.5
		c36.88-62.91,135.34-108.34,251.31-109.11C530,108.09,633.7,157.45,665.99,225.55C672.68,239.64,676.31,254.53,676.41,269.95z"/>
	<path id="XMLID_16_" style="fill:#B54E64;" d="M676.41,269.95c0.19,27.78-75.74,76.13-121.45,58.41
		c-44.44,23.25-237.63,23.48-295.38,1.48c-53.79,11.11-118.87-28.96-119.05-56.32c-0.13-19.45,5.36-38.15,15.54-55.5
		c103.505,15.236,149.725,77.98,249.917,51.895C510.923,296,581.436,218.02,665.99,225.55
		C672.68,239.64,676.31,254.53,676.41,269.95z"/>
</g>
<g id="Layer_2">
	<path id="XMLID_19_" style="fill:#FFFFFF;" d="M554.96,328.36C456.5,372,358.04,372.5,259.58,329.84
		c2.25-25.28,7.17-49.18,14.97-71.61c21.37-61.5,64.32-111.95,132.83-149.32c67.93,37.18,114.41,85.86,135.26,148.27
		C549.99,279.17,554.16,302.86,554.96,328.36z"/>
	<path id="XMLID_20_" style="fill:#999999;" d="M434,569c0,6.627-5.373,12-12,12h-43c-6.627,0-12-5.373-12-12v-11
		c0-6.627,5.373-12,12-12h43c6.627,0,12,5.373,12,12V569z"/>
	<path id="XMLID_15_" style="fill:#E6E6E6;" d="M554.96,328.36C456.5,372,358.04,372.5,259.58,329.84
		c2.25-25.28,7.17-49.18,14.97-71.61c88.63-12.238,178.09-12.994,268.09-1.05C549.99,279.17,554.16,302.86,554.96,328.36z"/>
	<path id="XMLID_14_" style="fill:#808080;" d="M433,560.12v8.57c0,6.6-5.07,12.31-11.67,12.31h-42.66
		c-6.6,0-11.67-5.71-11.67-12.31v-8.88C390,566.62,412,566.72,433,560.12z"/>
</g>
</svg>
