<?xml version="1.0" encoding="UTF-8" standalone="no"?>
<!DOCTYPE svg PUBLIC "-//W3C//DTD SVG 1.1//EN" "http://www.w3.org/Graphics/SVG/1.1/DTD/svg11.dtd">
<svg version="1.1" xmlns="http://www.w3.org/2000/svg" xmlns:xlink="http://www.w3.org/1999/xlink" preserveAspectRatio="xMidYMid meet" viewBox="0 0 640 640" width="640" height="640"><defs><path d="M404.33 379.42C405.79 379.55 406.88 380.84 406.75 382.3C406.27 387.82 405.07 401.74 404.6 407.26C404.47 408.73 403.18 409.81 401.72 409.68C401.19 409.64 402.25 409.73 401.72 409.68C400.26 409.56 399.17 408.27 399.3 406.81C399.78 401.28 400.98 387.37 401.45 381.85C401.58 380.38 402.87 379.3 404.33 379.42C404.86 379.47 403.8 379.38 404.33 379.42Z" id="a4uJa74Ugl"></path><path d="M434.41 249.11C398.44 165.15 375.96 112.68 366.97 91.69C366.7 91.05 366.99 90.32 367.62 90.05C368.27 89.77 369.06 89.43 369.71 89.16C370.35 88.88 371.09 89.16 371.39 89.79C395.37 140.06 418.55 191.3 440.92 243.52C463.29 295.75 484.86 348.95 505.63 403.13C505.87 403.78 505.57 404.51 504.93 404.78C504.28 405.06 503.48 405.4 502.84 405.68C502.21 405.95 501.47 405.65 501.2 405.02C492.3 384.23 470.03 332.26 434.41 249.11Z" id="h6DVYL9nYz"></path><path d="M266.65 242.48C300.76 190.49 333.54 129.36 365 59.08C367.43 53.65 375.56 55.38 375.56 61.33C375.56 126.3 375.56 305.3 375.56 372.75C375.56 379.81 369.29 385.22 362.3 384.19C339.53 380.83 311.61 379.14 278.55 379.14C242.82 379.14 201.49 381.21 154.55 385.35C151.64 385.61 150.06 382.01 152.23 380.05C192.02 343.95 230.16 298.1 266.65 242.48Z" id="bg7Z8N8pW"></path><path d="M376.69 48.71C379.51 48.71 381.79 51 381.79 53.82C381.79 130.3 381.79 354.66 381.79 431.14C381.79 433.96 379.51 436.24 376.69 436.24C375.67 436.24 377.71 436.24 376.69 436.24C373.87 436.24 371.59 433.96 371.59 431.14C371.59 354.66 371.59 130.3 371.59 53.82C371.59 51 373.87 48.71 376.69 48.71C377.71 48.71 375.67 48.71 376.69 48.71Z" id="fgVENuGQz"></path><path d="M468.17 293.71C453.4 257.75 433.39 214.04 408.13 162.58C406.13 158.5 399.97 160.11 400.21 164.64C402.52 208.72 403.68 248.27 403.68 283.3C403.68 324.35 402.16 360.11 399.14 390.58C414.1 386.92 430.01 385.09 446.86 385.09C463.48 385.09 481.03 386.87 499.52 390.43C499.89 390.5 500.21 390.18 500.13 389.82C495.56 366.48 484.9 334.45 468.17 293.71Z" id="a3A8kQloBJ"></path><path d="M322.98 414.21C391.26 414.21 461.81 411.4 534.62 405.79C539.41 405.43 542.47 410.79 539.72 414.72C532.43 425.12 532.86 424.52 529.42 429.43C513.06 452.81 486.31 466.74 457.77 466.74C388.95 466.74 228.02 466.74 159.2 466.74C134.05 466.74 113.66 446.35 113.66 421.2C113.66 417.93 113.66 426.86 113.66 416.89C113.66 410.43 119.2 405.35 125.63 405.91C189.18 411.44 254.96 414.21 322.98 414.21Z" id="hf0WiaC2"></path><path d="M176.96 405.75L470.62 405.75C510.65 403.96 535.67 402.84 545.67 402.39C547.35 402.31 548.76 403.66 548.76 405.34C548.76 406.75 548.76 407.92 548.76 409.34C548.76 411.07 547.41 412.5 545.68 412.61C535.82 413.21 511.18 414.7 471.75 417.09L176.96 417.09C143.35 414.75 122.35 413.28 113.95 412.69C111.6 412.53 109.58 410.97 108.83 408.73C108.4 407.44 108.22 406.91 107.76 405.54C107.24 403.96 108.46 402.34 110.13 402.42C119.04 402.87 141.32 403.98 176.96 405.75Z" id="a3aRJqaO7p"></path><path d="M462.6 439.46C462.6 449.48 453.42 457.62 442.11 457.62C430.8 457.62 421.62 449.48 421.62 439.46C421.62 429.44 430.8 421.3 442.11 421.3C453.42 421.3 462.6 429.44 462.6 439.46Z" id="ibPmTC52W"></path><path d="M458.27 439.46C458.27 447.25 451.03 453.58 442.11 453.58C433.19 453.58 425.95 447.25 425.95 439.46C425.95 431.67 433.19 425.34 442.11 425.34C451.03 425.34 458.27 431.67 458.27 439.46Z" id="aWlGX6rMt"></path><path d="M355.16 439.46C355.16 449.48 345.98 457.62 334.67 457.62C323.35 457.62 314.17 449.48 314.17 439.46C314.17 429.44 323.35 421.3 334.67 421.3C345.98 421.3 355.16 429.44 355.16 439.46Z" id="bctqljjy4"></path><path d="M350.82 439.46C350.82 447.25 343.58 453.58 334.67 453.58C325.75 453.58 318.51 447.25 318.51 439.46C318.51 431.67 325.75 425.34 334.67 425.34C343.58 425.34 350.82 431.67 350.82 439.46Z" id="cSR3fSFc9"></path><path d="M245.04 439.46C245.04 449.48 235.86 457.62 224.54 457.62C213.23 457.62 204.05 449.48 204.05 439.46C204.05 429.44 213.23 421.3 224.54 421.3C235.86 421.3 245.04 429.44 245.04 439.46Z" id="aMy6HxYB9"></path><path d="M240.7 439.46C240.7 447.25 233.46 453.58 224.54 453.58C215.63 453.58 208.39 447.25 208.39 439.46C208.39 431.67 215.63 425.34 224.54 425.34C233.46 425.34 240.7 431.67 240.7 439.46Z" id="b4pCUvpni"></path><path d="M276.03 272.25C293.81 247.43 311 220.6 327.61 191.75C328.37 190.42 330.11 190.04 331.36 190.93C332.22 191.55 332.49 191.75 333.36 192.37C334.69 193.32 335.1 195.11 334.32 196.55C318.29 226.22 301.38 253.48 283.59 278.3C265.86 303.05 247.27 325.4 227.8 345.36C226.66 346.54 224.82 346.7 223.48 345.74C222.62 345.12 222.35 344.93 221.48 344.31C220.24 343.42 220.06 341.65 221.08 340.53C239.98 319.76 258.29 297 276.03 272.25Z" id="aISDnWv8O"></path><path d="M317.7 290.37C329.02 274.58 339.53 257.18 349.23 238.19C349.91 236.87 351.61 236.45 352.82 237.32C353.67 237.94 353.94 238.13 354.8 238.74C356.13 239.7 356.6 241.47 355.91 242.96C346.82 262.66 336.62 280.42 325.3 296.22C314.03 311.94 301.66 325.76 288.18 337.68C286.94 338.77 285.11 338.87 283.76 337.9C282.9 337.29 282.63 337.1 281.78 336.48C280.58 335.62 280.45 333.89 281.5 332.86C294.37 320.26 306.44 306.1 317.7 290.37Z" id="c1K32qOJCG"></path><path d="M442.05 289.28C447.9 307.81 452.49 327.6 455.82 348.67C456.06 350.14 457.54 351.06 458.96 350.61C459.97 350.29 460.28 350.19 461.29 349.87C462.85 349.38 463.85 347.84 463.66 346.21C461.13 324.66 456.93 304.61 451.08 286.08C445.25 267.64 437.77 250.66 428.66 235.15C427.82 233.72 426.1 233.07 424.53 233.57C423.52 233.88 423.21 233.98 422.2 234.3C420.79 234.74 420.13 236.35 420.81 237.66C429.14 253.63 436.22 270.83 442.05 289.28Z" id="emDhhJTJZ"></path></defs><g><g><g><use xlink:href="#a4uJa74Ugl" opacity="1" fill="#44415c" fill-opacity="1"></use></g><g><use xlink:href="#h6DVYL9nYz" opacity="1" fill="#666666" fill-opacity="1"></use></g><g><use xlink:href="#bg7Z8N8pW" opacity="1" fill="#d4d2bf" fill-opacity="1"></use></g><g><use xlink:href="#fgVENuGQz" opacity="1" fill="#457c72" fill-opacity="1"></use></g><g><use xlink:href="#a3A8kQloBJ" opacity="1" fill="#d4d2bf" fill-opacity="1"></use></g><g><use xlink:href="#hf0WiaC2" opacity="1" fill="#775034" fill-opacity="1"></use><g><use xlink:href="#hf0WiaC2" opacity="1" fill-opacity="0" stroke="#fa9316" stroke-width="0" stroke-opacity="1"></use></g></g><g><use xlink:href="#a3aRJqaO7p" opacity="1" fill="#5a3405" fill-opacity="1"></use></g><g><use xlink:href="#ibPmTC52W" opacity="1" fill="#ffcc00" fill-opacity="1"></use></g><g><use xlink:href="#aWlGX6rMt" opacity="1" fill="#8dd4db" fill-opacity="1"></use></g><g><use xlink:href="#bctqljjy4" opacity="1" fill="#ffcc00" fill-opacity="1"></use></g><g><use xlink:href="#cSR3fSFc9" opacity="1" fill="#8dd4db" fill-opacity="1"></use></g><g><use xlink:href="#aMy6HxYB9" opacity="1" fill="#ffcc00" fill-opacity="1"></use></g><g><use xlink:href="#b4pCUvpni" opacity="1" fill="#8dd4db" fill-opacity="1"></use></g><g><use xlink:href="#aISDnWv8O" opacity="1" fill="#b1b09f" fill-opacity="1"></use></g><g><use xlink:href="#c1K32qOJCG" opacity="1" fill="#b1b09f" fill-opacity="1"></use></g><g><use xlink:href="#emDhhJTJZ" opacity="1" fill="#b1b09f" fill-opacity="1"></use></g></g></g></svg>