<svg id="Montaña" xmlns="http://www.w3.org/2000/svg" viewBox="0 0 1504.98 815.59"><defs><style>.cls-1{fill:#8e9191;}.cls-2{fill:#6f7273;}.cls-3{fill:#868989;}.cls-4{fill:#8dbf85;}.cls-5{fill:#a5c69e;}</style></defs><path class="cls-1" d="M751.47,475.08,433,449.22c-6.43-.53-11.4-6.22-11.4-13.06V337a13.81,13.81,0,0,1,1.16-5.53l56.94-137.32c.52.79,182.76.61,279.93-13.72,35.5-5.23,82.11-12.82,115.39-19.32,0,0-6,61.68,14.31,70,0,0,84.07-3,103.37-8.2a12.23,12.23,0,0,1,14.66,8.22c13.78,40.33,62.86,160.81,62.73,148.41l-314.25,95A11.71,11.71,0,0,1,751.47,475.08Z" transform="translate(-251.02 -142.95)"/><path class="cls-2" d="M1756,958.54H251s79.25-268.9,65.76-351.11a14.91,14.91,0,0,1,7.62-15.57c9.77-5.25,25.55-15.77,41.33-34.94,19.11-23.18,38.22-59,46.72-113.45a14.94,14.94,0,0,1,9.1-11.52c33.6-13.77,163.71-66.81,184.28-70.67,19.52-3.66,137.64-5.31,216.57,18.3C874,395,928.67,397.79,981.3,386.21c3.5-.77,6.83-1.55,10-2.31,26.77-6.47,48.19-14,69.26-20.22,24.65-7.28,48.81-12.79,80.47-12.75a276.62,276.62,0,0,1,43.69,3.55,51.87,51.87,0,0,1,34.09,21.31A491.48,491.48,0,0,0,1277,444.07c26.15,25.5,64,62.41,113.48,88.51A274.89,274.89,0,0,0,1454,556.92q9.6,2.34,19.62,3.94c78.59,12.45,134.35-18,156.7,13.31,6,8.36,19.54,34.7,19.22,44.35,0,.22,27.87,4.26,45.72,6.82a19.57,19.57,0,0,1,16.6,16.68Z" transform="translate(-251.02 -142.95)"/><path class="cls-3" d="M1454,556.92H365.73c19.11-23.18,38.22-59,46.72-113.45a14.94,14.94,0,0,1,9.1-11.52c33.6-13.77,163.71-66.81,184.28-70.67,19.52-3.66,137.64-5.31,216.57,18.3C874,395,928.67,397.79,981.3,386.21c3.5-.77,6.83-1.55,10-2.31,26.77-6.47,48.19-14,69.26-20.22,24.65-7.28,48.81-12.79,80.47-12.75a277.81,277.81,0,0,1,60.29,6.75,15.62,15.62,0,0,1,9.61,6.61A491.8,491.8,0,0,0,1277,444.07c26.15,25.5,64,62.41,113.48,88.51A274.89,274.89,0,0,0,1454,556.92Z" transform="translate(-251.02 -142.95)"/><path class="cls-3" d="M1649.56,618.52c-165.16,20.63-261.72,18.65-304.9,16.61-63.05-3-169.78,54.81-208.42,56.28-53.57,2.05-99.9,1-127.8,7.52-28.17-27.59,78.53-103.79,50.37-131.38l100.82-10.63,230.86-24.34A274.89,274.89,0,0,0,1454,556.92q9.6,2.34,19.62,3.94c63.31,10,123.2-9.07,144.09-16.87a9.24,9.24,0,0,1,11.81,5.16C1637.25,568.16,1649.83,610.52,1649.56,618.52Z" transform="translate(-251.02 -142.95)"/><path class="cls-4" d="M332.19,587.25c37.9-3,93-3.18,155.37,13.53,77.21,20.66,100.81,49.74,161.15,72.44,24.95,9.38,45.39,13.1,63.64,13.59,53.76,1.44,156.09-10.78,202.66-.74,66.19,14.27,120,12,146.16,10.8a567.76,567.76,0,0,0,170-34c43.6-15.83,71.3-81.85,103-91.27,27.62-8.21,98.45-9.65,112.2-16.66a1659.87,1659.87,0,0,1-176.74-35.47c-68.28-17.68-103.48-31.6-162.62-31.05-69.06.64-112.36,17.74-112.36,17.74-28.31,8.95-38.6,16-62.09,16.26-33.39.33-45.76-13.68-81.31-20.69-34.92-6.9-57.62-.22-84.27,2.95-97.59,11.63-132.46-37.48-223.23-37-36.23.21-88.38,8.37-151.81,46.72l-22.44,27.35Q350.85,564.52,332.19,587.25Z" transform="translate(-251.02 -142.95)"/><path class="cls-4" d="M1402,638.7a633.06,633.06,0,0,1,142.61-22.56A674.88,674.88,0,0,1,1705,628.76a172.45,172.45,0,0,0-36.76,31.59c-13.17,14.86-18.07,25.22-30.8,28.2-8.74,2.05-13.57-1.16-29.19-5.21-10.47-2.71-21.26-20-40.54-20.58-8.77,0-25.76,15.59-38.45,23.11C1513.87,695,1511,705.34,1500,705c-11.91-.42-13.58-12.62-32.57-22.17-17.72-8.91-23.37-1.87-36.83-10.3C1422.88,667.68,1411.33,661.55,1402,638.7Z" transform="translate(-251.02 -142.95)"/><path class="cls-5" d="M897.76,230.93c23.73-1.12,40-3.22,63.69-4.34,14.43-.68,27.81-5.36,42.24-6,3.75,8.92,7.6,23.08,11.35,32a160.9,160.9,0,0,0-36.66-3.63c-27.54.47-39.28,7.85-57.65,3C912.84,249.78,909.88,244.55,897.76,230.93Z" transform="translate(-251.02 -142.95)"/><path class="cls-5" d="M878.67,218.78a80.44,80.44,0,0,0-29.84-15.44c-22.26-5.89-37.82,1.17-57.06,4.94-48.24,9.46-53.73-14.69-105.36-8-37.7,4.9-35,17.81-72.26,20.54-32.42,2.37-43.82-6.7-79.88-6.47a220.33,220.33,0,0,0-67.6,11.22c-1-10.45,6.47-23.68,10.74-39.32.64-2.31,3.3-2.86,4.54-3.7,39.36-26.43,106.36-24.31,106.36-24.31,105.68-5.36,102.78-4.7,150.63-12,36.33-5.53,58.55-3.33,86.72.57,25.93,3.59,43.45,10.6,48.19,10.82a5.94,5.94,0,0,1,3.78,1.37,5,5,0,0,1,1.57,3.7,250.32,250.32,0,0,0-.53,56.05Z" transform="translate(-251.02 -142.95)"/></svg>