<svg id="Layer_1" data-name="Layer 1" xmlns="http://www.w3.org/2000/svg" viewBox="0 0 723.95 559.73"><defs><style>.cls-1{fill:#7f5a47;}.cls-2{fill:#6b4b3d;}.cls-3{fill:#ecb937;}.cls-4{fill:#4f362c;}.cls-5{fill:#604338;}</style></defs><path class="cls-1" d="M1274.29,754.21H686.88c-20.71,0-37.49-14.35-37.49-32.05V446.79c.75-28.12,7.32-107.5,76.31-164.76,72.65-60.3,169.39-58.6,266.2-56.9,88.36,1.55,179.93,3.16,246,58.93,34.68,29.28,73.82,71,73.82,162.73V722.21C1311.71,739.89,1295,754.21,1274.29,754.21Z" transform="translate(-615.46 -224.57)"/><rect class="cls-2" x="282.95" y="66.55" width="158.06" height="80.81" rx="29.12"/><rect class="cls-2" x="279.36" y="279.27" width="165.24" height="131.91" rx="29.12"/><rect class="cls-3" y="122.89" width="723.95" height="83.74" rx="29.15"/><circle class="cls-2" cx="81.69" cy="248.43" r="28.5"/><circle class="cls-2" cx="647.37" cy="421.94" r="28.5"/><circle class="cls-2" cx="81.69" cy="421.94" r="28.5"/><circle class="cls-2" cx="647.37" cy="248.43" r="28.5"/><circle class="cls-2" cx="365.09" cy="66.55" r="28.5"/><rect class="cls-4" x="346.03" y="324.51" width="31.9" height="68.93" rx="15.95"/><rect class="cls-2" x="150.64" y="83.19" width="76.06" height="455.15" rx="12.48"/><rect class="cls-2" x="507.16" y="83.19" width="76.06" height="455.15" rx="12.48"/><rect class="cls-5" x="15.6" y="464.66" width="698.97" height="95.07" rx="21.99"/><circle class="cls-4" cx="361.98" cy="335.64" r="25.99"/></svg>