<svg id="Layer_2" data-name="Layer 2" xmlns="http://www.w3.org/2000/svg" viewBox="0 0 2789.4 1186.2"><defs><style>.cls-1{fill:#7e645e;}.cls-2{fill:#8dbf85;}.cls-3{fill:#a9d9a3;}.cls-4{fill:#efebce;}</style></defs><path class="cls-1" d="M139,473s97,124,138,302l29.9-14.5S283,594,162,462Z" transform="translate(404 -440.8)"/><path class="cls-2" d="M154.2,460S54,475,72,639C72,639,193.4,609,154.2,460Z" transform="translate(404 -440.8)"/><path class="cls-2" d="M337.5,498.8s-36-94.7-192.4-42.1C145.1,456.7,200.3,568.9,337.5,498.8Z" transform="translate(404 -440.8)"/><path class="cls-3" d="M226,596.4s42.5-72.6-72.9-146.4C153.1,450,109.3,544.1,226,596.4Z" transform="translate(404 -440.8)"/><ellipse class="cls-3" cx="154.5" cy="460" rx="26.5" ry="10" transform="translate(249.8 -355.2) rotate(-20.9)"/><path class="cls-1" d="M1785.3,524s-97,124-138,302l-29.8-14.5S1641.3,645,1762.3,513Z" transform="translate(404 -440.8)"/><path class="cls-2" d="M1770.2,511s100.1,15,82.1,179C1852.3,690,1731,660,1770.2,511Z" transform="translate(404 -440.8)"/><path class="cls-2" d="M1586.8,549.8s36.1-94.7,192.4-42.1C1779.2,507.7,1724,619.9,1586.8,549.8Z" transform="translate(404 -440.8)"/><path class="cls-3" d="M1698.3,647.4s-42.5-72.6,73-146.4C1771.3,501,1815.1,595.1,1698.3,647.4Z" transform="translate(404 -440.8)"/><ellipse class="cls-3" cx="1769.8" cy="511" rx="10" ry="26.5" transform="translate(1064.1 1540.5) rotate(-69.1)"/><path class="cls-4" d="M1920,1080s-197.5-335.5-402.5-358.5-417,5-534,17-485-99-657-40S0,1080,0,1080s-196,410-404,547H2385.4S2001,1198,1920,1080Z" transform="translate(404 -440.8)"/><path class="cls-1" d="M735.1,463s56.7,146.9,44.1,329.1l32.7-5.2s25.7-166.2-51.6-327.7Z" transform="translate(404 -440.8)"/><path class="cls-2" d="M753.4,455S653.2,440.2,622.7,602.3C622.7,602.3,747.5,609,753.4,455Z" transform="translate(404 -440.8)"/><path class="cls-2" d="M917.5,545.5s-6.9-101.1-171.8-96.3C745.7,449.2,765.8,572.6,917.5,545.5Z" transform="translate(404 -440.8)"/><path class="cls-3" d="M782.4,606.4s61.8-57.1-27.1-161.3C755.3,445.1,685.9,522.3,782.4,606.4Z" transform="translate(404 -440.8)"/><ellipse class="cls-3" cx="753.7" cy="455.1" rx="26.5" ry="10" transform="matrix(1, -0.07, 0.07, 1, 374.01, -386.97)"/><ellipse class="cls-4" cx="1193.5" cy="423.7" rx="85.5" ry="103.5"/></svg>