<svg id="Layer_1" data-name="Layer 1" xmlns="http://www.w3.org/2000/svg" viewBox="0 0 1220.5 635"><defs><style>.cls-1{fill:#8e9191;}.cls-2{fill:#7b7d7d;}.cls-3{fill:#868989;}.cls-4{fill:#6f7273;}.cls-5{fill:#6a6b6b;}</style></defs><polygon class="cls-1" points="401.5 112 433.5 0 596.5 35.1 660 178.9 438.2 178.9 401.5 112"/><polygon class="cls-1" points="938.6 178.9 846.5 31.6 596.5 69 620.5 210 938.6 178.9"/><polygon class="cls-2" points="473.5 296 536.5 168 636.5 120 784.5 190 846.5 339 714.5 368 473.5 296"/><polygon class="cls-3" points="270.5 277 300.5 149 436.5 82 586.5 160 596.5 297.7 466.1 359.6 270.5 277"/><path class="cls-3" d="M1067,760c3-4,72-135,72-135l113-41,115,57,48,179-75,27-273-83" transform="translate(-363.5 -446)"/><polygon class="cls-4" points="473 485.2 501.5 266 696.5 245 867.5 456 752.5 546 473 485.2"/><polygon class="cls-2" points="181.5 446 236.5 268 425.5 227 525.5 361 525.5 492.2 181.5 446"/><polygon class="cls-2" points="686.5 516 741.5 338 923.5 245 1075.5 383 1089.5 524 686.5 516"/><polygon class="cls-4" points="736 541.5 845 413.5 1101.5 438 1220.5 635 736 634.5 736 541.5"/><polygon class="cls-4" points="0 634.5 416 634.5 473 541.5 379 406.5 171 425.5 0 634.5"/><polygon class="cls-5" points="656.2 406.5 395 476.5 377.5 634.5 838.8 634.5 731 448.5 656.2 406.5"/></svg>