<svg id="Layer_1" data-name="Layer 1" xmlns="http://www.w3.org/2000/svg" viewBox="0 0 950.32 358.01"><defs><style>.cls-1{fill:#89796d;}.cls-2{fill:#75665c;}</style></defs><path class="cls-1" d="M1357.06,308.45l-895.77-4.4c-15-.07-27.24,2.09-27.26,4.84L434,324.36c0,2.74,12.17,5,27.21,5.1l895.77,4.4c15,.08,27.24-2.09,27.26-4.84l.07-15.47C1384.29,310.81,1372.1,308.52,1357.06,308.45Z" transform="translate(-433.96 -277.69)"/><path class="cls-2" d="M712.36,288V625.44c0,5.67,2.23,10.26,5,10.26H732.8c2.75,0,5-4.59,5-10.26V288c0-5.67-2.23-10.27-5-10.27H717.33C714.59,277.69,712.36,282.29,712.36,288Z" transform="translate(-433.96 -277.69)"/><path class="cls-2" d="M532.25,288V625.44c0,5.67,2.23,10.26,5,10.26h15.47c2.75,0,5-4.59,5-10.26V288c0-5.67-2.23-10.27-5-10.27H537.22C534.48,277.69,532.25,282.29,532.25,288Z" transform="translate(-433.96 -277.69)"/><path class="cls-2" d="M900.21,288V625.44c0,5.67,2.22,10.26,5,10.26h15.47c2.74,0,5-4.59,5-10.26V288c0-5.67-2.23-10.27-5-10.27H905.18C902.43,277.69,900.21,282.29,900.21,288Z" transform="translate(-433.96 -277.69)"/><path class="cls-2" d="M1088.05,288V625.44c0,5.67,2.23,10.26,5,10.26h15.47c2.75,0,5-4.59,5-10.26V288c0-5.67-2.22-10.27-5-10.27H1093C1090.28,277.69,1088.05,282.29,1088.05,288Z" transform="translate(-433.96 -277.69)"/><path class="cls-2" d="M1273.69,288V625.44c0,5.67,2.22,10.26,5,10.26h15.47c2.74,0,5-4.59,5-10.26V288c0-5.67-2.23-10.27-5-10.27h-15.47C1275.91,277.69,1273.69,282.29,1273.69,288Z" transform="translate(-433.96 -277.69)"/></svg>