<svg id="Layer_1" data-name="Layer 1" xmlns="http://www.w3.org/2000/svg" viewBox="0 0 423 703"><defs><style>.cls-1{fill:#e1e2da;}.cls-2{fill:#f7ae47;}.cls-3{fill:#f6b050;}.cls-4{fill:#d7a56a;}.cls-5{fill:#885b56;}.cls-6{fill:#363a3d;}.cls-7{fill:#6fad91;}</style></defs><rect class="cls-1" x="51" y="19" width="94" height="55"/><rect class="cls-1" x="283" y="20" width="94" height="55"/><rect class="cls-2" x="10" y="322" width="404" height="250"/><rect class="cls-3" x="10" y="125" width="404" height="197"/><rect class="cls-1" x="3" y="505" width="417" height="193" rx="8.4"/><path class="cls-4" d="M5.7,673H417.3a5.7,5.7,0,0,1,5.7,5.7V703a0,0,0,0,1,0,0H0a0,0,0,0,1,0,0V678.7A5.7,5.7,0,0,1,5.7,673Z"/><polygon class="cls-5" points="422 134 2 134 22 47 402 47 422 134"/><rect class="cls-4" x="16" y="540" width="101" height="163"/><rect class="cls-6" x="26" y="551" width="82" height="152"/><path class="cls-4" d="M158.8,319H263a27.8,27.8,0,0,1,27.8,27.8V505a0,0,0,0,1,0,0H131a0,0,0,0,1,0,0V346.8A27.8,27.8,0,0,1,158.8,319Z"/><path class="cls-6" d="M159.5,336H263.5A14.5,14.5,0,0,1,278,350.5V505a0,0,0,0,1,0,0H145a0,0,0,0,1,0,0V350.5A14.5,14.5,0,0,1,159.5,336Z"/><rect class="cls-4" x="26" y="154" width="83" height="123" rx="41.5"/><rect class="cls-6" x="39" y="164" width="56" height="102" rx="28"/><rect class="cls-4" x="170" y="154" width="83" height="123" rx="41.5"/><rect class="cls-6" x="183" y="164" width="56" height="102" rx="28"/><rect class="cls-4" x="171" y="540" width="83" height="123" rx="41.5"/><rect class="cls-6" x="184" y="550" width="56" height="102" rx="28"/><rect class="cls-4" x="310.4" y="540.1" width="83" height="123" rx="41.5"/><rect class="cls-6" x="323.4" y="550.1" width="56" height="102" rx="28"/><rect class="cls-4" x="310" y="154" width="83" height="123" rx="41.5"/><rect class="cls-6" x="323" y="164" width="56" height="102" rx="28"/><rect class="cls-1" y="119" width="423" height="30" rx="5.7"/><rect class="cls-5" x="16" y="36" width="391" height="22" rx="11"/><rect class="cls-5" x="39" width="118" height="22" rx="11"/><rect class="cls-5" x="271" width="118" height="22" rx="11"/><ellipse class="cls-7" cx="171.3" cy="491.9" rx="19.4" ry="20.8"/><ellipse class="cls-7" cx="230.4" cy="487" rx="23.9" ry="25.7"/><ellipse class="cls-7" cx="195.2" cy="480.2" rx="23.8" ry="25.6"/><rect class="cls-5" x="123" y="496" width="179" height="22" rx="11"/></svg>