<svg id="Layer_1" data-name="Layer 1" xmlns="http://www.w3.org/2000/svg" viewBox="0 0 590.4 748"><defs><style>.cls-1{fill:#a1c9e2;}.cls-2{fill:#885b56;}.cls-3{fill:#79acc6;}.cls-4{fill:#e1e2da;}.cls-5,.cls-6{fill:#363a3d;}.cls-6{stroke:#e1e2da;stroke-linecap:round;stroke-linejoin:round;stroke-width:10px;}.cls-7{fill:#6fad91;}</style></defs><rect class="cls-1" x="210.9" y="6" width="150" height="84"/><polygon class="cls-2" points="576.4 168.5 171.4 168.5 191.5 72 556.4 72 576.4 168.5"/><polygon class="cls-3" points="210.9 747 28.9 747 28.9 310 211.4 208.5 210.9 747"/><rect class="cls-2" x="653.7" y="418.4" width="218" height="30" rx="15" transform="translate(-780.8 273.5) rotate(-30)"/><rect class="cls-2" x="197.6" width="176.8" height="22" rx="11"/><rect class="cls-2" x="188.3" y="60.2" width="372.9" height="23.75" rx="11"/><rect class="cls-1" x="172.9" y="164" width="404" height="584"/><rect class="cls-4" x="157.1" y="156.5" width="433.3" height="24.79" rx="12.3"/><path class="cls-4" d="M213.3,577h76.3a17.4,17.4,0,0,1,17.4,17.4V748a0,0,0,0,1,0,0h-111a0,0,0,0,1,0,0V594.4A17.4,17.4,0,0,1,213.3,577Z"/><path class="cls-5" d="M223.6,589h54.6a13.7,13.7,0,0,1,13.7,13.7V748a0,0,0,0,1,0,0h-82a0,0,0,0,1,0,0V602.7A13.7,13.7,0,0,1,223.6,589Z"/><rect class="cls-6" x="360.9" y="595" width="164" height="102" rx="21.5"/><path class="cls-6" d="M353.5,219H503.4a21.5,21.5,0,0,1,21.5,21.5V321a0,0,0,0,1,0,0h-193a0,0,0,0,1,0,0V240.5A21.5,21.5,0,0,1,353.5,219Z"/><path class="cls-6" d="M228.8,405H265a9.9,9.9,0,0,1,9.9,9.9V507a0,0,0,0,1,0,0h-56a0,0,0,0,1,0,0V414.9A9.9,9.9,0,0,1,228.8,405Z"/><rect class="cls-6" x="63.9" y="362" width="56" height="102" rx="9.9"/><rect class="cls-6" x="63.9" y="595" width="56" height="102" rx="9.9"/><rect class="cls-6" x="218.9" y="219" width="56" height="102" rx="9.9"/><rect class="cls-6" x="351.9" y="405" width="56" height="102" rx="9.9"/><rect class="cls-6" x="484.9" y="405" width="56" height="102" rx="9.9"/><ellipse class="cls-7" cx="358.3" cy="315.9" rx="14.6" ry="15.7"/><ellipse class="cls-7" cx="383.3" cy="320.9" rx="14.6" ry="15.7"/><ellipse class="cls-7" cx="439.3" cy="315.9" rx="14.6" ry="15.7"/><ellipse class="cls-7" cx="233.3" cy="504.9" rx="14.6" ry="15.7"/><ellipse class="cls-7" cx="485.3" cy="317.9" rx="14.6" ry="15.7"/><ellipse class="cls-7" cx="502.3" cy="320.9" rx="14.6" ry="15.7"/><ellipse class="cls-7" cx="411.6" cy="309.3" rx="18" ry="19.3"/><ellipse class="cls-7" cx="255.6" cy="500.3" rx="18" ry="19.3"/><rect class="cls-2" x="316.9" y="320.7" width="223.2" height="16.29" rx="8.1"/><rect class="cls-2" x="198.1" y="506.7" width="96.8" height="16.29" rx="8.1"/><rect class="cls-4" x="306.9" y="732" width="270" height="16"/><rect class="cls-4" x="172.9" y="732" width="35" height="16"/></svg>