
<svg xmlns="http://www.w3.org/2000/svg" version="1.1" xmlns:xlink="http://www.w3.org/1999/xlink" preserveAspectRatio="none" x="0px" y="0px" width="1920px" height="1080px" viewBox="0 0 1920 1080">
<defs>
<g id="Layer1_0_FILL">
<path fill="#FFD966" stroke="none" d="
M 1348 350.85
L 1348 388.7 1396 380
Q 1407.45 383.1 1413.15 381.05 1417.95 379.35 1418 374.5 1418.1 370.25 1414.85 365.95 1411.65 361.6 1408 361
L 1348 350.85 Z"/>
</g>

<g id="Layer1_1_FILL">
<path fill="#E2E2E2" stroke="none" d="
M 1311.8 484.45
Q 1310.1 468.2 1302.25 454 1294.7 440.3 1282.5 430.35 1270.25 420.45 1255.3 415.9 1239.75 411.15 1223.5 412.85
L 951 441.3
Q 954.55 475.5 971.05 505.35 986.95 534.2 1012.65 555.05 1038.35 575.85 1069.85 585.5 1102.45 595.4 1136.65 591.85
L 1232.9 581.8
Q 1250.8 579.9 1266.45 571.3 1281.6 562.95 1292.5 549.45 1303.45 536 1308.45 519.45 1313.7 502.4 1311.8 484.45 Z"/>
</g>

<g id="Layer1_2_FILL">
<path fill="#E2E2E2" stroke="none" d="
M 1364 376.5
Q 1364 366.2 1357.75 356.85 1351.75 347.8 1340.8 340.8 1317.55 326 1284.75 326 1254.35 326 1240 342.1 1228 355.6 1228 379.15 1228 401.85 1240 413.5 1253.85 427 1284.75 427 1317.55 427 1340.8 412.2 1351.75 405.2 1357.75 396.15 1364 386.75 1364 376.5 Z"/>
</g>

<g id="Layer1_3_FILL">
<path fill="#E2E2E2" stroke="none" d="
M 1308.75 464.4
L 1331 409.6 1228.15 367.85 1194.25 451.4
Q 1188.05 466.75 1194.45 482 1200.9 497.3 1216.25 503.5 1229.65 508.95 1243.95 508.75 1257.8 508.55 1270.6 503.1 1283.4 497.7 1293.2 487.9 1303.3 477.8 1308.75 464.4 Z"/>
</g>

<g id="Layer1_4_FILL">
<path fill="#6B6B6B" stroke="none" d="
M 1272.95 462.15
Q 1270.25 438.6 1250.7 423.6 1231.1 408.65 1206.1 411
L 975.95 432.8
Q 978.75 457.15 991.25 478.4 1003.35 498.95 1022.8 513.85 1042.25 528.7 1066.05 535.65 1090.7 542.8 1116.5 540.35
L 1213.6 531.15
Q 1241.15 528.55 1258.55 508.35 1275.95 488.15 1272.95 462.15 Z"/>
</g>
</defs>

<g transform="matrix( 1, 0, 0, 1, -224.7,39.8) ">
<use xlink:href="#Layer1_0_FILL"/>
</g>

<g transform="matrix( 1, 0, 0, 1, -224.7,39.8) ">
<use xlink:href="#Layer1_1_FILL"/>
</g>

<g transform="matrix( 1, 0, 0, 1, -224.7,39.8) ">
<use xlink:href="#Layer1_2_FILL"/>
</g>

<g transform="matrix( 1, 0, 0, 1, -224.7,39.8) ">
<use xlink:href="#Layer1_3_FILL"/>
</g>

<g transform="matrix( 1, 0, 0, 1, -224.7,39.8) ">
<use xlink:href="#Layer1_4_FILL"/>
</g>
</svg>
