
<svg xmlns="http://www.w3.org/2000/svg" version="1.1" xmlns:xlink="http://www.w3.org/1999/xlink" preserveAspectRatio="none" x="0px" y="0px" width="1920px" height="1080px" viewBox="0 0 1920 1080">
<defs>
<g id="Layer0_0_FILL">
<path fill="#473C37" stroke="none" d="
M 893.2 464.65
Q 868.15 458.4 836.7 463.65 814.25 467.4 790.8 476.5 783.45 479.4 776.95 482.4
L 771.85 484.9 775.05 484.1
Q 779.25 483.15 784.35 482.6 800.6 480.85 819.25 483.4 879 491.6 940.7 540 987.75 494.2 1056.6 483.5 1078.1 480.15 1099.2 480.7 1109.75 480.95 1116 481.9 1110.4 478.2 1100.7 473.8 1081.35 465.05 1060.9 461.65 995.45 450.8 943.9 497.9 924.5 472.45 893.2 464.65 Z"/>
</g>
</defs>

<g transform="matrix( 1, 0, 0, 1, 16,40.1) ">
<use xlink:href="#Layer0_0_FILL"/>
</g>
</svg>
