
<svg xmlns="http://www.w3.org/2000/svg" version="1.1" xmlns:xlink="http://www.w3.org/1999/xlink" preserveAspectRatio="none" x="0px" y="0px" width="1920px" height="1080px" viewBox="0 0 1920 1080">
<defs>
<g id="Layer0_0_FILL">
<path fill="#473C37" stroke="none" d="
M 892.6 468.2
Q 867.1 464.8 834.85 475.05 811.75 482.4 787.65 495.8 780.05 500 773.35 504.3
L 768.1 507.75 771.45 505.95
Q 775.9 503.8 781.2 501.9 798.1 495.85 817.4 494.85 879 491.6 940.7 540 987.75 494.2 1055.65 498.9 1076.85 500.35 1097.6 506.65 1107.95 509.85 1114.1 512.7 1108.6 507.05 1099.1 499.8 1080.1 485.25 1059.95 477.05 1031.75 465.55 1005.3 468.4 972.25 472 943.9 497.9 924.5 472.45 892.6 468.2 Z"/>
</g>
</defs>

<g transform="matrix( 1, 0, 0, 1, 16,40.1) ">
<use xlink:href="#Layer0_0_FILL"/>
</g>
</svg>
