
<svg xmlns="http://www.w3.org/2000/svg" version="1.1" xmlns:xlink="http://www.w3.org/1999/xlink" preserveAspectRatio="none" x="0px" y="0px" width="1920px" height="1080px" viewBox="0 0 1920 1080">
<defs>
<g id="Layer0_0_FILL">
<path fill="#473C37" stroke="none" d="
M 943.9 497.9
Q 908.6 451.6 837.05 452.55 814.7 452.8 791.4 457.8 784.15 459.35 777.6 461.15
L 772.55 462.7 784.95 463.9
Q 801.05 466.3 819.6 472.3 879 491.6 940.7 540 987.75 494.2 1055.8 472.4 1077.05 465.6 1097.85 462 1108.25 460.2 1114.4 459.75 1108.9 457.45 1099.35 455.1 1080.3 450.5 1060.1 450.55 995.45 450.8 943.9 497.9 Z"/>
</g>
</defs>

<g transform="matrix( 1, 0, 0, 1, 16,40.1) ">
<use xlink:href="#Layer0_0_FILL"/>
</g>
</svg>
