
<svg xmlns="http://www.w3.org/2000/svg" version="1.1" xmlns:xlink="http://www.w3.org/1999/xlink" preserveAspectRatio="none" x="0px" y="0px" width="1920px" height="1080px" viewBox="0 0 1920 1080">
<defs>
<g id="Layer0_0_FILL">
<path fill="#473C37" stroke="none" d="
M 892.6 473.3
Q 867.1 473.95 834.85 491.3 811.75 503.7 787.65 523.2 780.05 529.35 773.35 535.4
L 768.1 540.25 781.2 533.8
Q 798.1 526.65 817.35 523.05 879 511.55 940.7 540 998.05 513.85 1061.45 527.65 1081.25 531.95 1099.3 539.75 1108.35 543.65 1113.4 546.7 1107.35 538.6 1097.1 527.7 1076.6 505.9 1055.75 491.95 1026.6 472.4 1000.9 471.35 968.75 470.1 943.9 497.9 924.5 472.45 892.6 473.3 Z"/>
</g>
</defs>

<g transform="matrix( 1, 0, 0, 1, 16,40.1) ">
<use xlink:href="#Layer0_0_FILL"/>
</g>
</svg>
