<svg id="Layer_1" data-name="Layer 1" xmlns="http://www.w3.org/2000/svg" viewBox="0 0 238.1 343.4"><defs><style>.cls-1{fill:#d4d2bf;}.cls-2{fill:#bab6a4;}.cls-3{fill:none;stroke:#bab6a4;stroke-linecap:round;stroke-miterlimit:10;stroke-width:5px;}</style></defs><path class="cls-1" d="M439.4,149.5a.7.7,0,0,0-1.4-.4c-18.3,46.1-48.7,109.6-96.9,171.2S243.7,430.1,203.9,459.8a4.5,4.5,0,0,0,2.9,8.2,835.6,835.6,0,0,1,130.5,5.3A822.7,822.7,0,0,1,438.6,492a1.4,1.4,0,0,0,1.6-1.5,1025.1,1025.1,0,0,1-13.6-185.9C427.6,251.2,432.7,192.6,439.4,149.5Z" transform="translate(-202.1 -148.6)"/><path class="cls-2" d="M432.2,208.4c-2.3,39.6-12.8,121.7-71.4,197.8a338.6,338.6,0,0,1-64.2,63.3,826.6,826.6,0,0,1,92.5,11.7c17.4,3.2,33.9,6.9,49.5,10.8-4.3-30.9-7.8-63.9-9.9-98.8A1202.8,1202.8,0,0,1,432.2,208.4Z" transform="translate(-202.1 -148.6)"/><path class="cls-3" d="M286.3,425.2a383.5,383.5,0,0,0,72.2-74,382.9,382.9,0,0,0,52-96.2" transform="translate(-202.1 -148.6)"/></svg>