<svg id="Layer_1" data-name="Layer 1" xmlns="http://www.w3.org/2000/svg" viewBox="0 0 441.1 439.4"><defs><style>.cls-1,.cls-10,.cls-11{fill:none;stroke-linecap:round;}.cls-1{stroke:#666;stroke-width:4px;}.cls-1,.cls-10,.cls-11,.cls-9{stroke-miterlimit:10;}.cls-2{fill:#d4d2bf;}.cls-3{fill:#bab6a4;}.cls-4{fill:#457c72;}.cls-5{fill:#775034;}.cls-6{fill:#6b472e;}.cls-7{fill:#5a3405;}.cls-8{fill:#8dd4db;}.cls-9{fill:#fff;stroke:#000;stroke-width:0.25px;}.cls-10{stroke:#fff;stroke-width:3px;opacity:0.49;}.cls-11{stroke:#bab6a4;stroke-width:5px;}</style></defs><line class="cls-1" x1="9.7" y1="367.1" x2="44.5" y2="319.3"/><line class="cls-1" x1="402.7" y1="372.5" x2="394.5" y2="314"/><path class="cls-2" d="M357.6,111.3a.7.7,0,0,0-1.4-.4c-18.3,46.1-48.7,109.6-96.9,171.2S161.9,391.9,122.1,421.6a4.5,4.5,0,0,0,2.9,8.2,835.6,835.6,0,0,1,130.5,5.3,822.7,822.7,0,0,1,101.3,18.7,1.4,1.4,0,0,0,1.6-1.5,1025.1,1025.1,0,0,1-13.6-185.9C345.8,213,350.8,154.4,357.6,111.3Z" transform="translate(-91 -100.5)"/><path class="cls-2" d="M357.6,111.3A681.5,681.5,0,0,1,453,284a685.2,685.2,0,0,1,36.7,142,233.9,233.9,0,0,0-67.2,3.8,236.8,236.8,0,0,0-65.7,24,584.3,584.3,0,0,0,26-166.8A587.7,587.7,0,0,0,357.6,111.3Z" transform="translate(-91 -100.5)"/><path class="cls-3" d="M350.4,170.2C348.1,209.8,337.6,291.9,279,368a335.6,335.6,0,0,1-64.2,63.3A826.6,826.6,0,0,1,307.3,443c17.4,3.2,33.9,6.9,49.5,10.8-4.3-30.9-7.8-63.9-9.9-98.8A1190.3,1190.3,0,0,1,350.4,170.2Z" transform="translate(-91 -100.5)"/><path id="fgVENuGQz" class="cls-4" d="M360.1,100.5a5.1,5.1,0,0,1,5.1,5.1V482.9a5.1,5.1,0,0,1-5.1,5.1h0a5.1,5.1,0,0,1-5.1-5.1V105.6a5.1,5.1,0,0,1,5.1-5.1Z" transform="translate(-91 -100.5)"/><path id="hf0WiaC2" class="cls-5" d="M306.4,466q102.5,0,211.6-8.4a5.7,5.7,0,0,1,5.1,8.9l-10.3,14.7c-16.4,23.4-46.7,58.7-75.2,58.7H139c-25.1,0-41.9-41.8-41.9-66.9v-4.3a11,11,0,0,1,12-11Q204.4,466,306.4,466Z" transform="translate(-91 -100.5)"/><path class="cls-6" d="M526.3,461.6c-3.9,10.4-26.6,61.8-74.1,75.2a87.1,87.1,0,0,1-23.3,3.1H339c7.8-6.2,32.4-27.6,34.5-60.2a70,70,0,0,0-1.1-18.1Z" transform="translate(-91 -100.5)"/><path id="a3aRJqaO7p" class="cls-7" d="M160.4,457.6H454.1l75-3.4a3,3,0,0,1,3.1,2.9v4a3.4,3.4,0,0,1-3.1,3.3l-73.9,4.5H160.4l-63-4.4a5.8,5.8,0,0,1-5.1-4c-.4-1.3-.6-1.8-1.1-3.2a2.4,2.4,0,0,1,2.4-3.1Z" transform="translate(-91 -100.5)"/><ellipse class="cls-7" cx="321.5" cy="397.8" rx="25.4" ry="24.7"/><path id="aWlGX6rMt" class="cls-8" d="M433.9,498.3c0,10.4-9.5,18.8-21.3,18.8s-21.3-8.4-21.3-18.8,9.5-18.7,21.3-18.7S433.9,487.9,433.9,498.3Z" transform="translate(-91 -100.5)"/><ellipse class="cls-7" cx="212.3" cy="400.3" rx="25.3" ry="25.1"/><path id="cSR3fSFc9" class="cls-8" d="M324.6,499.6c0,10.5-9.5,19.1-21.2,19.1s-21.3-8.6-21.3-19.1,9.5-19.1,21.3-19.1S324.6,489,324.6,499.6Z" transform="translate(-91 -100.5)"/><ellipse class="cls-7" cx="92.8" cy="400.3" rx="25.4" ry="24.8"/><path id="b4pCUvpni" class="cls-8" d="M204.5,500.2c0,10.3-9.6,18.8-21.3,18.8s-21.4-8.5-21.4-18.8,9.6-18.9,21.4-18.9S204.5,489.7,204.5,500.2Z" transform="translate(-91 -100.5)"/><path class="cls-9" d="M220.4,488" transform="translate(-91 -100.5)"/><path class="cls-2" d="M548.4,326" transform="translate(-91 -100.5)"/><line class="cls-10" x1="80.7" y1="405.7" x2="93.5" y2="387.5"/><line class="cls-10" x1="92.8" y1="413.3" x2="103.9" y2="397.8"/><line class="cls-10" x1="200.7" y1="405.6" x2="213.5" y2="387.4"/><line class="cls-10" x1="212.8" y1="413.2" x2="223.9" y2="397.7"/><line class="cls-10" x1="309.9" y1="401.9" x2="322.7" y2="383.7"/><line class="cls-10" x1="322" y1="409.5" x2="333.1" y2="394"/><path class="cls-11" d="M204.5,387a383.5,383.5,0,0,0,72.2-74,382.9,382.9,0,0,0,52-96.2" transform="translate(-91 -100.5)"/><path class="cls-11" d="M399.1,392.9a334,334,0,0,0,19.8-63.6,337.7,337.7,0,0,0,7.1-70.2" transform="translate(-91 -100.5)"/><path class="cls-3" d="M442.8,258.5a257.8,257.8,0,0,1-35.4,174.9,179.6,179.6,0,0,1,46.4-9,173.6,173.6,0,0,1,35.9,1.6,692.3,692.3,0,0,0-20.6-94.1A670.4,670.4,0,0,0,442.8,258.5Z" transform="translate(-91 -100.5)"/></svg>