<svg id="Layer_1" data-name="Layer 1" xmlns="http://www.w3.org/2000/svg" viewBox="0 0 132.8 342.5"><defs><style>.cls-1{fill:#d4d2bf;}.cls-2{fill:none;stroke:#bab6a4;stroke-linecap:round;stroke-miterlimit:10;stroke-width:5px;}.cls-3{fill:#bab6a4;}</style></defs><path class="cls-1" d="M.7,0C35.14,58.31,58,118,81.29,179.86,98.49,225.76,125.67,294,132.8,342.5c-46-16-90.5-15.75-132.8,0C14,287,16.91,234.24,17.43,177.71,18.08,118.17,12.76,57.17.7,0Z"/><path class="cls-2" d="M38.86,302.86c8.63-20.51,12-57.58,11.64-82.29,1.64-23.57-6-68.61-11.64-95.14"/><path class="cls-3" d="M69.46,147.2c5.42,35.49,10.45,85,8,108.51-2.57,28-11,56.67-26.93,75.5,15-1.25,27.34-1.42,45.18,1.86,17.24,2.63,25.72,5.8,37.12,9.43-4.63-31.82-25-85.46-34.1-116.3C88.57,200.86,78.29,173.43,69.46,147.2Z"/></svg>