<svg id="Layer_1" data-name="Layer 1" xmlns="http://www.w3.org/2000/svg" viewBox="0 0 238.1 343.44"><defs><style>.cls-1{fill:#d4d2bf;}.cls-2{fill:#bab6a4;}.cls-3{fill:none;stroke:#bab6a4;stroke-linecap:round;stroke-miterlimit:10;stroke-width:5px;}</style></defs><path class="cls-1" d="M237.3.9a.73.73,0,0,0-1.4-.4c-18.3,46.1-68.65,151.33-116.85,212.93S41.76,305.5,2,335.2a4.5,4.5,0,0,0,2.9,8.2c43.57-1.64,91.06-10.27,134.35-5.1,34.5,0,63.95-3.24,97.29,5.1a1.41,1.41,0,0,0,1.59-1.18,1.15,1.15,0,0,0,0-.32A1025.23,1025.23,0,0,1,224.5,156C225.5,102.6,230.6,44,237.3.9Z" transform="translate(0 0.03)"/><path class="cls-2" d="M230.1,59.8c-2.3,39.6-12.8,121.7-71.4,197.8-18.48,23.87-52.11,61.84-76.24,80,34.48.14,73.9.71,104.12,1.7,17.4,3.2,34.32.21,49.92,4.11-4.3-30.9-7.8-63.9-9.9-98.8A1202.8,1202.8,0,0,1,230.1,59.8Z" transform="translate(0 0.03)"/><path class="cls-3" d="M82.46,296.57c27.3-21.29,58.33-60.74,77-91.71,20.69-30.9,36.28-64.07,48.92-98.46" transform="translate(0 0.03)"/></svg>