<svg id="Layer_1" data-name="Layer 1" xmlns="http://www.w3.org/2000/svg" viewBox="0 0 441.1 85.7"><defs><style>.cls-1{fill:#775034;}.cls-2{fill:#6b472e;}.cls-3{fill:#5a3405;}.cls-4{fill:#8dd4db;}</style></defs><path id="hf0WiaC2" class="cls-1" d="M316.3,289.2q102.5,0,211.6-8.4a5.7,5.7,0,0,1,5.1,8.9l-10.3,14.7c-16.4,23.4-46.7,58.7-75.2,58.7H148.9c-25.1,0-41.9-41.8-41.9-66.9v-4.3a11,11,0,0,1,12-11Q214.3,289.2,316.3,289.2Z" transform="translate(-101 -277.4)"/><path class="cls-2" d="M536.2,284.8c-3.9,10.4-26.6,61.8-74.1,75.2a87.1,87.1,0,0,1-23.3,3.1H349c7.8-6.2,32.3-27.6,34.5-60.2a69.7,69.7,0,0,0-1.2-18.1Z" transform="translate(-101 -277.4)"/><path id="a3aRJqaO7p" class="cls-3" d="M170.3,280.8H464l75-3.4a3,3,0,0,1,3.1,2.9v4a3.4,3.4,0,0,1-3.1,3.3l-73.9,4.5H170.3l-63-4.4a5.8,5.8,0,0,1-5.1-4c-.4-1.3-.6-1.8-1.1-3.2a2.4,2.4,0,0,1,2.4-3.1Z" transform="translate(-101 -277.4)"/><ellipse class="cls-3" cx="321.5" cy="44.1" rx="25.4" ry="24.7"/><path id="aWlGX6rMt" class="cls-4" d="M443.8,321.5c0,10.4-9.5,18.8-21.3,18.8s-21.3-8.4-21.3-18.8,9.5-18.7,21.3-18.7S443.8,311.1,443.8,321.5Z" transform="translate(-101 -277.4)"/><ellipse class="cls-3" cx="212.3" cy="46.6" rx="25.3" ry="25.1"/><path id="cSR3fSFc9" class="cls-4" d="M334.5,322.8c0,10.5-9.5,19.1-21.2,19.1S292,333.3,292,322.8s9.5-19.1,21.3-19.1S334.5,312.2,334.5,322.8Z" transform="translate(-101 -277.4)"/><ellipse class="cls-3" cx="92.8" cy="46.6" rx="25.4" ry="24.8"/><path id="b4pCUvpni" class="cls-4" d="M214.4,323.4c0,10.3-9.5,18.8-21.3,18.8s-21.3-8.5-21.3-18.8,9.5-18.9,21.3-18.9S214.4,312.9,214.4,323.4Z" transform="translate(-101 -277.4)"/></svg>