<svg id="Layer_1" data-name="Layer 1" xmlns="http://www.w3.org/2000/svg" viewBox="0 0 132.8 342.5"><defs><style>.cls-1{fill:#d4d2bf;}.cls-2{fill:none;stroke:#bab6a4;stroke-linecap:round;stroke-miterlimit:10;stroke-width:5px;}.cls-3{fill:#bab6a4;}</style></defs><path class="cls-1" d="M272.9,149a684.5,684.5,0,0,1,95.5,172.7,690.7,690.7,0,0,1,36.6,142,233.9,233.9,0,0,0-132.8,27.8,584,584,0,0,0,25.9-166.7A581.5,581.5,0,0,0,272.9,149Z" transform="translate(-272.2 -149)"/><path class="cls-2" d="M314.5,430.6A339.8,339.8,0,0,0,334.2,367a337.7,337.7,0,0,0,7.1-70.2" transform="translate(-272.2 -149)"/><path class="cls-3" d="M358.2,296.2a259.4,259.4,0,0,1-5.9,106.4,255.1,255.1,0,0,1-29.6,68.5,179.6,179.6,0,0,1,46.4-9,173.6,173.6,0,0,1,35.9,1.6,677.5,677.5,0,0,0-20.6-94.1A700.8,700.8,0,0,0,358.2,296.2Z" transform="translate(-272.2 -149)"/></svg>