<svg xmlns="http://www.w3.org/2000/svg" viewBox="0 0 243.2 387.5"><defs><style>.cls-1{fill:#457c72;}</style></defs><g id="Layer_1" data-name="Layer 1"><path id="fgVENuGQz" class="cls-1" d="M5.1,0a5.1,5.1,0,0,1,5.1,5.1h0V382.4a5.1,5.1,0,0,1-5.1,5.1h0A5.1,5.1,0,0,1,0,382.4H0V5.1A5.1,5.1,0,0,1,5.1,0Z" transform="translate(233)"/></g><g id="Layer_2" data-name="Layer 2"><path id="fgVENuGQz-2" data-name="fgVENuGQz" class="cls-1" d="M-233,343.5c0-2.82,1.4-5.1,3.13-5.1H2c1.73,0,3.13,2.28,3.13,5.1h0c0,2.82-1.4,5.1-3.13,5.1H-229.87c-1.73,0-3.13-2.28-3.13-5.1Z" transform="translate(233)"/></g></svg>