<svg id="Layer_1" data-name="Layer 1" xmlns="http://www.w3.org/2000/svg" viewBox="0 0 789.42 830.61"><defs><style>.cls-1{fill:#59b28c;}</style></defs><path class="cls-1" d="M1253.4,969H545.2s-65.8-372,15.2-443,245-83,124-151-27-140,27-73,114,174,13,243-55,142,16,188,110,248,134,38,51-417-17-459-147-103-55-148,211-17,201,18-101-24-111,24,85-5,77,113-79,511-4,360,37-240,58-340,29-260,176-178,28,110-15,52-89,7-82,46,28,182,5,268,150,67,119-40-144-109-76-161,175-28,157,122-85,165-58,241S1253.4,969,1253.4,969Z" transform="translate(-519.99 -138.39)"/></svg>