<svg xmlns="http://www.w3.org/2000/svg" viewBox="0 0 1292 458"><defs><style>.cls-1{fill:#b2b2b2;}.cls-2{fill:#d8d8d8;}.cls-3{fill:#fff;}</style></defs><g id="Layer_2" data-name="Layer 2"><g id="Layer_2-2" data-name="Layer 2"><ellipse class="cls-1" cx="248" cy="313.5" rx="117" ry="87.5"/><ellipse class="cls-1" cx="397" cy="212.5" rx="130" ry="101.5"/><ellipse class="cls-1" cx="596.5" cy="189.5" rx="105.5" ry="75.5"/><ellipse class="cls-1" cx="653" cy="298" rx="126" ry="72"/><ellipse class="cls-1" cx="716" cy="244" rx="63" ry="54"/><ellipse class="cls-1" cx="124" cy="363.5" rx="124" ry="37.5"/><ellipse class="cls-1" cx="447" cy="337.5" rx="167" ry="63.5"/><ellipse class="cls-1" cx="849" cy="337.5" rx="147" ry="63.5"/><ellipse class="cls-1" cx="815" cy="263" rx="72" ry="50"/><ellipse class="cls-1" cx="759.5" cy="237.5" rx="127.5" ry="75.5"/><ellipse class="cls-1" cx="527.5" cy="263" rx="69.5" ry="51"/><rect class="cls-1" x="132" y="337" width="717" height="63"/></g><g id="Layer_4" data-name="Layer 4"><ellipse class="cls-2" cx="544" cy="271.5" rx="117" ry="87.5"/><ellipse class="cls-2" cx="693" cy="170.5" rx="130" ry="101.5"/><ellipse class="cls-2" cx="867" cy="161.5" rx="103" ry="94.5"/><ellipse class="cls-2" cx="949" cy="256" rx="126" ry="72"/><ellipse class="cls-2" cx="1012" cy="202" rx="63" ry="54"/><ellipse class="cls-2" cx="420" cy="321.5" rx="124" ry="37.5"/><ellipse class="cls-2" cx="743" cy="295.5" rx="167" ry="63.5"/><ellipse class="cls-2" cx="1145" cy="295.5" rx="147" ry="63.5"/><ellipse class="cls-2" cx="1111" cy="221" rx="72" ry="50"/><ellipse class="cls-2" cx="1024.5" cy="212.5" rx="127.5" ry="75.5"/><ellipse class="cls-2" cx="823.5" cy="221" rx="69.5" ry="51"/><rect class="cls-2" x="428" y="295" width="717" height="63"/><ellipse class="cls-2" cx="622" cy="110.5" rx="121" ry="110.5"/></g><g id="Layer_3" data-name="Layer 3"><ellipse class="cls-3" cx="540.85" cy="381.67" rx="129.02" ry="76.33"/><ellipse class="cls-3" cx="658.06" cy="288.1" rx="136.9" ry="93.07"/><ellipse class="cls-3" cx="802.35" cy="318.14" rx="80.27" ry="49.25"/><ellipse class="cls-3" cx="830.91" cy="381.67" rx="232.93" ry="76.33"/><ellipse class="cls-3" cx="918.08" cy="309.77" rx="106.37" ry="87.17"/><ellipse class="cls-3" cx="806.78" cy="269.39" rx="80.76" ry="87.17"/><ellipse class="cls-3" cx="402.47" cy="419.59" rx="84.21" ry="38.41"/><ellipse class="cls-3" cx="1033.31" cy="425.5" rx="85.69" ry="32.5"/><rect class="cls-3" x="333.03" y="399.89" width="700.28" height="58.11"/><ellipse class="cls-3" cx="316.78" cy="443.23" rx="46.78" ry="14.77"/></g></g></svg>